<svg width="24.000000" height="24.000000" viewBox="0 0 24 24" fill="none" xmlns="http://www.w3.org/2000/svg" xmlns:xlink="http://www.w3.org/1999/xlink">
	<desc>
			Created with Pixso.
	</desc>
	<defs>
		<linearGradient id="paint_linear_1016_10344_0" x1="1199.489014" y1="0.000000" x2="1199.489014" y2="2400.000000" gradientUnits="userSpaceOnUse">
			<stop stop-color="#111D2E"/>
			<stop offset="0.212000" stop-color="#051839"/>
			<stop offset="0.407000" stop-color="#0A1B48"/>
			<stop offset="0.581000" stop-color="#132E62"/>
			<stop offset="0.738000" stop-color="#144B7E"/>
			<stop offset="0.873000" stop-color="#136497"/>
			<stop offset="1.000000" stop-color="#1387B8"/>
		</linearGradient>
	</defs>
	<path id="Vector" d="M0.490234 15.4507C1.97363 20.3945 6.5625 24 11.9922 24C18.624 24 24 18.6274 24 12C24 5.37256 18.624 0 11.9922 0C5.62891 0 0.421875 4.94727 0.0107422 11.2026C0.789062 12.5068 1.09082 13.3135 0.489258 15.4507L0.490234 15.4507Z" fill="url(#paint_linear_1016_10344_0)" fill-opacity="1.000000" fill-rule="nonzero"/>
	<path id="Vector" d="M11.373 8.99463L11.375 9.05371L8.43652 13.3193C7.96094 13.2974 7.4834 13.3813 7.03027 13.5674C6.83301 13.6479 6.64453 13.748 6.46777 13.8677L0.015625 11.21C0.015625 11.21 -0.133789 13.6646 0.488281 15.4941L5.0498 17.375C5.27539 18.3979 5.98047 19.2949 7.0166 19.7261C7.83203 20.0649 8.74902 20.0659 9.56543 19.73C10.3818 19.3936 11.0312 18.7476 11.3711 17.9331C11.5518 17.499 11.6396 17.0317 11.6279 16.562L15.8271 13.5601L15.9307 13.562C18.4473 13.562 20.4922 11.5122 20.4922 8.99463C20.4922 6.47656 18.4502 4.43457 15.9307 4.4292C13.416 4.4292 11.3701 6.47656 11.3701 8.99463L11.373 8.99463ZM10.668 17.6382C10.1221 18.9507 8.61719 19.5684 7.30859 19.0234C6.72754 18.7798 6.25684 18.3311 5.98633 17.7627L7.4707 18.3779C7.7002 18.4731 7.94629 18.5225 8.19434 18.5229C8.44336 18.5234 8.68945 18.4746 8.91895 18.3799C9.14844 18.2852 9.35742 18.1465 9.5332 17.9712C9.70898 17.7954 9.84863 17.5874 9.94434 17.3579C10.1377 16.895 10.1387 16.374 9.94727 15.9097C9.75684 15.4458 9.38867 15.0762 8.92578 14.8828L7.38672 14.2471C7.97949 14.022 8.65234 14.0146 9.28223 14.2759C9.91992 14.5396 10.4072 15.0361 10.6689 15.6709C10.9297 16.3057 10.9287 17.0059 10.665 17.6382L10.668 17.6382ZM15.9346 12.0376C15.1289 12.0352 14.3564 11.7139 13.7871 11.1436C13.2168 10.5737 12.8965 9.80078 12.8965 8.99512C12.8975 8.18945 13.2178 7.41699 13.7871 6.84717C14.3564 6.27686 15.1289 5.95557 15.9346 5.95361C16.7412 5.95557 17.5137 6.27686 18.083 6.84668C18.6533 7.41699 18.9736 8.18945 18.9746 8.99512C18.9736 9.80127 18.6533 10.5737 18.084 11.144C17.5137 11.7144 16.7412 12.0356 15.9346 12.0376ZM13.6582 8.99023C13.6572 8.38477 13.8975 7.8042 14.3252 7.37549C14.7529 6.94678 15.334 6.70557 15.9395 6.70459C17.1982 6.70459 18.2227 7.72852 18.2227 8.99023C18.2227 9.5957 17.9824 10.1768 17.5547 10.605C17.126 11.0337 16.5449 11.2744 15.9395 11.2754C15.334 11.2744 14.7529 11.0332 14.3252 10.6045C13.8975 10.1763 13.6572 9.5957 13.6582 8.99023Z" fill="#FFFFFF" fill-opacity="1.000000" fill-rule="nonzero"/>
</svg>
