<svg width="87" height="24" viewBox="0 0 87 24" fill="none" xmlns="http://www.w3.org/2000/svg">
<g clip-path="url(#clip0_311_814)">
<path d="M10.9384 7.39802C11.853 7.39802 12.6432 7.56298 13.3072 7.88708C13.9744 8.21431 14.5249 8.65511 14.9666 9.20948C15.4022 9.76669 15.7264 10.4179 15.9358 11.1642C16.1437 11.9128 16.2481 12.7173 16.2481 13.5787C16.2481 14.9018 16.0074 16.1518 15.5213 17.33C15.0353 18.5101 14.3759 19.5337 13.537 20.4068C12.6989 21.2787 11.7092 21.9661 10.5679 22.4741C9.42846 22.9823 8.18958 23.2364 6.85941 23.2364C6.68741 23.2364 6.385 23.2314 5.95782 23.2225C5.53066 23.2137 5.0397 23.1693 4.48986 23.0944C3.9365 23.0166 3.35143 22.9017 2.73357 22.7476C2.11608 22.5964 1.52959 22.3846 0.977295 22.1156L5.91588 1.22016L10.3392 0.529785L8.57093 7.94487C8.94947 7.77309 9.33081 7.64007 9.71147 7.54311C10.0925 7.44771 10.5013 7.39802 10.9384 7.39802ZM7.22807 19.7029C7.89422 19.7029 8.52193 19.5379 9.11158 19.2138C9.70301 18.8895 10.2134 18.4515 10.6409 17.9061C11.0684 17.3581 11.4068 16.7408 11.6535 16.0513C11.9002 15.3618 12.025 14.6423 12.025 13.8939C12.025 12.9742 11.8724 12.257 11.5682 11.7384C11.264 11.2221 10.7012 10.9623 9.88382 10.9623C9.61595 10.9623 9.2709 11.0137 8.84302 11.1057C8.41373 11.2032 8.02955 11.406 7.68521 11.7108L5.8024 19.5855C5.91589 19.6057 6.01633 19.6248 6.10198 19.643C6.18586 19.6625 6.27856 19.6764 6.3709 19.6859C6.46854 19.6969 6.58027 19.7026 6.71526 19.7026C6.85025 19.7026 7.01906 19.7029 7.22807 19.7029Z" fill="#EBEFFD" fill-opacity="0.6"/>
<path d="M20.835 22.8361H16.6101L20.178 7.71817H24.4317L20.835 22.8361ZM22.8908 5.87618C22.3012 5.87618 21.7664 5.69944 21.292 5.34524C20.8138 4.99317 20.577 4.45129 20.577 3.72088C20.577 3.31912 20.658 2.94221 20.8187 2.58659C20.9819 2.23168 21.1952 1.92617 21.4623 1.66637C21.7291 1.40871 22.0383 1.20286 22.3893 1.0477C22.7425 0.895085 23.1182 0.818848 23.5186 0.818848C24.1079 0.818848 24.6397 0.995594 25.1159 1.34979C25.5902 1.7057 25.8289 2.24772 25.8289 2.97415C25.8289 3.37733 25.7482 3.75566 25.5861 4.11057C25.425 4.46548 25.2118 4.77099 24.9446 5.03079C24.6799 5.28888 24.368 5.49402 24.0177 5.64762C23.6641 5.80279 23.2898 5.87618 22.8908 5.87618Z" fill="#EBEFFD" fill-opacity="0.6"/>
<path d="M28.1348 3.95062L32.5599 3.26025L31.4733 7.71651H36.2123L35.3565 11.2223H30.646L29.3912 16.5103C29.2756 16.9511 29.2101 17.3628 29.1918 17.7454C29.171 18.1299 29.2192 18.4599 29.3334 18.7378C29.4469 19.0163 29.6511 19.2311 29.9471 19.383C30.2418 19.5373 30.6636 19.6151 31.217 19.6151C31.6728 19.6151 32.1169 19.5714 32.5462 19.4848C32.9729 19.3996 33.4055 19.2811 33.8432 19.126L34.1583 22.404C33.5873 22.6148 32.9691 22.7961 32.303 22.9487C31.6357 23.1035 30.8459 23.178 29.933 23.178C28.6205 23.178 27.603 22.9818 26.8779 22.591C26.154 22.1974 25.6422 21.6597 25.336 20.979C25.0339 20.3008 24.8989 19.5189 24.9366 18.6381C24.9758 17.7551 25.1079 16.8269 25.336 15.8495L28.1348 3.95062Z" fill="#EBEFFD" fill-opacity="0.6"/>
<path d="M36.0261 16.7981C36.0261 15.4958 36.2355 14.2679 36.6538 13.1184C37.0714 11.9678 37.6731 10.9617 38.4537 10.0981C39.2317 9.23891 40.1794 8.55819 41.295 8.05848C42.4051 7.5616 43.6483 7.31104 45.0182 7.31104C45.8758 7.31104 46.6416 7.39267 47.3155 7.55621C47.9922 7.72132 48.6044 7.93454 49.1582 8.20215L47.7011 11.5383C47.3205 11.3829 46.9254 11.2459 46.5169 11.1216C46.108 10.995 45.6089 10.934 45.0186 10.934C43.6084 10.934 42.4936 11.4233 41.6639 12.3989C40.8375 13.3753 40.4211 14.6895 40.4211 16.3381C40.4211 17.3151 40.6305 18.1052 41.0506 18.7095C41.4687 19.314 42.2408 19.6145 43.3621 19.6145C43.9154 19.6145 44.4493 19.5563 44.9608 19.4427C45.4761 19.3277 45.9311 19.1829 46.3319 19.0119L46.6473 22.4318C46.1129 22.6405 45.5236 22.829 44.8772 22.994C44.2294 23.1533 43.4582 23.236 42.5641 23.236C41.3838 23.236 40.3845 23.0621 39.5672 22.7197C38.7495 22.3719 38.0738 21.9101 37.5416 21.3252C37.0065 20.7389 36.6223 20.0543 36.3848 19.2685C36.1474 18.4835 36.0261 17.6587 36.0261 16.7981Z" fill="#EBEFFD" fill-opacity="0.6"/>
<path d="M54.7941 23.236C53.7857 23.236 52.9099 23.0813 52.1669 22.7749C51.426 22.4687 50.8125 22.039 50.3271 21.4818C49.8411 20.9274 49.4773 20.2704 49.2281 19.5134C48.979 18.7568 48.8591 17.9187 48.8591 17.0007C48.8591 15.8491 49.0427 14.6977 49.4139 13.5495C49.7833 12.3989 50.3313 11.3651 51.0566 10.4463C51.7764 9.52596 52.6643 8.77355 53.7095 8.18696C54.7539 7.60419 55.9551 7.31104 57.3043 7.31104C58.2943 7.31104 59.1656 7.46606 59.9187 7.77242C60.6685 8.07793 61.286 8.51134 61.7741 9.06571C62.2569 9.62292 62.6239 10.277 62.8706 11.035C63.1191 11.7903 63.2417 12.6303 63.2417 13.5492C63.2417 14.6973 63.0606 15.8486 62.701 17.0004C62.3413 18.1463 61.8072 19.1827 61.1023 20.1036C60.3988 21.0225 59.519 21.7745 58.4625 22.3587C57.4073 22.9429 56.1835 23.236 54.7941 23.236ZM56.9056 10.9342C56.2794 10.9342 55.7256 11.1174 55.2516 11.479C54.7758 11.845 54.3761 12.3049 54.054 12.8596C53.7283 13.4168 53.4868 14.0244 53.3237 14.6849C53.162 15.3468 53.0826 15.9726 53.0826 16.567C53.0826 17.5264 53.2363 18.2734 53.5382 18.811C53.8446 19.3459 54.3947 19.6149 55.1945 19.6149C55.8229 19.6149 56.3738 19.4332 56.8507 19.0677C57.3237 18.7045 57.7238 18.2443 58.0483 17.6885C58.3719 17.1341 58.6155 16.5248 58.7786 15.8632C58.9382 15.2034 59.0197 14.5742 59.0197 13.9808C59.0197 13.024 58.8667 12.2751 58.5619 11.738C58.2574 11.2033 57.7047 10.9342 56.9056 10.9342Z" fill="#EBEFFD" fill-opacity="0.6"/>
<path d="M67.8453 22.8361H63.6169L67.1848 7.71817H71.4407L67.8453 22.8361ZM69.898 5.87618C69.3087 5.87618 68.7744 5.69944 68.3007 5.34524C67.8249 4.99317 67.5859 4.45129 67.5859 3.72088C67.5859 3.31912 67.668 2.94221 67.8291 2.58659C67.9901 2.23168 68.2048 1.92617 68.472 1.66637C68.7373 1.40871 69.0493 1.20286 69.3997 1.0477C69.7507 0.895085 70.1263 0.818848 70.5253 0.818848C71.116 0.818848 71.6496 0.995594 72.1247 1.34979C72.6003 1.7057 72.8402 2.24772 72.8402 2.97415C72.8402 3.37733 72.7549 3.75566 72.5953 4.11057C72.4356 4.46548 72.221 4.77099 71.9549 5.03079C71.687 5.28888 71.3789 5.49402 71.0279 5.64762C70.674 5.80279 70.2991 5.87618 69.898 5.87618Z" fill="#EBEFFD" fill-opacity="0.6"/>
<path d="M74.4858 8.40569C74.8066 8.31128 75.1647 8.19771 75.5541 8.0742C75.945 7.95069 76.3816 7.8357 76.8694 7.73207C77.352 7.62517 77.8965 7.53857 78.4954 7.47156C79.0942 7.40299 79.7765 7.36963 80.5346 7.36963C82.7628 7.36963 84.2988 8.02309 85.1469 9.3259C85.9942 10.6287 86.1408 12.4118 85.591 14.6718L83.6475 22.8347H79.3947L81.2783 14.8436C81.3932 14.3446 81.4834 13.8624 81.5501 13.391C81.6173 12.924 81.6135 12.5123 81.5349 12.156C81.4599 11.8039 81.2829 11.5157 81.0083 11.2924C80.7296 11.0728 80.3083 10.9623 79.737 10.9623C79.1861 10.9623 78.6258 11.0219 78.0537 11.1369L75.2845 22.8344H71.03L74.4858 8.40569Z" fill="#EBEFFD" fill-opacity="0.6"/>
</g>
<defs>
<clipPath id="clip0_311_814">
<rect width="86" height="24" fill="white" transform="translate(0.977295 -0.00146484)"/>
</clipPath>
</defs>
</svg>
