<svg width="28" height="28" viewBox="0 0 28 28" fill="none" xmlns="http://www.w3.org/2000/svg">
<path d="M27.5809 17.3867C25.7109 24.8868 18.1138 29.4511 10.612 27.5809C3.11336 25.7111 -1.45163 18.1144 0.419396 10.6148C2.28852 3.11392 9.88572 -1.45092 17.3853 0.418946C24.8865 2.28881 29.4511 9.88636 27.5809 17.3867Z" fill="#F7931A"/>
<path d="M21.3032 12.4672C21.6015 10.5155 20.0828 9.4663 18.0063 8.76641L18.6799 6.12254L17.0352 5.72147L16.3795 8.29566C15.947 8.19024 15.503 8.09078 15.0617 7.99223L15.7222 5.40107L14.0785 5L13.4044 7.64294C13.0465 7.56318 12.6951 7.48436 12.3541 7.40139L12.356 7.39314L10.0879 6.83897L9.65036 8.55784C9.65036 8.55784 10.8706 8.83149 10.8449 8.84845C11.511 9.01117 11.6314 9.44245 11.6112 9.78439L10.8439 12.7964C10.8898 12.8079 10.9493 12.8243 11.0149 12.85C10.9601 12.8367 10.9015 12.8221 10.8411 12.8079L9.76555 17.0271C9.68411 17.2251 9.47752 17.5221 9.0119 17.4094C9.02825 17.4328 7.81643 17.1174 7.81643 17.1174L7 18.9595L9.14025 19.4817C9.53845 19.5793 9.92862 19.6815 10.3127 19.7777L9.63208 22.4519L11.2749 22.853L11.9489 20.2072C12.3977 20.3264 12.8334 20.4364 13.2596 20.54L12.5879 23.1733L14.2325 23.5744L14.9133 20.9053C17.7177 21.4247 19.8266 21.2152 20.7143 18.7332C21.4296 16.7347 20.6787 15.5818 19.2031 14.8302C20.2777 14.5877 21.0872 13.896 21.3032 12.4672ZM17.5453 17.6235C17.0371 19.622 13.5983 18.5415 12.4834 18.2706L13.3866 14.728C14.5014 15.0002 18.0765 15.5392 17.5453 17.6235ZM18.0541 12.4384C17.5903 14.2563 14.7281 13.3327 13.7997 13.1063L14.6185 9.89305C15.547 10.1195 18.537 10.5421 18.0541 12.4384Z" fill="white"/>
</svg>
