<svg width="59" height="16" viewBox="0 0 59 16" fill="none" xmlns="http://www.w3.org/2000/svg">
<g clip-path="url(#clip0_296_1018)">
<path d="M6.83376 4.93246C7.46123 4.93246 8.00335 5.04243 8.4589 5.2585C8.91663 5.47665 9.29432 5.77052 9.59729 6.1401C9.89614 6.51157 10.1186 6.9457 10.2622 7.44324C10.4049 7.94229 10.4765 8.47863 10.4765 9.05293C10.4765 9.935 10.3114 10.7683 9.97787 11.5538C9.64444 12.3405 9.19204 13.0229 8.61654 13.605C8.04155 14.1863 7.36258 14.6445 6.57963 14.9832C5.79789 15.322 4.94796 15.4914 4.03541 15.4914C3.91741 15.4914 3.70994 15.4881 3.41687 15.4821C3.12382 15.4762 2.787 15.4466 2.40978 15.3967C2.03015 15.3449 1.62877 15.2682 1.20489 15.1655C0.781257 15.0647 0.378901 14.9235 0 14.7442L3.3881 0.813887L6.42269 0.353638L5.20958 5.29703C5.46928 5.18251 5.7309 5.09383 5.99205 5.02918C6.25343 4.96559 6.53392 4.93246 6.83376 4.93246ZM4.28832 13.1357C4.74533 13.1357 5.17597 13.0257 5.5805 12.8097C5.98625 12.5934 6.33638 12.3014 6.62968 11.9378C6.92298 11.5725 7.1551 11.161 7.32437 10.7013C7.49363 10.2416 7.57923 9.76199 7.57923 9.26303C7.57923 8.64994 7.47453 8.1718 7.26585 7.82607C7.05717 7.48185 6.67102 7.30866 6.11029 7.30866C5.92652 7.30866 5.6898 7.34292 5.39626 7.40425C5.10174 7.46927 4.83817 7.60442 4.60194 7.80761L3.31025 13.0575C3.38811 13.0709 3.45701 13.0837 3.51577 13.0958C3.57332 13.1088 3.63691 13.118 3.70027 13.1244C3.76725 13.1317 3.8439 13.1355 3.93651 13.1355C4.02912 13.1355 4.14493 13.1357 4.28832 13.1357Z" fill="white"/>
<path d="M13.6231 15.2247H10.7246L13.1723 5.14607H16.0906L13.6231 15.2247ZM15.0334 3.91808C14.629 3.91808 14.2621 3.80025 13.9366 3.56412C13.6085 3.3294 13.4461 2.96815 13.4461 2.48121C13.4461 2.21337 13.5017 1.9621 13.6119 1.72502C13.7238 1.48841 13.8702 1.28474 14.0535 1.11154C14.2365 0.939765 14.4486 0.802534 14.6894 0.69909C14.9317 0.597349 15.1895 0.546524 15.4641 0.546524C15.8684 0.546524 16.2333 0.664355 16.56 0.900489C16.8854 1.13776 17.0491 1.4991 17.0491 1.98339C17.0491 2.25218 16.9938 2.5044 16.8826 2.74101C16.772 2.97761 16.6258 3.18129 16.4425 3.35448C16.2608 3.52654 16.0469 3.6633 15.8065 3.76571C15.564 3.86915 15.3072 3.91808 15.0334 3.91808Z" fill="white"/>
<path d="M18.631 2.635L21.6668 2.17476L20.9213 5.1456H24.1725L23.5854 7.4828H20.3538L19.4929 11.0082C19.4136 11.302 19.3687 11.5765 19.3561 11.8315C19.3419 12.0878 19.3749 12.3079 19.4533 12.4931C19.5312 12.6788 19.6712 12.822 19.8743 12.9233C20.0765 13.0261 20.3659 13.078 20.7455 13.078C21.0582 13.078 21.3629 13.0488 21.6574 12.9911C21.9502 12.9343 22.2469 12.8553 22.5472 12.7519L22.7634 14.9373C22.3717 15.0778 21.9475 15.1987 21.4905 15.3004C21.0328 15.4036 20.4909 15.4532 19.8646 15.4532C18.9642 15.4532 18.2661 15.3224 17.7687 15.0619C17.272 14.7995 16.9209 14.441 16.7109 13.9872C16.5036 13.5351 16.411 13.0138 16.4368 12.4267C16.4637 11.838 16.5544 11.2192 16.7109 10.5676L18.631 2.635Z" fill="white"/>
<path d="M24.0454 11.2001C24.0454 10.3319 24.189 9.51328 24.476 8.74695C24.7625 7.97987 25.1753 7.30914 25.7109 6.73343C26.2446 6.16065 26.8947 5.70683 27.6601 5.37369C28.4217 5.04244 29.2746 4.8754 30.2144 4.8754C30.8027 4.8754 31.3281 4.92982 31.7905 5.03885C32.2547 5.14892 32.6747 5.29107 33.0546 5.46947L32.055 7.69358C31.7939 7.58995 31.5228 7.49861 31.2425 7.4158C30.962 7.33138 30.6197 7.29068 30.2147 7.29068C29.2472 7.29068 28.4824 7.61692 27.9132 8.2673C27.3462 8.91826 27.0606 9.79437 27.0606 10.8935C27.0606 11.5448 27.2042 12.0715 27.4925 12.4744C27.7792 12.8774 28.309 13.0777 29.0782 13.0777C29.4578 13.0777 29.8241 13.0389 30.175 12.9632C30.5285 12.8865 30.8407 12.79 31.1156 12.676L31.332 14.9559C30.9654 15.095 30.5611 15.2207 30.1177 15.3307C29.6732 15.4369 29.1442 15.4921 28.5308 15.4921C27.721 15.4921 27.0355 15.3761 26.4748 15.1478C25.9138 14.916 25.4502 14.6081 25.0851 14.2182C24.718 13.8273 24.4544 13.3709 24.2915 12.8471C24.1286 12.3237 24.0454 11.7738 24.0454 11.2001Z" fill="white"/>
<path d="M36.9213 15.4921C36.2294 15.4921 35.6286 15.3889 35.1189 15.1847C34.6106 14.9805 34.1897 14.694 33.8567 14.3226C33.5233 13.953 33.2737 13.515 33.1027 13.0103C32.9318 12.5059 32.8496 11.9472 32.8496 11.3352C32.8496 10.5674 32.9755 9.79986 33.2302 9.03438C33.4836 8.2673 33.8596 7.57811 34.3572 6.96558C34.851 6.35201 35.4601 5.85041 36.1772 5.45934C36.8937 5.07083 37.7178 4.8754 38.6434 4.8754C39.3226 4.8754 39.9203 4.97875 40.437 5.18299C40.9514 5.38666 41.375 5.6756 41.7099 6.04518C42.0411 6.41666 42.2929 6.85268 42.4622 7.35807C42.6326 7.86157 42.7167 8.42157 42.7167 9.0342C42.7167 9.79957 42.5924 10.5671 42.3458 11.335C42.099 12.0989 41.7326 12.7898 41.249 13.4038C40.7663 14.0164 40.1628 14.5177 39.438 14.9072C38.714 15.2966 37.8745 15.4921 36.9213 15.4921ZM38.3699 7.29087C37.9402 7.29087 37.5603 7.41296 37.2351 7.65402C36.9087 7.89801 36.6345 8.20465 36.4135 8.57442C36.1901 8.94589 36.0244 9.35097 35.9125 9.79134C35.8015 10.2326 35.7471 10.6497 35.7471 11.046C35.7471 11.6856 35.8525 12.1836 36.0597 12.542C36.2699 12.8987 36.6473 13.078 37.196 13.078C37.6271 13.078 38.0051 12.9569 38.3322 12.7132C38.6567 12.4711 38.9312 12.1642 39.1538 11.7937C39.3758 11.4241 39.5429 11.0179 39.6548 10.5769C39.7643 10.137 39.8202 9.71751 39.8202 9.32191C39.8202 8.68401 39.7153 8.18477 39.5062 7.82674C39.2972 7.47022 38.9181 7.29087 38.3699 7.29087Z" fill="white"/>
<path d="M45.8745 15.2247H42.9736L45.4214 5.14607H48.3411L45.8745 15.2247ZM47.2828 3.91808C46.8785 3.91808 46.5119 3.80025 46.1869 3.56412C45.8605 3.3294 45.6965 2.96815 45.6965 2.48121C45.6965 2.21337 45.7528 1.9621 45.8634 1.72502C45.9738 1.48841 46.1211 1.28474 46.3044 1.11154C46.4865 0.939765 46.7005 0.802534 46.9409 0.69909C47.1817 0.597349 47.4394 0.546524 47.7131 0.546524C48.1183 0.546524 48.4844 0.664355 48.8104 0.900489C49.1366 1.13776 49.3012 1.4991 49.3012 1.98339C49.3012 2.25218 49.2427 2.5044 49.1332 2.74101C49.0236 2.97761 48.8764 3.18129 48.6938 3.35448C48.5101 3.52654 48.2987 3.6633 48.0579 3.76571C47.8151 3.86915 47.5579 3.91808 47.2828 3.91808Z" fill="white"/>
<path d="M50.4304 5.60443C50.6504 5.54149 50.8961 5.46578 51.1633 5.38344C51.4315 5.3011 51.731 5.22444 52.0657 5.15535C52.3967 5.08409 52.7703 5.02635 53.1812 4.98168C53.5919 4.93597 54.0601 4.91373 54.5801 4.91373C56.1088 4.91373 57.1626 5.34937 57.7444 6.21791C58.3257 7.08645 58.4263 8.27516 58.049 9.78187L56.7157 15.2237H53.7981L55.0903 9.89639C55.1692 9.56372 55.2311 9.24222 55.2768 8.928C55.323 8.61663 55.3203 8.34217 55.2664 8.10461C55.2149 7.8699 55.0935 7.67777 54.9051 7.5289C54.7139 7.38249 54.4249 7.30885 54.033 7.30885C53.655 7.30885 53.2706 7.34861 52.8781 7.42527L50.9783 15.2236H48.0596L50.4304 5.60443Z" fill="white"/>
</g>
<defs>
<clipPath id="clip0_296_1018">
<rect width="59" height="16" fill="white"/>
</clipPath>
</defs>
</svg>
