<svg width="19" height="20" viewBox="0 0 19 20" fill="none" xmlns="http://www.w3.org/2000/svg">
<path d="M1.5835 10.4844H15.0418" stroke="#FDCA76" stroke-width="1.1875" stroke-miterlimit="10" stroke-linecap="round" stroke-linejoin="round"/>
<path d="M15.0418 8.64042V14.3008C15.0181 16.5571 14.4006 17.1271 12.0493 17.1271H4.57602C2.18519 17.1271 1.5835 16.5333 1.5835 14.1742V8.64042C1.5835 6.50292 2.08225 5.81417 3.9585 5.70333C4.1485 5.69542 4.35435 5.6875 4.57602 5.6875H12.0493C14.4401 5.6875 15.0418 6.28125 15.0418 8.64042Z" stroke="#FDCA76" stroke-width="1.1875" stroke-linecap="round" stroke-linejoin="round"/>
<path d="M17.4168 5.82792V11.3617C17.4168 13.4992 16.9181 14.1879 15.0418 14.2987V8.63833C15.0418 6.27917 14.4401 5.68542 12.0493 5.68542H4.57602C4.35435 5.68542 4.1485 5.69333 3.9585 5.70125C3.98225 3.445 4.59977 2.875 6.95102 2.875H14.4243C16.8151 2.875 17.4168 3.46875 17.4168 5.82792Z" stroke="#FDCA76" stroke-width="1.1875" stroke-linecap="round" stroke-linejoin="round"/>
<path d="M4.15625 14.6016H5.51789" stroke="#FDCA76" stroke-width="1.1875" stroke-miterlimit="10" stroke-linecap="round" stroke-linejoin="round"/>
<path d="M7.2124 14.6016H9.93574" stroke="#FDCA76" stroke-width="1.1875" stroke-miterlimit="10" stroke-linecap="round" stroke-linejoin="round"/>
</svg>
