<svg width="14" height="14" viewBox="0 0 14 14" fill="none" xmlns="http://www.w3.org/2000/svg">
<g clip-path="url(#clip0_1094_3122)">
<path d="M8.28262 7.01559L13.7339 1.5641C14.0887 1.2095 14.0887 0.636169 13.7339 0.281573C13.3793 -0.0730242 12.806 -0.0730242 12.4514 0.281573L6.99993 5.73306L1.5486 0.281573C1.19384 -0.0730242 0.620669 -0.0730242 0.266072 0.281573C-0.0886908 0.636169 -0.0886908 1.2095 0.266072 1.5641L5.7174 7.01559L0.266072 12.4671C-0.0886908 12.8217 -0.0886908 13.395 0.266072 13.7496C0.442789 13.9265 0.675146 14.0153 0.907336 14.0153C1.13953 14.0153 1.37172 13.9265 1.5486 13.7496L6.99993 8.29812L12.4514 13.7496C12.6283 13.9265 12.8605 14.0153 13.0927 14.0153C13.3249 14.0153 13.5571 13.9265 13.7339 13.7496C14.0887 13.395 14.0887 12.8217 13.7339 12.4671L8.28262 7.01559Z" fill="#515064"/>
</g>
<defs>
<clipPath id="clip0_1094_3122">
<rect width="14" height="14" fill="white"/>
</clipPath>
</defs>
</svg>
