<svg width="17" height="18" viewBox="0 0 17 18" fill="none" xmlns="http://www.w3.org/2000/svg">
<g opacity="0.3" clip-path="url(#clip0_665_3527)">
<path d="M1.61152 17.3935C1.19474 17.4178 0.784846 17.2792 0.468255 17.0071C-0.156085 16.379 -0.156085 15.3647 0.468255 14.7366L14.1393 1.06556C14.7886 0.457918 15.8076 0.491696 16.4152 1.14107C16.9647 1.72829 16.9967 2.63086 16.4902 3.25552L2.73866 17.0071C2.42619 17.2753 2.02283 17.4136 1.61152 17.3935Z" fill="white"/>
<path d="M15.2665 17.3935C14.8441 17.3917 14.4393 17.224 14.1393 16.9266L0.468248 3.25544C-0.110172 2.57998 -0.0315325 1.56345 0.643926 0.984982C1.24679 0.46871 2.1359 0.46871 2.73871 0.984982L16.4903 14.656C17.1395 15.2638 17.173 16.2829 16.5652 16.9321C16.5411 16.9579 16.5161 16.9829 16.4903 17.0071C16.3237 17.1519 16.1291 17.261 15.9186 17.3275C15.708 17.3939 15.4861 17.4164 15.2665 17.3935Z" fill="white"/>
</g>
<defs>
<clipPath id="clip0_665_3527">
<rect width="17" height="17" fill="white" transform="translate(0 0.5)"/>
</clipPath>
</defs>
</svg>
