<svg width="32" height="32" viewBox="0 0 32 32" fill="none" xmlns="http://www.w3.org/2000/svg">
<path d="M22.2666 25.3067H9.73323C9.17323 25.3067 8.54657 24.8667 8.3599 24.3333L2.8399 8.89333C2.05323 6.68 2.97323 6 4.86657 7.36L10.0666 11.08C10.9332 11.68 11.9199 11.3733 12.2932 10.4L14.6399 4.14667C15.3866 2.14667 16.6266 2.14667 17.3732 4.14667L19.7199 10.4C20.0932 11.3733 21.0799 11.68 21.9332 11.08L26.8132 7.6C28.8932 6.10667 29.8932 6.86667 29.0399 9.28L23.6532 24.36C23.4532 24.8667 22.8266 25.3067 22.2666 25.3067Z" stroke="#FDCA76" stroke-width="2" stroke-linecap="round" stroke-linejoin="round"/>
<path opacity="0.34" d="M8.66663 29.3333H23.3333" stroke="#FDCA76" stroke-width="2" stroke-linecap="round" stroke-linejoin="round"/>
<path opacity="0.34" d="M12.6666 18.6667H19.3333" stroke="#FDCA76" stroke-width="2" stroke-linecap="round" stroke-linejoin="round"/>
</svg>
