<svg width="12" height="16" viewBox="0 0 12 16" fill="none" xmlns="http://www.w3.org/2000/svg">
<path d="M4.62254 0.0390425C4.87091 -0.0493456 5.1422 0.0244416 5.36981 0.139738C5.52885 0.244908 5.68789 0.351198 5.866 0.420006C5.87961 0.446299 5.90794 0.498325 5.92155 0.524058C5.91447 0.5414 5.90086 0.577203 5.89378 0.594545C6.02068 0.891037 6.10184 1.24235 5.97874 1.55389C5.89487 1.65906 5.7489 1.67534 5.6307 1.71607C5.63016 1.86655 5.65358 2.01541 5.66611 2.16478C5.91883 2.20673 6.13277 2.02604 6.38277 2.04394C6.41654 1.90017 6.44323 1.75405 6.488 1.61313C6.53974 1.70656 6.54187 1.81402 6.54246 1.91919C6.60782 1.93821 6.67427 1.95555 6.74116 1.97228C6.74181 1.99807 6.7423 2.04954 6.7423 2.07527C7.83815 2.08198 8.93341 2.07018 10.0293 2.08142C10.0266 2.11991 10.0213 2.19717 10.0191 2.23582C10.0474 2.23582 10.1051 2.23638 10.1339 2.23638C10.1328 2.03169 10.1339 1.82633 10.1333 1.62164C10.1611 1.62046 10.2156 1.61878 10.2428 1.61822C10.2435 1.77934 10.244 1.94045 10.2456 2.10162C10.2695 2.13183 10.3174 2.19219 10.3415 2.2224C10.3595 2.20052 10.3954 2.15756 10.4133 2.13569C10.4966 2.21574 10.4492 2.32539 10.4455 2.42373C10.7522 2.42032 11.062 2.44158 11.3677 2.41584C11.3905 2.3985 11.4363 2.36438 11.4592 2.34709C11.5011 2.36382 11.5436 2.38066 11.5855 2.398C11.7233 2.39453 11.8617 2.39408 12 2.39352C11.9972 2.46681 11.995 2.54003 11.9923 2.61337C11.8142 2.61052 11.6355 2.60666 11.4601 2.63793C11.3468 2.53785 11.1949 2.56963 11.0582 2.56582C10.8479 2.57589 10.6311 2.53785 10.4275 2.60661C10.3064 2.64129 10.1736 2.63295 10.0669 2.56241C10.0412 2.62786 10.0805 2.77443 9.97311 2.76878C9.55045 2.77443 9.12834 2.76492 8.70623 2.77163C8.6485 2.80296 8.59022 2.83261 8.53259 2.86164C8.47159 3.04849 8.29676 3.17318 8.14795 3.28731C8.12944 3.57429 8.24 3.84225 8.28303 4.12078C8.1997 4.14534 8.11582 4.17063 8.03358 4.1986C7.91539 4.48502 7.98783 4.876 7.71441 5.07582C7.50471 5.20108 7.36593 5.47351 7.08315 5.43049C7.22694 5.55357 7.04393 5.51497 7.06299 5.41651C6.55156 5.37008 6.12073 5.06184 5.67629 4.82694C5.6556 4.95555 5.62297 5.08203 5.58915 5.2079C5.75799 5.24091 5.89743 5.36845 5.92738 5.54635C5.9813 5.93408 5.87346 6.31902 5.87509 6.70776C5.88708 6.936 5.79176 7.14517 5.67303 7.33145C5.569 7.45229 5.40505 7.32804 5.28033 7.3102C5.25195 7.3667 5.22423 7.42325 5.19699 7.48026C5.2324 7.63236 5.24765 7.79068 5.29721 7.93949C5.57553 8.25556 5.8288 8.59798 6.02324 8.97558C6.2234 9.40322 6.40176 9.84126 6.55761 10.2879C6.5728 10.3747 6.65232 10.4058 6.72215 10.4373C6.73141 10.5268 6.74066 10.6162 6.74938 10.7069C6.77661 10.7477 6.80439 10.7885 6.83271 10.8299C6.8496 11.3815 6.78369 11.9308 6.70025 12.4751C6.64862 12.7208 6.78849 12.9607 6.73184 13.208C6.73838 13.3346 6.65352 13.4302 6.61365 13.5421C6.60603 13.8033 6.5935 14.0679 6.62139 14.3287C6.64088 14.52 6.7984 14.643 6.90515 14.7857C7.02171 14.9127 7.1192 15.0833 7.29567 15.1286C7.46179 15.1795 7.62029 15.2533 7.76669 15.3502C7.81136 15.4637 7.80319 15.584 7.78194 15.702C7.46277 15.7624 7.13707 15.7322 6.81463 15.7373C6.56616 15.7507 6.34459 15.6136 6.1032 15.5851C5.86954 15.579 5.58468 15.6981 5.40505 15.4833C5.4812 15.1852 5.4873 14.8651 5.62662 14.5871C5.67128 14.2722 5.58642 13.9527 5.60429 13.6349C5.57771 13.612 5.52423 13.5661 5.49754 13.5431C5.51671 13.3356 5.41698 13.1509 5.3837 12.9524C5.36202 12.6624 5.33632 12.3728 5.30364 12.0841C5.27804 11.9437 5.34884 11.8151 5.44525 11.7217C5.45396 11.5594 5.47531 11.3988 5.49046 11.2378C5.46704 11.1331 5.38588 11.0554 5.33359 10.9659C5.15876 11.0415 4.92292 11.0057 4.81889 10.8299C4.57222 10.4529 4.32597 10.0758 4.07652 9.70098C3.97848 9.69432 3.875 9.7049 3.7835 9.66462C3.67794 9.55335 3.62282 9.40511 3.55539 9.26973C3.45893 9.38105 3.46596 9.55162 3.35169 9.65293C3.10986 9.8913 3.04559 10.2415 2.91923 10.5469C2.82239 10.7449 2.87686 10.9837 2.7689 11.1768C2.71117 11.2808 2.56629 11.3015 2.52817 11.4202C2.47806 11.5482 2.41923 11.6808 2.30213 11.7587C2.17523 11.8442 2.14151 12.0065 2.08492 12.1407C2.03318 12.2643 2.10998 12.3941 2.092 12.5211C2.01139 12.9245 1.7614 13.2618 1.65628 13.6568C1.60835 13.8347 1.53966 14.035 1.33814 14.0729C1.10884 14.4936 0.982532 15.0084 1.11216 15.482C1.19168 15.6308 1.18733 15.7981 1.16282 15.962C0.798493 15.9911 0.424802 16.0414 0.0670154 15.9369C-0.016862 15.7662 -0.00487952 15.5654 0.0125496 15.3809C0.123061 14.8958 0.26963 14.4192 0.359444 13.9292C0.247244 13.8268 0.273442 13.6702 0.275566 13.5331C0.271808 13.2775 0.441141 13.0727 0.558787 12.8629C0.602959 12.6476 0.582263 12.4161 0.690596 12.2185C0.8181 11.9712 0.925888 11.7039 1.12256 11.5041C1.16009 11.3279 1.28656 11.1948 1.33765 11.0251C1.39212 10.8752 1.2968 10.723 1.31597 10.5698C1.36276 10.1048 1.44506 9.64448 1.51641 9.18296C1.38139 9.06716 1.4249 8.88317 1.38188 8.72703C1.40312 8.6655 1.42981 8.60682 1.46194 8.5497C1.42817 8.51781 1.395 8.48537 1.36118 8.45354C1.39386 8.28946 1.3846 7.99576 1.6297 8.04908C1.64495 7.50588 1.4614 6.98003 1.52294 6.43622C1.55562 6.47532 1.5877 6.51509 1.62044 6.55481L1.60301 6.37076C1.7054 6.31482 1.81434 6.27175 1.92871 6.24993C1.74244 6.22481 1.56107 6.17614 1.3785 6.13245C1.33438 6.01324 1.359 5.88631 1.37523 5.76435C1.44604 5.35262 1.47218 4.9353 1.48689 4.51797C1.69331 4.44424 1.92098 4.50684 2.1225 4.40832C2.05998 3.88639 2.04418 3.34157 2.2249 2.84083C2.37032 2.4145 2.64815 2.00333 3.08165 1.85346C3.28644 1.80317 3.54406 1.74661 3.68883 1.9508C3.72859 1.91332 3.76835 1.87472 3.80811 1.83724C3.47756 1.16291 3.87244 0.177778 4.62254 0.0390425ZM7.2679 2.96368C7.18075 3.01851 7.09524 3.08122 7.18685 3.18079C7.14219 3.20815 7.09742 3.2345 7.05221 3.25961C6.9814 3.31556 6.82237 3.34739 6.84088 3.4605C6.92043 3.59169 6.98896 3.7296 7.04573 3.87274C7.21942 3.72622 7.35776 3.5292 7.45145 3.32065C7.47105 3.29995 7.51087 3.25855 7.53042 3.23836C7.52171 3.1427 7.50101 3.04922 7.46452 2.96089C7.39916 2.96206 7.33325 2.96312 7.2679 2.96368Z" fill="#FDCA76"/>
</svg>
