<svg width="12" height="17" viewBox="0 0 12 17" fill="none" xmlns="http://www.w3.org/2000/svg">
<path d="M4.62254 0.841289C4.87091 0.7529 5.1422 0.826688 5.36981 0.941984C5.52885 1.04715 5.68789 1.15344 5.866 1.22225C5.87961 1.24855 5.90794 1.30057 5.92155 1.3263C5.91447 1.34365 5.90086 1.37945 5.89378 1.39679C6.02068 1.69328 6.10184 2.0446 5.97874 2.35614C5.89487 2.46131 5.7489 2.47759 5.6307 2.51831C5.63016 2.6688 5.65358 2.81766 5.66611 2.96702C5.91883 3.00898 6.13277 2.82829 6.38277 2.84619C6.41654 2.70242 6.44323 2.5563 6.488 2.41538C6.53974 2.5088 6.54187 2.61627 6.54246 2.72144C6.60782 2.74046 6.67427 2.7578 6.74116 2.77453C6.74181 2.80032 6.7423 2.85178 6.7423 2.87752C7.83815 2.88423 8.93341 2.87243 10.0293 2.88367C10.0266 2.92216 10.0213 2.99941 10.0191 3.03807C10.0474 3.03807 10.1051 3.03863 10.1339 3.03863C10.1328 2.83394 10.1339 2.62857 10.1333 2.42388C10.1611 2.42271 10.2156 2.42103 10.2428 2.42047C10.2435 2.58158 10.244 2.7427 10.2456 2.90386C10.2695 2.93407 10.3174 2.99443 10.3415 3.02464C10.3595 3.00277 10.3954 2.95981 10.4133 2.93793C10.4966 3.01799 10.4492 3.12763 10.4455 3.22598C10.7522 3.22257 11.062 3.24382 11.3677 3.21809C11.3905 3.20075 11.4363 3.16662 11.4592 3.14934C11.5011 3.16606 11.5436 3.1829 11.5855 3.20024C11.7233 3.19678 11.8617 3.19633 12 3.19577C11.9972 3.26905 11.995 3.34228 11.9923 3.41562C11.8142 3.41277 11.6355 3.40891 11.4601 3.44018C11.3468 3.3401 11.1949 3.37187 11.0582 3.36807C10.8479 3.37814 10.6311 3.3401 10.4275 3.40885C10.3064 3.44354 10.1736 3.4352 10.0669 3.36466C10.0412 3.43011 10.0805 3.57668 9.97311 3.57103C9.55045 3.57668 9.12834 3.56717 8.70623 3.57388C8.6485 3.60521 8.59022 3.63486 8.53259 3.66389C8.47159 3.85074 8.29676 3.97543 8.14796 4.08955C8.12944 4.37653 8.24 4.64449 8.28303 4.92303C8.1997 4.94759 8.11582 4.97287 8.03358 5.00084C7.91539 5.28727 7.98783 5.67824 7.71441 5.87807C7.50471 6.00332 7.36593 6.27576 7.08315 6.23274C7.22694 6.35581 7.04393 6.31721 7.06299 6.21875C6.55156 6.17232 6.12073 5.86408 5.67629 5.62918C5.6556 5.75779 5.62297 5.88428 5.58915 6.01015C5.75799 6.04315 5.89743 6.1707 5.92738 6.3486C5.9813 6.73633 5.87346 7.12126 5.87509 7.51C5.88708 7.73825 5.79176 7.94741 5.67303 8.1337C5.569 8.25453 5.40505 8.13029 5.28033 8.11244C5.25195 8.16894 5.22423 8.2255 5.19699 8.28251C5.2324 8.43461 5.24765 8.59293 5.29721 8.74173C5.57553 9.0578 5.8288 9.40022 6.02324 9.77783C6.2234 10.2055 6.40176 10.6435 6.55761 11.0902C6.5728 11.1769 6.65232 11.2081 6.72215 11.2395C6.73141 11.329 6.74067 11.4184 6.74938 11.5091C6.77661 11.55 6.80439 11.5907 6.83271 11.6321C6.8496 12.1838 6.78369 12.7331 6.70025 13.2774C6.64862 13.523 6.78849 13.763 6.73184 14.0102C6.73838 14.1368 6.65352 14.2324 6.61365 14.3443C6.60603 14.6056 6.5935 14.8701 6.62139 15.1309C6.64088 15.3222 6.7984 15.4452 6.90515 15.5879C7.02171 15.715 7.1192 15.8856 7.29567 15.9308C7.46179 15.9817 7.62029 16.0556 7.76669 16.1524C7.81136 16.2659 7.80319 16.3863 7.78194 16.5042C7.46277 16.5646 7.13707 16.5345 6.81463 16.5396C6.56616 16.5529 6.34459 16.4159 6.1032 16.3873C5.86954 16.3813 5.58468 16.5004 5.40505 16.2855C5.4812 15.9875 5.4873 15.6674 5.62662 15.3893C5.67128 15.0744 5.58642 14.7549 5.60429 14.4372C5.57771 14.4142 5.52423 14.3684 5.49754 14.3453C5.51671 14.1378 5.41698 13.9532 5.3837 13.7546C5.36202 13.4647 5.33632 13.175 5.30364 12.8864C5.27804 12.7459 5.34884 12.6173 5.44525 12.5239C5.45396 12.3617 5.47531 12.2011 5.49046 12.04C5.46704 11.9353 5.38588 11.8576 5.33359 11.7681C5.15876 11.8438 4.92292 11.8079 4.81889 11.6321C4.57221 11.2551 4.32597 10.8781 4.07652 10.5032C3.97848 10.4966 3.875 10.5071 3.7835 10.4669C3.67794 10.3556 3.62282 10.2074 3.55539 10.072C3.45893 10.1833 3.46596 10.3539 3.35169 10.4552C3.10986 10.6935 3.04559 11.0437 2.91923 11.3491C2.82239 11.5471 2.87686 11.786 2.7689 11.979C2.71117 12.083 2.56629 12.1037 2.52817 12.2224C2.47806 12.3504 2.41923 12.4831 2.30213 12.5609C2.17523 12.6464 2.14151 12.8088 2.08492 12.9429C2.03318 13.0666 2.10998 13.1963 2.092 13.3234C2.01139 13.7268 1.7614 14.064 1.65628 14.459C1.60835 14.6369 1.53966 14.8372 1.33814 14.8752C1.10884 15.2959 0.982532 15.8106 1.11216 16.2843C1.19168 16.4331 1.18733 16.6003 1.16282 16.7642C0.798493 16.7934 0.424802 16.8437 0.0670154 16.7391C-0.016862 16.5684 -0.00487952 16.3676 0.0125496 16.1832C0.123061 15.698 0.26963 15.2215 0.359444 14.7314C0.247244 14.6291 0.273442 14.4725 0.275566 14.3354C0.271808 14.0797 0.441141 13.875 0.558787 13.6652C0.602959 13.4498 0.582263 13.2184 0.690596 13.0207C0.8181 12.7735 0.925888 12.5061 1.12256 12.3063C1.16009 12.1301 1.28656 11.997 1.33765 11.8274C1.39212 11.6774 1.2968 11.5253 1.31597 11.3721C1.36276 10.9071 1.44506 10.4467 1.51641 9.98521C1.38139 9.86941 1.4249 9.68541 1.38188 9.52928C1.40312 9.46775 1.42981 9.40906 1.46194 9.35194C1.42817 9.32006 1.395 9.28761 1.36118 9.25578C1.39386 9.0917 1.3846 8.79801 1.6297 8.85132C1.64495 8.30813 1.4614 7.78227 1.52294 7.23846C1.55562 7.27757 1.5877 7.31734 1.62044 7.35706L1.60301 7.17301C1.7054 7.11707 1.81434 7.07399 1.92871 7.05218C1.74244 7.02706 1.56107 6.97839 1.3785 6.9347C1.33438 6.81549 1.359 6.68855 1.37523 6.5666C1.44604 6.15487 1.47218 5.73754 1.48689 5.32022C1.69331 5.24648 1.92098 5.30908 2.1225 5.21057C2.05998 4.68863 2.04418 4.14382 2.2249 3.64308C2.37032 3.21675 2.64815 2.80557 3.08165 2.65571C3.28644 2.60541 3.54406 2.54886 3.68883 2.75305C3.72859 2.71556 3.76835 2.67696 3.80811 2.63948C3.47756 1.96516 3.87244 0.980024 4.62254 0.841289ZM7.2679 3.76593C7.18075 3.82075 7.09524 3.88346 7.18685 3.98304C7.14219 4.01039 7.09742 4.03674 7.05221 4.06186C6.9814 4.1178 6.82237 4.14963 6.84088 4.26275C6.92043 4.39394 6.98896 4.53185 7.04573 4.67498C7.21942 4.52847 7.35776 4.33144 7.45145 4.12289C7.47105 4.10219 7.51087 4.0608 7.53042 4.0406C7.52171 3.94494 7.50101 3.85146 7.46452 3.76313C7.39916 3.76431 7.33325 3.76537 7.2679 3.76593Z" fill="#8A89A4"/>
</svg>
