<svg width="14" height="15" viewBox="0 0 14 15" fill="none" xmlns="http://www.w3.org/2000/svg">
<path d="M14 4.05349C13.9452 1.44787 13.9418 2.01109 13.9952 1.19899C13.9983 1.15085 13.9622 1.10925 13.9143 1.10596C10.0551 0.840563 9.90889 0.809963 9.60984 0.809963C4.34514 0.809539 7.1091 0.723044 0.0818602 1.13981C0.0341116 1.14268 -0.00237728 1.18371 0.000120993 1.23168C0.453011 9.96753 0.436474 8.54244 0.20512 14.3646C0.203466 14.4065 0.23151 14.4436 0.272045 14.4532C0.797984 14.5782 0.704774 14.529 1.93163 14.5299C1.93364 14.5305 4.23078 14.2783 4.23286 14.2781C4.2437 14.2799 7.40942 14.8022 7.42044 14.8022C7.42287 14.8022 7.42526 14.8021 7.42769 14.8019C11.1378 14.4893 10.0744 14.5649 12.468 14.4315L13.8734 14.7173C13.9281 14.7283 13.9783 14.6859 13.9777 14.6306C13.9472 11.7858 14 4.05349 14 4.05349ZM8.29483 3.84612C8.30528 3.84357 8.32024 3.83989 8.33889 3.8349L9.33925 3.60825C9.85168 3.47916 9.9274 3.44771 10.3659 3.24044C10.5684 3.31105 11.1235 3.61989 11.2642 3.79719C11.3572 3.91457 11.3511 3.94068 11.3219 4.06637C11.3162 4.0905 11.3098 4.11827 11.303 4.15106C11.3026 4.15322 11.3022 4.15545 11.3019 4.15764L11.0819 5.88838C10.8643 5.89645 10.8461 5.87968 10.7859 5.82396C10.761 5.8009 10.7301 5.77224 10.6756 5.73549C10.3446 5.51212 9.26131 4.70629 8.91926 4.42891L8.24684 3.88574L8.25226 3.88047C8.25954 3.87318 8.26601 3.86338 8.27031 3.85401C8.27369 3.85135 8.28699 3.84806 8.29483 3.84612ZM9.85375 12.5603C9.83408 12.5405 1.44746 3.60188 1.44131 3.58954L2.174 3.02444L12.413 9.84074C12.3284 10.0845 12.2946 10.3643 12.2438 10.5966C12.0639 11.4171 11.8326 11.7761 11.4708 12.5556C10.9531 12.5763 9.8894 12.5723 9.85375 12.5603ZM2.22467 10.142C2.31894 9.91419 2.44853 9.54776 2.55747 9.36214C3.09301 9.6986 5.18509 11.8119 5.36704 12.0973C5.26626 12.1349 4.83339 12.1996 4.11421 12.4884C3.65854 12.6712 3.22827 12.8445 2.81268 12.7027C2.77123 12.6887 2.66074 12.5944 2.49691 12.4522C2.19768 12.1925 1.92671 12.0054 1.76914 11.9119C1.50038 11.7524 1.54226 11.7861 2.22467 10.142Z" fill="#8A89A4"/>
</svg>
