<svg width="14" height="14" viewBox="0 0 14 14" fill="none" xmlns="http://www.w3.org/2000/svg">
<path d="M14 3.25125C13.9452 0.645619 13.9418 1.20884 13.9952 0.396748C13.9983 0.348601 13.9622 0.306999 13.9143 0.303709C10.0551 0.0383173 9.90889 0.00771698 9.60984 0.00771698C4.34514 0.00729247 7.1091 -0.0792022 0.0818602 0.337564C0.0341116 0.340429 -0.00237728 0.381466 0.000120993 0.429436C0.453011 9.16529 0.436474 7.7402 0.20512 13.5624C0.203466 13.6042 0.23151 13.6413 0.272045 13.6509C0.797984 13.776 0.704774 13.7268 1.93164 13.7276C1.93364 13.7282 4.23078 13.476 4.23286 13.4758C4.2437 13.4776 7.40942 14 7.42044 14C7.42287 14 7.42526 13.9999 7.42769 13.9997C11.1378 13.6871 10.0744 13.7626 12.468 13.6293L13.8734 13.9151C13.9281 13.9261 13.9783 13.8836 13.9777 13.8284C13.9472 10.9835 14 3.25125 14 3.25125ZM8.29483 3.04387C8.30528 3.04133 8.32024 3.03765 8.33889 3.03266L9.33925 2.806C9.85168 2.67692 9.9274 2.64547 10.3659 2.4382C10.5684 2.50881 11.1235 2.81764 11.2642 2.99495C11.3572 3.11233 11.3511 3.13843 11.3219 3.26412C11.3162 3.28825 11.3098 3.31602 11.303 3.34881C11.3026 3.35097 11.3022 3.3532 11.3019 3.35539L11.0819 5.08614C10.8643 5.0942 10.8461 5.07743 10.7859 5.02172C10.761 4.99865 10.7301 4.97 10.6756 4.93324C10.3446 4.70988 9.26131 3.90404 8.91926 3.62666L8.24684 3.08349L8.25226 3.07822C8.25954 3.07094 8.26602 3.06114 8.27031 3.05176C8.27369 3.04911 8.28699 3.04582 8.29483 3.04387ZM9.85375 11.7581C9.83408 11.7383 1.44746 2.79964 1.44131 2.78729L2.174 2.22219L12.413 9.0385C12.3284 9.28228 12.2946 9.56203 12.2438 9.79435C12.0639 10.6148 11.8326 10.9738 11.4708 11.7534C10.9531 11.7741 9.8894 11.7701 9.85375 11.7581ZM2.22467 9.33973C2.31894 9.11194 2.44853 8.74551 2.55747 8.55989C3.09301 8.89636 5.18509 11.0097 5.36704 11.295C5.26626 11.3326 4.83339 11.3973 4.11421 11.6862C3.65854 11.8689 3.22827 12.0423 2.81268 11.9005C2.77123 11.8865 2.66074 11.7922 2.49691 11.65C2.19768 11.3903 1.92671 11.2032 1.76914 11.1097C1.50038 10.9502 1.54226 10.9838 2.22467 9.33973Z" fill="#8A89A4"/>
</svg>
