<svg width="25" height="24" viewBox="0 0 25 24" fill="none" xmlns="http://www.w3.org/2000/svg">
<path d="M3.05957 13.24V11.51C3.05957 9.44001 4.74956 7.75 6.81956 7.75H18.2996C20.3696 7.75 22.0596 9.44001 22.0596 11.51V12.95H20.0396C19.4796 12.95 18.9696 13.17 18.5996 13.55C18.1796 13.96 17.9396 14.55 17.9996 15.18C18.0896 16.26 19.0796 17.05 20.1596 17.05H22.0596V18.24C22.0596 20.31 20.3696 22 18.2996 22H12.8196" stroke="#EBEFFD" stroke-width="1.5" stroke-linecap="round" stroke-linejoin="round"/>
<path d="M3.05957 12.4103V7.84035C3.05957 6.65035 3.78957 5.5903 4.89957 5.1703L12.8396 2.1703C14.0796 1.7003 15.4096 2.62033 15.4096 3.95033V7.75032" stroke="#EBEFFD" stroke-width="1.5" stroke-linecap="round" stroke-linejoin="round"/>
<path d="M23.1184 13.9702V16.0302C23.1184 16.5802 22.6784 17.0302 22.1184 17.0502H20.1584C19.0784 17.0502 18.0884 16.2602 17.9984 15.1802C17.9384 14.5502 18.1784 13.9602 18.5984 13.5502C18.9684 13.1702 19.4784 12.9502 20.0384 12.9502H22.1184C22.6784 12.9702 23.1184 13.4202 23.1184 13.9702Z" stroke="#EBEFFD" stroke-width="1.5" stroke-linecap="round" stroke-linejoin="round"/>
<path d="M7.55957 12H14.5596" stroke="#EBEFFD" stroke-width="1.5" stroke-linecap="round" stroke-linejoin="round"/>
<path d="M3.55957 16.5H8.89957C9.53957 16.5 10.0596 17.02 10.0596 17.66V18.94" stroke="#EBEFFD" stroke-width="1.5" stroke-miterlimit="10" stroke-linecap="round" stroke-linejoin="round"/>
<path d="M4.77957 15.2803L3.55957 16.5002L4.77957 17.7202" stroke="#EBEFFD" stroke-width="1.5" stroke-miterlimit="10" stroke-linecap="round" stroke-linejoin="round"/>
<path d="M10.0596 21.7798H4.71957C4.07957 21.7798 3.55957 21.2598 3.55957 20.6198V19.3398" stroke="#EBEFFD" stroke-width="1.5" stroke-miterlimit="10" stroke-linecap="round" stroke-linejoin="round"/>
<path d="M8.84082 23.0005L10.0608 21.7806L8.84082 20.5605" stroke="#EBEFFD" stroke-width="1.5" stroke-miterlimit="10" stroke-linecap="round" stroke-linejoin="round"/>
</svg>
