<svg width="206" height="206" viewBox="0 0 206 206" fill="none" xmlns="http://www.w3.org/2000/svg">
<circle cx="102.437" cy="102.436" r="49.5301" fill="#F58A8A"/>
<ellipse opacity="0.05" cx="103" cy="102.436" rx="73.7322" ry="74.2951" fill="#F58A8A"/>
<circle opacity="0.06" cx="103" cy="103" r="103" fill="#F58A8A"/>
<path d="M104.735 103.255L115.326 92.6645C116.015 91.9756 116.015 90.8618 115.326 90.1729C114.637 89.484 113.523 89.484 112.834 90.1729L102.243 100.764L91.653 90.1729C90.9638 89.484 89.8503 89.484 89.1614 90.1729C88.4722 90.8618 88.4722 91.9756 89.1614 92.6645L99.7518 103.255L89.1614 113.846C88.4722 114.535 88.4722 115.649 89.1614 116.337C89.5047 116.681 89.9561 116.854 90.4072 116.854C90.8583 116.854 91.3094 116.681 91.653 116.337L102.243 105.747L112.834 116.337C113.178 116.681 113.629 116.854 114.08 116.854C114.531 116.854 114.982 116.681 115.326 116.337C116.015 115.649 116.015 114.535 115.326 113.846L104.735 103.255Z" fill="black"/>
</svg>
