<svg width="18" height="18" viewBox="0 0 18 18" fill="none" xmlns="http://www.w3.org/2000/svg">
<g clip-path="url(#clip0_709_4033)">
<path d="M9.40797 7.15498V8.05998C9.40797 8.34741 9.46538 8.58856 9.57867 8.77643C9.73495 9.03571 9.99149 9.1843 10.2828 9.1843C10.5681 9.1843 10.8517 9.04532 11.1255 8.77148L14.1147 5.78238C14.7709 5.12608 14.7709 4.05821 14.1147 3.40192L11.1255 0.412811C10.8517 0.13884 10.5681 0 10.2828 0C9.84729 0 9.40797 0.347717 9.40797 1.12431V1.94623C5.16423 2.19685 1.65108 5.45361 1.12895 9.71754C1.0997 9.95567 1.23511 10.1836 1.45827 10.2719C1.52144 10.2969 1.58722 10.309 1.65218 10.309C1.8167 10.309 1.97627 10.232 2.0779 10.0931C3.47838 8.1796 5.72701 7.03716 8.09291 7.03716C8.53127 7.03716 8.97209 7.07671 9.40797 7.15498Z" fill="#EBEFFD"/>
<path d="M16.5323 7.72802C16.3091 7.63958 16.0545 7.71319 15.9126 7.90696C14.5123 9.82036 12.2637 10.9628 9.89777 10.9628C9.45942 10.9628 9.01859 10.9233 8.58271 10.845V9.93998C8.58271 9.16338 8.14326 8.81566 7.70792 8.81566C7.42255 8.81566 7.13897 8.95464 6.865 9.22861L3.87589 12.2176C3.21973 12.8739 3.21973 13.9417 3.87603 14.5982L6.865 17.5872C7.13897 17.8611 7.42255 18 7.70792 18C8.14326 18 8.58271 17.6522 8.58271 16.8756V16.0537C12.8266 15.8031 16.3396 12.5463 16.8617 8.28255C16.891 8.04429 16.7556 7.81632 16.5323 7.72802Z" fill="#EBEFFD"/>
</g>
<defs>
<clipPath id="clip0_709_4033">
<rect width="18" height="18" fill="white"/>
</clipPath>
</defs>
</svg>
