<svg width="97" height="97" viewBox="0 0 97 97" fill="none" xmlns="http://www.w3.org/2000/svg">
<g clip-path="url(#clip0_1094_4294)">
<path d="M50.6985 38.5574V43.4343C50.6985 44.9833 51.0079 46.2828 51.6184 47.2952C52.4606 48.6924 53.843 49.4931 55.4127 49.4931C56.9505 49.4931 58.4787 48.7442 59.9543 47.2686L76.0623 31.1606C79.599 27.6239 79.599 21.8693 76.0623 18.3326L59.9543 2.22459C58.4787 0.748192 56.9505 0 55.4127 0C53.066 0 50.6985 1.87381 50.6985 6.0588V10.488C27.8295 11.8386 8.89748 29.3889 6.0838 52.3668C5.92617 53.65 6.65586 54.8785 7.85844 55.3544C8.19887 55.489 8.55335 55.5542 8.9034 55.5542C9.78998 55.5542 10.6499 55.139 11.1976 54.3908C18.7446 44.0789 30.8622 37.9224 43.6118 37.9224C45.974 37.9224 48.3496 38.1356 50.6985 38.5574V38.5574Z" fill="#FDCA76"/>
<path d="M89.0906 41.6452C87.888 41.1686 86.516 41.5653 85.7515 42.6095C78.2052 52.9207 66.0876 59.0771 53.338 59.0771C50.9757 59.0771 48.6002 58.864 46.2513 58.4422V53.5652C46.2513 49.3803 43.8831 47.5064 41.5371 47.5064C39.9993 47.5064 38.4711 48.2554 36.9947 49.7318L20.8867 65.839C17.3508 69.3757 17.3508 75.1303 20.8875 78.6678L36.9947 94.775C38.4711 96.2514 39.9993 96.9996 41.5371 96.9996C43.8831 96.9996 46.2513 95.1258 46.2513 90.9408V86.5116C69.1211 85.161 88.0523 67.6107 90.866 44.6336C91.0236 43.3496 90.2939 42.1211 89.0906 41.6452V41.6452Z" fill="#FDCA76"/>
</g>
<defs>
<clipPath id="clip0_1094_4294">
<rect width="97" height="97" fill="white"/>
</clipPath>
</defs>
</svg>
