<svg width="35" height="34" viewBox="0 0 35 34" fill="none" xmlns="http://www.w3.org/2000/svg">
<path d="M18.7643 4.13668L27.1226 7.84835C29.531 8.91085 29.531 10.6675 27.1226 11.73L18.7643 15.4417C17.8151 15.8667 16.2568 15.8667 15.3076 15.4417L6.94932 11.73C4.54098 10.6675 4.54098 8.91085 6.94932 7.84835L15.3076 4.13668C16.2568 3.71168 17.8151 3.71168 18.7643 4.13668Z" stroke="#FDCA76" stroke-width="2.125" stroke-linecap="round" stroke-linejoin="round"/>
<path d="M4.5835 15.5833C4.5835 16.7733 5.476 18.1475 6.56683 18.6292L16.186 22.9075C16.9227 23.2333 17.7585 23.2333 18.481 22.9075L28.1002 18.6292C29.191 18.1475 30.0835 16.7733 30.0835 15.5833" stroke="#FDCA76" stroke-width="2.125" stroke-linecap="round" stroke-linejoin="round"/>
<path d="M4.5835 22.6667C4.5835 23.9842 5.36266 25.1742 6.56683 25.7125L16.186 29.9908C16.9227 30.3167 17.7585 30.3167 18.481 29.9908L28.1002 25.7125C29.3043 25.1742 30.0835 23.9842 30.0835 22.6667" stroke="#FDCA76" stroke-width="2.125" stroke-linecap="round" stroke-linejoin="round"/>
</svg>
