<svg width="18.000000" height="24.000000" viewBox="0 0 18 24" fill="none" xmlns="http://www.w3.org/2000/svg" xmlns:xlink="http://www.w3.org/1999/xlink">
	<desc>
			Created with Pixso.
	</desc>
	<defs/>
	<path id="Vector" d="M16.5 10.5L15 10.5L15 6C15 2.7002 12.3008 0 9 0C5.69922 0 3 2.7002 3 6L3 10.5L1.5 10.5C0.75 10.5 0 11.25 0 12L0 22.5C0 23.25 0.75 24 1.5 24L16.5 24C17.25 24 18 23.25 18 22.5L18 12C18 11.25 17.25 10.5 16.5 10.5ZM10.5 21L7.5 21L8.09961 17.7002C7.34961 17.4004 6.75 16.5 6.75 15.75C6.75 14.5498 7.80078 13.5 9 13.5C10.1992 13.5 11.25 14.5498 11.25 15.75C11.25 16.6504 10.8008 17.4004 9.90039 17.7002L10.5 21ZM12 10.5L6 10.5L6 6C6 4.34961 7.34961 3 9 3C10.6504 3 12 4.34961 12 6L12 10.5Z" fill="#FDCA76" fill-opacity="1.000000" fill-rule="nonzero"/>
</svg>
