<svg width="146.000000" height="23.000000" viewBox="0 0 146 23" fill="none" xmlns="http://www.w3.org/2000/svg" xmlns:xlink="http://www.w3.org/1999/xlink">
	<desc>
			Created with Pixso.
	</desc>
	<defs/>
	<path id="Vector" d="M18.83 5.36L18.23 7.91L5.38 7.91C4.98 7.91 4.72 8.17 4.59 8.69L3.09 15.29C2.96 15.81 3.1 16.07 3.52 16.07L16.36 16.07L15.79 18.62L1.74 18.62C1.4 18.62 1.1 18.56 0.86 18.43C0.62 18.3 0.43 18.12 0.28 17.89C0.14 17.66 0.05 17.39 0.01 17.09C-0.02 16.78 0.01 16.47 0.09 16.13L1.98 7.85C2.05 7.52 2.17 7.2 2.34 6.9C2.53 6.59 2.74 6.33 2.98 6.12C3.22 5.89 3.5 5.71 3.8 5.58C4.11 5.43 4.44 5.36 4.78 5.36L18.83 5.36Z" fill="#FFFFFF" fill-opacity="1.000000" fill-rule="nonzero"/>
	<path id="Vector" d="M17.27 18.6L17.84 16.05L30.97 16.05C31.38 16.05 31.65 15.79 31.78 15.27L32.27 13.11C32.37 12.59 32.22 12.33 31.82 12.33L20.9 12.33C20.56 12.33 20.27 12.26 20.03 12.13C19.78 12 19.59 11.82 19.45 11.59C19.31 11.36 19.21 11.09 19.17 10.79C19.14 10.49 19.17 10.17 19.26 9.84L19.71 7.83C19.78 7.5 19.9 7.18 20.07 6.88C20.26 6.57 20.47 6.31 20.71 6.1C20.95 5.87 21.23 5.69 21.53 5.56C21.84 5.41 22.17 5.34 22.51 5.34L36.86 5.34L36.26 7.89L23.11 7.89C22.71 7.89 22.45 8.15 22.32 8.67L22.25 9C22.13 9.51 22.27 9.77 22.68 9.77L33.6 9.77C33.94 9.77 34.24 9.85 34.48 9.99C34.72 10.12 34.91 10.3 35.06 10.53C35.2 10.75 35.29 11.01 35.31 11.31C35.36 11.61 35.34 11.93 35.27 12.26L34.39 16.11C34.31 16.44 34.18 16.76 34.01 17.06C33.84 17.37 33.62 17.63 33.37 17.86C33.12 18.1 32.85 18.28 32.55 18.41C32.25 18.54 31.93 18.6 31.59 18.6L17.27 18.6Z" fill="#FFFFFF" fill-opacity="1.000000" fill-rule="nonzero"/>
	<path id="Vector" d="M46.56 10.99C46.56 6.21 50.39 2.34 55.12 2.34C57.5 2.34 59.65 3.32 61.2 4.9L66.85 10.81C66.75 4.35 61.54 -0.86 55.12 -0.86C50.73 -0.86 46.9 1.58 44.89 5.19L40.82 5.19L46.56 10.99Z" fill="#7000FF" fill-opacity="1.000000" fill-rule="nonzero"/>
	<path id="Vector" d="M55.12 22.85C59.51 22.85 63.34 20.41 65.35 16.8L69.42 16.8L63.68 10.99C63.68 15.78 59.85 19.65 55.12 19.65C52.74 19.65 50.59 18.67 49.04 17.09L43.39 11.18C43.49 17.64 48.7 22.85 55.12 22.85Z" fill="#7000FF" fill-opacity="1.000000" fill-rule="nonzero"/>
	<path id="Vector" d="M59.14 13.53C59.33 13.22 59.34 13.03 58.6 12.56C58.36 12.41 57.84 12.01 57.3 11.58C56.61 11.04 55.55 10.21 55.36 10.18C55.26 10.18 55.15 10.23 54.95 10.33C54.77 10.42 54.53 10.54 54.16 10.69C53.28 11.05 52.67 11.01 52.26 10.59C52.1 10.43 51.95 10.23 51.95 9.96C51.96 9.66 52.15 9.34 52.59 8.91C52.86 8.64 53.38 8.25 53.74 7.99C53.26 8.02 52.47 8.1 51.57 8.29L50.35 11.72L50.41 11.78C50.58 11.66 50.94 11.45 51.33 11.45C51.61 11.45 52.01 11.56 52.32 12.08C52.35 12.08 52.38 12.07 52.41 12.07C52.65 12.07 53.22 12.14 53.51 12.76C53.75 12.77 54.38 12.86 54.64 13.58C54.84 13.62 55.31 13.75 55.51 14.27C55.7 14.77 55.58 15.24 55.18 15.6C55.31 15.71 55.56 15.83 55.8 15.75C56 15.68 56.07 15.54 56.09 15.44C56.13 15.3 56.09 15.13 55.99 15.02L55.97 14.99C55.92 14.94 55.92 14.85 55.98 14.8C56.03 14.74 56.12 14.74 56.17 14.8L56.18 14.8C56.18 14.8 56.2 14.83 56.2 14.83C56.25 14.87 56.52 15.14 56.79 15.14C56.9 15.14 57 15.1 57.09 15.01C57.41 14.7 57.18 14.41 57.15 14.38C57.1 14.32 57.1 14.23 57.16 14.18C57.22 14.12 57.31 14.13 57.36 14.19C57.36 14.19 57.61 14.46 57.88 14.46C57.96 14.46 58.03 14.44 58.1 14.4C58.44 14.19 58.27 13.75 58.26 13.73C58.24 13.67 58.26 13.61 58.3 13.57C58.35 13.53 58.42 13.52 58.47 13.56C58.47 13.56 58.67 13.69 58.87 13.69C58.99 13.69 59.08 13.64 59.14 13.53Z" fill="#7000FF" fill-opacity="1.000000" fill-rule="nonzero"/>
	<path id="Vector" d="M55.4 8.07C55.06 7.97 54.5 8.22 53.75 8.81C52.91 9.47 52.53 9.91 52.65 10.06C52.95 10.47 53.53 10.38 54.6 9.8C54.91 9.63 55.15 9.53 55.38 9.53C55.66 9.53 55.89 9.69 56.17 9.89C58.01 11.27 58.92 11.97 59.17 12.16L59.51 11.98L58.4 9.03C58 8.9 55.84 8.2 55.4 8.07Z" fill="#BA86FD" fill-opacity="1.000000" fill-rule="nonzero"/>
	<path id="Vector" d="M54.88 14.33C54.53 13.97 53.97 14.25 53.97 14.25C53.97 14.25 54.32 13.97 53.92 13.56C53.53 13.15 52.89 13.57 52.89 13.57C52.89 13.57 53.26 13.23 52.85 12.81C52.45 12.39 51.83 12.86 51.83 12.86C51.89 12.68 51.94 12.4 51.79 12.24C51.64 12.08 51.37 11.95 50.89 12.11C50.6 12.2 50.11 12.52 50.4 12.93C50.69 13.34 51.3 13.21 51.3 13.21C51.3 13.21 50.79 13.39 51.28 13.85C51.76 14.3 52.35 13.92 52.35 13.92C52.35 13.92 51.95 14.24 52.33 14.56C52.71 14.89 53.41 14.57 53.41 14.57C53.22 14.78 53.29 15.44 53.95 15.37C54.62 15.3 55.23 14.69 54.88 14.33Z" fill="#BA86FD" fill-opacity="1.000000" fill-rule="nonzero"/>
	<path id="Vector" d="M58.94 8.3L60.42 12.26L61.23 11.93L60.17 7.97L58.94 8.3Z" fill="#BA86FD" fill-opacity="1.000000" fill-rule="nonzero"/>
	<path id="Vector" d="M49.59 11.7L51.04 7.74L49.71 7.4L48.74 11.39L49.59 11.7Z" fill="#7000FF" fill-opacity="1.000000" fill-rule="nonzero"/>
	<path id="Vector" d="M76.31 18.6L76.89 16.05L90.01 16.05C90.43 16.05 90.7 15.79 90.83 15.27L91.32 13.11C91.42 12.59 91.27 12.33 90.87 12.33L79.95 12.33C79.61 12.33 79.31 12.26 79.07 12.13C78.83 12 78.64 11.82 78.49 11.59C78.35 11.36 78.26 11.09 78.22 10.79C78.19 10.49 78.22 10.17 78.3 9.84L78.75 7.83C78.82 7.5 78.94 7.18 79.12 6.88C79.3 6.57 79.51 6.31 79.76 6.1C80 5.87 80.27 5.69 80.57 5.56C80.88 5.41 81.21 5.34 81.56 5.34L95.9 5.34L95.3 7.89L82.16 7.89C81.76 7.89 81.49 8.15 81.36 8.67L81.3 9C81.17 9.51 81.31 9.77 81.73 9.77L92.65 9.77C92.99 9.77 93.28 9.85 93.52 9.99C93.77 10.12 93.96 10.3 94.1 10.53C94.24 10.75 94.33 11.01 94.36 11.31C94.4 11.61 94.39 11.93 94.32 12.26L93.44 16.11C93.35 16.44 93.22 16.76 93.05 17.06C92.88 17.37 92.67 17.63 92.41 17.86C92.17 18.1 91.9 18.28 91.6 18.41C91.3 18.54 90.98 18.6 90.63 18.6L76.31 18.6Z" fill="#FFFFFF" fill-opacity="1.000000" fill-rule="nonzero"/>
	<path id="Vector" d="M94.02 18.58L97.06 5.32L113.63 5.32L113.03 7.87L99.26 7.87L98.84 9.75L110.06 9.75L109.48 12.31L98.26 12.31L97.4 16.03L111.17 16.03L110.59 18.58L94.02 18.58Z" fill="#FFFFFF" fill-opacity="1.000000" fill-rule="nonzero"/>
	<path id="Vector" d="M111.92 18.58L114.96 5.32L117.76 5.32L115.3 16.03L128.77 16.03L128.19 18.58L111.92 18.58Z" fill="#FFFFFF" fill-opacity="1.000000" fill-rule="nonzero"/>
	<path id="Vector" d="M129.14 18.58L132.19 5.32L134.99 5.32L132.53 16.03L146 16.03L145.42 18.58L129.14 18.58Z" fill="#FFFFFF" fill-opacity="1.000000" fill-rule="nonzero"/>
</svg>
