<svg width="146" height="23" viewBox="0 0 146 23" fill="none" xmlns="http://www.w3.org/2000/svg">
<g clip-path="url(#clip0_1291_300)">
<path d="M18.8304 5.36011L18.2304 7.91011H5.38043C4.98043 7.91011 4.72044 8.17011 4.59044 8.69011L3.09043 15.2901C2.96043 15.8101 3.10043 16.0701 3.52043 16.0701H16.3604L15.7904 18.6201H1.74043C1.40043 18.6201 1.10043 18.5601 0.860435 18.4301C0.620435 18.3001 0.430435 18.1201 0.280435 17.8901C0.140435 17.6601 0.0504348 17.3901 0.0104348 17.0901C-0.0195652 16.7801 0.0104348 16.4701 0.0904348 16.1301L1.98043 7.85011C2.05043 7.52011 2.17043 7.20011 2.34043 6.90011C2.53043 6.59011 2.74043 6.33011 2.98043 6.12011C3.22043 5.89011 3.50043 5.71011 3.80043 5.58011C4.11043 5.43011 4.44044 5.36011 4.78044 5.36011H18.8304Z" fill="white"/>
<path d="M17.2695 18.6001L17.8395 16.0501H30.9695C31.3795 16.0501 31.6495 15.7901 31.7795 15.2701L32.2695 13.1101C32.3695 12.5901 32.2195 12.3301 31.8195 12.3301H20.8995C20.5595 12.3301 20.2695 12.2601 20.0295 12.1301C19.7795 12.0001 19.5895 11.8201 19.4495 11.5901C19.3095 11.3601 19.2095 11.0901 19.1695 10.7901C19.1395 10.4901 19.1695 10.1701 19.2595 9.84009L19.7095 7.83009C19.7795 7.50009 19.8995 7.18009 20.0695 6.88009C20.2595 6.57009 20.4695 6.31009 20.7095 6.10009C20.9495 5.87009 21.2295 5.69009 21.5295 5.56009C21.8395 5.41009 22.1695 5.34009 22.5095 5.34009H36.8595L36.2595 7.89009H23.1095C22.7095 7.89009 22.4495 8.15009 22.3195 8.67009L22.2495 9.00009C22.1295 9.51009 22.2695 9.77009 22.6795 9.77009H33.5995C33.9395 9.77009 34.2395 9.85009 34.4795 9.99009C34.7195 10.1201 34.9095 10.3001 35.0595 10.5301C35.1995 10.7501 35.2895 11.0101 35.3095 11.3101C35.3595 11.6101 35.3395 11.9301 35.2695 12.2601L34.3895 16.1101C34.3095 16.4401 34.1795 16.7601 34.0095 17.0601C33.8395 17.3701 33.6195 17.6301 33.3695 17.8601C33.1195 18.1001 32.8495 18.2801 32.5495 18.4101C32.2495 18.5401 31.9295 18.6001 31.5895 18.6001H17.2695Z" fill="white"/>
<path d="M46.5603 10.9899C46.5603 6.20989 50.3903 2.33989 55.1203 2.33989C57.5003 2.33989 59.6503 3.31989 61.2003 4.89989L66.8503 10.8099C66.7503 4.34989 61.5403 -0.860107 55.1203 -0.860107C50.7303 -0.860107 46.9003 1.57989 44.8903 5.18989H40.8203L46.5603 10.9899Z" fill="#7000FF"/>
<path d="M55.1196 22.85C59.5096 22.85 63.3396 20.41 65.3496 16.8H69.4196L63.6796 10.99C63.6796 15.78 59.8496 19.65 55.1196 19.65C52.7396 19.65 50.5896 18.67 49.0396 17.09L43.3896 11.18C43.4896 17.64 48.6996 22.85 55.1196 22.85Z" fill="#7000FF"/>
<path d="M76.3096 18.6001L76.8896 16.0501H90.0096C90.4296 16.0501 90.6996 15.7901 90.8296 15.2701L91.3196 13.1101C91.4196 12.5901 91.2696 12.3301 90.8696 12.3301H79.9496C79.6096 12.3301 79.3096 12.2601 79.0696 12.1301C78.8296 12.0001 78.6396 11.8201 78.4896 11.5901C78.3496 11.3601 78.2596 11.0901 78.2196 10.7901C78.1896 10.4901 78.2196 10.1701 78.2996 9.84009L78.7496 7.83009C78.8196 7.50009 78.9396 7.18009 79.1196 6.88009C79.2996 6.57009 79.5096 6.31009 79.7596 6.10009C79.9996 5.87009 80.2696 5.69009 80.5696 5.56009C80.8796 5.41009 81.2096 5.34009 81.5596 5.34009H95.8996L95.2996 7.89009H82.1596C81.7596 7.89009 81.4896 8.15009 81.3596 8.67009L81.2996 9.00009C81.1696 9.51009 81.3096 9.77009 81.7296 9.77009H92.6496C92.9896 9.77009 93.2796 9.85009 93.5196 9.99009C93.7696 10.1201 93.9596 10.3001 94.0996 10.5301C94.2396 10.7501 94.3296 11.0101 94.3596 11.3101C94.3996 11.6101 94.3896 11.9301 94.3196 12.2601L93.4396 16.1101C93.3496 16.4401 93.2196 16.7601 93.0496 17.0601C92.8796 17.3701 92.6696 17.6301 92.4096 17.8601C92.1696 18.1001 91.8996 18.2801 91.5996 18.4101C91.2996 18.5401 90.9796 18.6001 90.6296 18.6001H76.3096Z" fill="white"/>
<path d="M94.0195 18.5801L97.0595 5.32007H113.63L113.03 7.87007H99.2595L98.8395 9.75007H110.06L109.48 12.3101H98.2595L97.3995 16.0301H111.17L110.59 18.5801H94.0195Z" fill="white"/>
<path d="M111.92 18.5801L114.96 5.32007H117.76L115.3 16.0301H128.77L128.19 18.5801H111.92Z" fill="white"/>
<path d="M129.14 18.5801L132.19 5.32007H134.99L132.53 16.0301H146L145.42 18.5801H129.14Z" fill="white"/>
<circle cx="55.0293" cy="10.99" r="5" fill="#BB87FF"/>
</g>
<defs>
<clipPath id="clip0_1291_300">
<rect width="146" height="23" fill="white"/>
</clipPath>
</defs>
</svg>
