<svg width="122" height="18" viewBox="0 0 122 18" fill="none" xmlns="http://www.w3.org/2000/svg">
<path d="M10.28 0.199999H13.592V17H11.072L3.872 6.728V17H0.56V0.199999H3.08L10.28 10.448V0.199999ZM24.6844 5H27.7804V17H24.6844V15.584C23.7564 16.752 22.4524 17.336 20.7724 17.336C19.1724 17.336 17.7964 16.728 16.6444 15.512C15.5084 14.28 14.9404 12.776 14.9404 11C14.9404 9.224 15.5084 7.728 16.6444 6.512C17.7964 5.28 19.1724 4.664 20.7724 4.664C22.4524 4.664 23.7564 5.248 24.6844 6.416V5ZM18.9724 13.448C19.5964 14.072 20.3884 14.384 21.3484 14.384C22.3084 14.384 23.1004 14.072 23.7244 13.448C24.3644 12.808 24.6844 11.992 24.6844 11C24.6844 10.008 24.3644 9.2 23.7244 8.576C23.1004 7.936 22.3084 7.616 21.3484 7.616C20.3884 7.616 19.5964 7.936 18.9724 8.576C18.3484 9.2 18.0364 10.008 18.0364 11C18.0364 11.992 18.3484 12.808 18.9724 13.448ZM42.7879 4.688C44.1479 4.688 45.2439 5.128 46.0759 6.008C46.9079 6.888 47.3239 8.072 47.3239 9.56V17H44.7319V9.728C44.7319 8.912 44.5239 8.272 44.1079 7.808C43.6919 7.344 43.1239 7.112 42.4039 7.112C41.5879 7.112 40.9479 7.384 40.4839 7.928C40.0199 8.456 39.7879 9.24 39.7879 10.28V17H37.1959V9.728C37.1959 8.896 36.9959 8.256 36.5959 7.808C36.2119 7.344 35.6599 7.112 34.9399 7.112C34.1399 7.112 33.4919 7.384 32.9959 7.928C32.5159 8.472 32.2759 9.256 32.2759 10.28V17H29.6839V5H32.2759V6.44C33.0439 5.272 34.1879 4.688 35.7079 4.688C37.2439 4.688 38.3799 5.32 39.1159 6.584C39.8999 5.32 41.1239 4.688 42.7879 4.688ZM60.6899 12.104H51.1379C51.3299 13 51.7619 13.696 52.4339 14.192C53.1219 14.688 53.9699 14.936 54.9779 14.936C56.3379 14.936 57.3699 14.44 58.0739 13.448L60.2099 14.696C59.0419 16.44 57.2899 17.312 54.9539 17.312C53.0179 17.312 51.4419 16.72 50.2259 15.536C49.0259 14.336 48.4259 12.824 48.4259 11C48.4259 9.224 49.0179 7.728 50.2019 6.512C51.3699 5.296 52.8899 4.688 54.7619 4.688C56.5059 4.688 57.9459 5.304 59.0819 6.536C60.2179 7.768 60.7859 9.264 60.7859 11.024C60.7859 11.344 60.7539 11.704 60.6899 12.104ZM51.1139 9.992H58.1699C57.9939 9.048 57.5939 8.32 56.9699 7.808C56.3619 7.296 55.6179 7.04 54.7379 7.04C53.7779 7.04 52.9779 7.304 52.3379 7.832C51.6979 8.36 51.2899 9.08 51.1139 9.992ZM63.8907 16.928C63.6827 17.136 63.4267 17.24 63.1227 17.24C62.8187 17.24 62.5627 17.136 62.3547 16.928C62.1467 16.72 62.0427 16.464 62.0427 16.16C62.0427 15.856 62.1467 15.6 62.3547 15.392C62.5627 15.184 62.8187 15.08 63.1227 15.08C63.4267 15.08 63.6827 15.184 63.8907 15.392C64.0987 15.6 64.2027 15.856 64.2027 16.16C64.2027 16.464 64.0987 16.72 63.8907 16.928Z" fill="white"/>
<path d="M79.0641 3V17H78.0041V4.56L72.8241 13.16H72.6441L67.4641 4.56V17H66.4041V3H67.7241L72.7241 11.28L77.7241 3H79.0641ZM90.1369 7H91.1569V17H90.1369V14.74C89.7102 15.5133 89.1235 16.12 88.3769 16.56C87.6302 17 86.7835 17.22 85.8369 17.22C84.4102 17.22 83.1902 16.72 82.1769 15.72C81.1635 14.7067 80.6569 13.4667 80.6569 12C80.6569 10.5333 81.1635 9.3 82.1769 8.3C83.1902 7.28667 84.4102 6.78 85.8369 6.78C86.7835 6.78 87.6302 7 88.3769 7.44C89.1235 7.88 89.7102 8.48667 90.1369 9.26V7ZM82.8969 15.02C83.7235 15.8467 84.7302 16.26 85.9169 16.26C87.1035 16.26 88.1035 15.8467 88.9169 15.02C89.7302 14.1933 90.1369 13.1867 90.1369 12C90.1369 10.8133 89.7302 9.80667 88.9169 8.98C88.1035 8.15333 87.1035 7.74 85.9169 7.74C84.7302 7.74 83.7235 8.15333 82.8969 8.98C82.0835 9.80667 81.6769 10.8133 81.6769 12C81.6769 13.1867 82.0835 14.1933 82.8969 15.02ZM94.2275 8.96C94.8275 7.56 95.9408 6.86 97.5675 6.86V7.82C96.6208 7.82 95.8275 8.12667 95.1875 8.74C94.5475 9.34 94.2275 10.24 94.2275 11.44V17H93.2275V7H94.2275V8.96ZM106.255 17H104.895L99.5947 12.08V17H98.5947V3H99.5947V11.54L104.655 7H106.055L100.675 11.8L106.255 17ZM110.767 6.78C112.233 6.78 113.42 7.3 114.327 8.34C115.247 9.38 115.707 10.6133 115.707 12.04C115.707 12.0933 115.7 12.1733 115.687 12.28C115.687 12.3867 115.687 12.4667 115.687 12.52H106.627C106.747 13.64 107.193 14.5467 107.967 15.24C108.753 15.92 109.72 16.26 110.867 16.26C111.667 16.26 112.367 16.0933 112.967 15.76C113.567 15.4267 114.02 14.9867 114.327 14.44L115.207 14.96C114.793 15.6533 114.207 16.2067 113.447 16.62C112.687 17.02 111.82 17.22 110.847 17.22C109.313 17.22 108.053 16.7333 107.067 15.76C106.08 14.7733 105.587 13.52 105.587 12C105.587 10.5067 106.067 9.26667 107.027 8.28C108 7.28 109.247 6.78 110.767 6.78ZM110.767 7.74C109.633 7.74 108.687 8.09333 107.927 8.8C107.167 9.50667 106.733 10.42 106.627 11.54H114.667C114.56 10.3533 114.133 9.42667 113.387 8.76C112.653 8.08 111.78 7.74 110.767 7.74ZM121.871 7.98H118.891V14.48C118.891 15.0533 118.998 15.4667 119.211 15.72C119.424 15.9733 119.751 16.12 120.191 16.16C120.631 16.1867 121.191 16.1667 121.871 16.1V17C120.524 17.2 119.518 17.1067 118.851 16.72C118.198 16.3333 117.871 15.5867 117.871 14.48V7.98H115.671V7H117.871V4.5L118.891 4.2V7H121.871V7.98Z" fill="#8A89A4" fill-opacity="0.6"/>
</svg>
