<svg width="345.000000" height="39.000000" viewBox="0 0 345 39" fill="none" xmlns="http://www.w3.org/2000/svg" xmlns:xlink="http://www.w3.org/1999/xlink">
	<desc>
			Created with Pixso.
	</desc>
	<defs/>
	<path id="Vector" d="M194.99 0L185.67 38.87L236.47 38.87L238.24 31.39L196.04 31.39L198.66 20.48L233.05 20.48L234.83 13L200.44 13L201.75 7.48L243.95 7.48L245.79 0L194.99 0ZM240.53 38.87L249.85 0L258.45 0L250.9 31.39L292.18 31.39L290.41 38.87L240.53 38.87ZM302.66 0L293.34 38.87L343.22 38.87L345 31.39L303.71 31.39L311.26 0L302.66 0ZM131.38 38.93L133.16 31.45L173.39 31.45C174.66 31.45 175.49 30.69 175.88 29.17L177.39 22.82C177.7 21.3 177.24 20.54 176.01 20.54L142.54 20.54C141.49 20.54 140.59 20.35 139.85 19.97C139.11 19.59 138.52 19.06 138.08 18.39C137.64 17.71 137.36 16.93 137.23 16.04C137.14 15.15 137.23 14.22 137.49 13.25L138.87 7.35C139.08 6.38 139.46 5.45 139.98 4.56C140.55 3.67 141.21 2.91 141.95 2.28C142.69 1.6 143.53 1.07 144.44 0.69C145.41 0.27 146.41 0.06 147.46 0.06L191.44 0.06L189.6 7.54L149.3 7.54Q148.68 7.54 148.2 7.8L148.2 7.8Q147.26 8.31 146.87 9.82L146.67 10.77C146.28 12.3 146.72 13.06 147.99 13.06L181.46 13.06C182.51 13.06 183.41 13.27 184.15 13.69C184.89 14.07 185.49 14.6 185.92 15.28C186.36 15.91 186.62 16.67 186.71 17.56C186.84 18.45 186.8 19.38 186.58 20.35L183.89 31.64C183.63 32.61 183.23 33.54 182.71 34.43C182.18 35.32 181.53 36.1 180.74 36.78C179.99 37.45 179.16 37.98 178.24 38.36C177.33 38.74 176.34 38.93 175.29 38.93L131.38 38.93ZM54.71 31.45L52.93 38.93L96.84 38.93C97.89 38.93 98.88 38.74 99.79 38.36C100.71 37.98 101.55 37.45 102.29 36.78C103.08 36.1 103.73 35.32 104.26 34.43C104.78 33.54 105.18 32.61 105.44 31.64L108.13 20.35C108.35 19.38 108.39 18.45 108.26 17.56C108.17 16.67 107.91 15.91 107.47 15.28C107.04 14.6 106.45 14.07 105.7 13.69C104.96 13.27 104.06 13.06 103.01 13.06L69.54 13.06Q68.75 13.06 68.39 12.66Q67.88 12.11 68.23 10.77L68.42 9.82C68.82 8.3 69.63 7.54 70.85 7.54L111.15 7.54L112.99 0.06L69.01 0.06C67.96 0.06 66.96 0.27 65.99 0.69Q65.43 0.92 64.91 1.23L64.91 1.23Q64.16 1.68 63.5 2.28C62.76 2.91 62.1 3.67 61.53 4.56C61.01 5.45 60.64 6.38 60.42 7.35L59.04 13.25C58.78 14.22 58.69 15.15 58.78 16.04C58.91 16.93 59.19 17.71 59.63 18.39C60.07 19.06 60.66 19.59 61.4 19.97C62.14 20.35 63.04 20.54 64.09 20.54L97.56 20.54C98.79 20.54 99.25 21.3 98.94 22.82L97.43 29.17C97.04 30.69 96.21 31.45 94.94 31.45L54.71 31.45ZM57.72 0.12L55.88 7.6L16.5 7.6Q15.88 7.6 15.4 7.86L15.4 7.86Q14.46 8.38 14.07 9.89L9.48 29.23Q9.13 30.56 9.64 31.12Q10 31.51 10.79 31.51L50.17 31.51L48.4 39L5.34 39C4.29 39 3.4 38.8 2.65 38.42Q1.94 38.06 1.42 37.52L1.42 37.52Q1.12 37.21 0.88 36.84C0.44 36.16 0.16 35.38 0.03 34.49C-0.06 33.6 0.03 32.67 0.29 31.7L6.07 7.41Q6.12 7.19 6.18 6.97L6.18 6.97Q6.51 5.75 7.18 4.62Q8.03 3.29 9.15 2.34Q9.81 1.74 10.56 1.29L10.56 1.29L10.56 1.29Q11.08 0.99 11.64 0.75Q12.38 0.43 13.14 0.27L13.14 0.27Q13.89 0.12 14.66 0.12L57.72 0.12Z" fill="#FFFFFF" fill-opacity="1.000000" fill-rule="evenodd"/>
</svg>
