<svg width="51" height="33" viewBox="0 0 51 33" fill="none" xmlns="http://www.w3.org/2000/svg">
<path fill-rule="evenodd" clip-rule="evenodd" d="M21.5615 22.7289H28.6493V9.84341H21.5615V22.7289Z" fill="#FF5F00"/>
<path fill-rule="evenodd" clip-rule="evenodd" d="M22.0118 16.2863C22.0118 13.6722 23.2217 11.3439 25.1058 9.84354C23.7278 8.74617 21.9893 8.09146 20.0997 8.09146C15.6263 8.09146 12 11.7605 12 16.2863C12 20.8121 15.6263 24.481 20.0997 24.481C21.9893 24.481 23.7278 23.8264 25.1058 22.729C23.2217 21.2284 22.0118 18.9004 22.0118 16.2863Z" fill="#EB001B"/>
<path fill-rule="evenodd" clip-rule="evenodd" d="M37.9584 21.3644V21.0463H37.8762L37.7821 21.265L37.6874 21.0463H37.6054V21.3644H37.6632V21.1244L37.7518 21.3313H37.8118L37.9006 21.1239V21.3644H37.9584ZM37.4383 21.3644V21.1005H37.5438V21.0469H37.2759V21.1005H37.381V21.3644H37.4383ZM38.2112 16.2863C38.2112 20.8121 34.5848 24.481 30.1116 24.481C28.2219 24.481 26.4832 23.8264 25.1055 22.729C26.9896 21.2287 28.1994 18.9004 28.1994 16.2863C28.1994 13.6724 26.9896 11.3442 25.1055 9.84354C26.4832 8.74617 28.2219 8.09146 30.1116 8.09146C34.5848 8.09146 38.2112 11.7605 38.2112 16.2863Z" fill="#F79E1B"/>
<rect x="0.5" y="0.591461" width="49.2115" height="31.3896" rx="7.5" stroke="#8A89A4" stroke-opacity="0.1"/>
</svg>
