<svg width="39" height="24" viewBox="0 0 39 24" fill="none" xmlns="http://www.w3.org/2000/svg">
<path fill-rule="evenodd" clip-rule="evenodd" d="M13.885 21.4358H24.1605V2.5647H13.885V21.4358Z" fill="#B0B3C7"/>
<path fill-rule="evenodd" clip-rule="evenodd" d="M14.5373 12C14.5373 8.17159 16.2914 4.76177 19.0228 2.56448C17.0251 0.957372 14.5047 -0.00146484 11.7653 -0.00146484C5.27989 -0.00146484 0.0227051 5.3719 0.0227051 12C0.0227051 18.6281 5.27989 24.0013 11.7653 24.0013C14.5047 24.0013 17.0251 23.0426 19.0228 21.4354C16.2914 19.2378 14.5373 15.8284 14.5373 12Z" fill="#92949F"/>
<path fill-rule="evenodd" clip-rule="evenodd" d="M37.6562 19.437V18.9711H37.537L37.4005 19.2915L37.2633 18.9711H37.1444V19.437H37.2282V19.0855L37.3567 19.3885H37.4437L37.5724 19.0847V19.437H37.6562ZM36.9022 19.437V19.0505H37.0551V18.9719H36.6667V19.0505H36.8191V19.437H36.9022ZM38.0228 12C38.0228 18.6281 32.7653 24.0013 26.2803 24.0013C23.5408 24.0013 21.0201 23.0426 19.0227 21.4354C21.7542 19.2382 23.5082 15.8284 23.5082 12C23.5082 8.17186 21.7542 4.76218 19.0227 2.56448C21.0201 0.957372 23.5408 -0.00146484 26.2803 -0.00146484C32.7653 -0.00146484 38.0228 5.3719 38.0228 12Z" fill="#DADDEF"/>
</svg>
