<svg width="16" height="16" viewBox="0 0 16 16" fill="none" xmlns="http://www.w3.org/2000/svg">
<path d="M12.6663 6.00001C12.6663 6.96668 12.3797 7.85335 11.8863 8.59335C11.1663 9.66002 10.0263 10.4133 8.69967 10.6067C8.47301 10.6467 8.23967 10.6667 7.99967 10.6667C7.75967 10.6667 7.52634 10.6467 7.29967 10.6067C5.97301 10.4133 4.83301 9.66002 4.11301 8.59335C3.61967 7.85335 3.33301 6.96668 3.33301 6.00001C3.33301 3.42001 5.41967 1.33334 7.99967 1.33334C10.5797 1.33334 12.6663 3.42001 12.6663 6.00001Z" stroke="#8A89A4" stroke-linecap="round" stroke-linejoin="round"/>
<path d="M14.1664 12.3133L13.0664 12.5733C12.8197 12.6333 12.6264 12.82 12.5731 13.0667L12.3397 14.0467C12.2131 14.58 11.5331 14.74 11.1797 14.32L7.99973 10.6667L4.81973 14.3267C4.46639 14.7467 3.78639 14.5867 3.65973 14.0533L3.42639 13.0733C3.36639 12.8267 3.17306 12.6333 2.93306 12.58L1.83306 12.32C1.32639 12.2 1.14639 11.5667 1.51306 11.2L4.11306 8.60001C4.83306 9.66667 5.97306 10.42 7.29973 10.6134C7.52639 10.6534 7.75973 10.6733 7.99973 10.6733C8.23973 10.6733 8.47306 10.6534 8.69973 10.6134C10.0264 10.42 11.1664 9.66667 11.8864 8.60001L14.4864 11.2C14.8531 11.56 14.6731 12.1933 14.1664 12.3133Z" stroke="#8A89A4" stroke-linecap="round" stroke-linejoin="round"/>
<path d="M8.38632 3.98666L8.77966 4.77332C8.83299 4.87998 8.97299 4.98666 9.09966 5.00666L9.81299 5.12665C10.2663 5.19998 10.373 5.53332 10.0463 5.85999L9.49299 6.41331C9.39966 6.50665 9.34632 6.68666 9.37966 6.81999L9.53966 7.50666C9.66632 8.04666 9.37966 8.25998 8.89966 7.97331L8.23299 7.57998C8.11299 7.50665 7.91299 7.50665 7.79299 7.57998L7.12632 7.97331C6.64632 8.25331 6.35966 8.04666 6.48632 7.50666L6.64632 6.81999C6.67299 6.69332 6.62632 6.50665 6.53299 6.41331L5.97966 5.85999C5.65299 5.53332 5.75966 5.20665 6.21299 5.12665L6.92632 5.00666C7.04632 4.98666 7.18632 4.87998 7.23966 4.77332L7.63299 3.98666C7.82632 3.55999 8.17299 3.55999 8.38632 3.98666Z" stroke="#8A89A4" stroke-linecap="round" stroke-linejoin="round"/>
</svg>
