<svg width="16" height="16" viewBox="0 0 16 16" fill="none" xmlns="http://www.w3.org/2000/svg">
<path d="M11.333 12.2867H8.66634L5.69967 14.26C5.25967 14.5533 4.66634 14.24 4.66634 13.7067V12.2867C2.66634 12.2867 1.33301 10.9534 1.33301 8.95337V4.95333C1.33301 2.95333 2.66634 1.62 4.66634 1.62H11.333C13.333 1.62 14.6663 2.95333 14.6663 4.95333V8.95337C14.6663 10.9534 13.333 12.2867 11.333 12.2867Z" stroke="#8A89A4" stroke-miterlimit="10" stroke-linecap="round" stroke-linejoin="round"/>
<path d="M8.0002 7.57333V7.43336C8.0002 6.98003 8.28022 6.74002 8.56022 6.54668C8.83355 6.36002 9.10685 6.12002 9.10685 5.68002C9.10685 5.06669 8.61354 4.57333 8.0002 4.57333C7.38687 4.57333 6.89355 5.06669 6.89355 5.68002" stroke="#8A89A4" stroke-linecap="round" stroke-linejoin="round"/>
<path d="M7.99733 9.16668H8.00333" stroke="#8A89A4" stroke-linecap="round" stroke-linejoin="round"/>
</svg>
