<svg width="38" height="12" viewBox="0 0 38 12" fill="none" xmlns="http://www.w3.org/2000/svg">
<path fill-rule="evenodd" clip-rule="evenodd" d="M3.51398 0.806456C3.85347 0.804425 4.86241 0.713555 5.28977 2.15592C5.57765 3.12751 6.03623 4.71902 6.66549 6.93045H6.92177C7.5966 4.599 8.06018 3.00749 8.3125 2.15592C8.74432 0.69853 9.82386 0.806485 10.2557 0.806485L13.5873 0.806489V11.1701H10.1916V5.06265H9.96392L8.07102 11.1701H5.51624L3.62334 5.05813H3.39564V11.1701H0V0.806489L3.51398 0.806456ZM18.4633 0.806489V6.91849H18.7342L21.0368 1.89263C21.4837 0.892475 22.4363 0.806489 22.4363 0.806489H25.7223V11.1701H22.2557V5.05813H21.9849L19.7275 10.084C19.2805 11.0796 18.2827 11.1701 18.2827 11.1701H14.9968V0.806489H18.4633ZM37.7043 5.73136C37.2207 7.10162 35.7022 8.08296 34.021 8.08296H30.3856V11.1701H27.0891V5.73136H37.7043Z" fill="#0F754E"/>
<path fill-rule="evenodd" clip-rule="evenodd" d="M34.1797 0.806396H26.916C27.0889 3.11369 29.0759 5.08889 31.1328 5.08889H37.9331C38.3255 3.17125 36.9746 0.806396 34.1797 0.806396Z" fill="url(#paint0_linear_966_101)"/>
<defs>
<linearGradient id="paint0_linear_966_101" x1="37.9998" y1="3.50027" x2="26.916" y2="3.50027" gradientUnits="userSpaceOnUse">
<stop stop-color="#1F5CD7"/>
<stop offset="1" stop-color="#02AEFF"/>
</linearGradient>
</defs>
</svg>
