<svg width="19" height="20" viewBox="0 0 19 20" fill="none" xmlns="http://www.w3.org/2000/svg">
<path d="M15.2799 6.76944V10.8465C15.2799 13.2849 13.8866 14.3298 11.7966 14.3298H4.83782C4.48157 14.3298 4.14116 14.2982 3.82449 14.227C3.62657 14.1953 3.43658 14.1399 3.26241 14.0766C2.07491 13.6332 1.35449 12.604 1.35449 10.8465V6.76944C1.35449 4.3311 2.74782 3.28613 4.83782 3.28613H11.7966C13.5699 3.28613 14.8445 4.03821 15.1849 5.75613C15.2403 6.0728 15.2799 6.39735 15.2799 6.76944Z" stroke="#EBEFFD" stroke-width="1.1875" stroke-miterlimit="10" stroke-linecap="round" stroke-linejoin="round"/>
<path d="M17.6556 9.14466V13.2218C17.6556 15.6601 16.2623 16.7051 14.1723 16.7051H7.21353C6.62769 16.7051 6.09729 16.6259 5.63812 16.4518C4.69604 16.1034 4.05478 15.383 3.8252 14.2272C4.14186 14.2984 4.48228 14.3301 4.83853 14.3301H11.7973C13.8873 14.3301 15.2806 13.2851 15.2806 10.8468V6.76966C15.2806 6.39757 15.249 6.0651 15.1856 5.75635C16.6898 6.07301 17.6556 7.13382 17.6556 9.14466Z" stroke="#EBEFFD" stroke-width="1.1875" stroke-miterlimit="10" stroke-linecap="round" stroke-linejoin="round"/>
<path d="M8.31218 10.9022C9.46645 10.9022 10.4022 9.96645 10.4022 8.81218C10.4022 7.6579 9.46645 6.72217 8.31218 6.72217C7.1579 6.72217 6.22217 7.6579 6.22217 8.81218C6.22217 9.96645 7.1579 10.9022 8.31218 10.9022Z" stroke="#EBEFFD" stroke-width="1.1875" stroke-miterlimit="10" stroke-linecap="round" stroke-linejoin="round"/>
<path d="M3.78516 7.07031V10.5537" stroke="#EBEFFD" stroke-width="1.1875" stroke-miterlimit="10" stroke-linecap="round" stroke-linejoin="round"/>
<path d="M12.8428 7.07031V10.5537" stroke="#EBEFFD" stroke-width="1.1875" stroke-miterlimit="10" stroke-linecap="round" stroke-linejoin="round"/>
</svg>
