<svg width="19" height="19" viewBox="0 0 19 19" fill="none" xmlns="http://www.w3.org/2000/svg">
<path d="M15.2799 6.27237V10.3495C15.2799 12.7878 13.8866 13.8328 11.7966 13.8328H4.83782C4.48157 13.8328 4.14116 13.8012 3.82449 13.7299C3.62657 13.6982 3.43658 13.6428 3.26241 13.5795C2.07491 13.1361 1.35449 12.107 1.35449 10.3495V6.27237C1.35449 3.83403 2.74782 2.78906 4.83782 2.78906H11.7966C13.5699 2.78906 14.8445 3.54114 15.1849 5.25906C15.2403 5.57573 15.2799 5.90028 15.2799 6.27237Z" stroke="#8A89A4" stroke-width="1.1875" stroke-miterlimit="10" stroke-linecap="round" stroke-linejoin="round"/>
<path d="M17.6556 8.64612V12.7232C17.6556 15.1616 16.2623 16.2065 14.1723 16.2065H7.21353C6.62769 16.2065 6.09729 16.1274 5.63812 15.9532C4.69604 15.6049 4.05478 14.8845 3.8252 13.7287C4.14186 13.7999 4.48228 13.8315 4.83853 13.8315H11.7973C13.8873 13.8315 15.2806 12.7866 15.2806 10.3482V6.27112C15.2806 5.89904 15.249 5.56656 15.1856 5.25781C16.6898 5.57448 17.6556 6.63529 17.6556 8.64612Z" stroke="#8A89A4" stroke-width="1.1875" stroke-miterlimit="10" stroke-linecap="round" stroke-linejoin="round"/>
<path d="M8.31218 10.4066C9.46645 10.4066 10.4022 9.47085 10.4022 8.31657C10.4022 7.1623 9.46645 6.22656 8.31218 6.22656C7.1579 6.22656 6.22217 7.1623 6.22217 8.31657C6.22217 9.47085 7.1579 10.4066 8.31218 10.4066Z" stroke="#8A89A4" stroke-width="1.1875" stroke-miterlimit="10" stroke-linecap="round" stroke-linejoin="round"/>
<path d="M3.78516 6.57031V10.0537" stroke="#8A89A4" stroke-width="1.1875" stroke-miterlimit="10" stroke-linecap="round" stroke-linejoin="round"/>
<path d="M12.8428 6.57031V10.0537" stroke="#8A89A4" stroke-width="1.1875" stroke-miterlimit="10" stroke-linecap="round" stroke-linejoin="round"/>
</svg>
