<svg width="19" height="19" viewBox="0 0 19 19" fill="none" xmlns="http://www.w3.org/2000/svg">
<path d="M1.5835 8.30729V6.72396C1.5835 3.95313 3.16683 2.76562 5.54183 2.76562H13.4585C15.8335 2.76562 17.4168 3.95313 17.4168 6.72396V11.474C17.4168 14.2448 15.8335 15.4323 13.4585 15.4323H9.50016" stroke="#8A89A4" stroke-width="1.1875" stroke-miterlimit="10" stroke-linecap="round" stroke-linejoin="round"/>
<path d="M9.50016 11.0833C10.5932 11.0833 11.4793 10.1972 11.4793 9.10417C11.4793 8.0111 10.5932 7.125 9.50016 7.125C8.4071 7.125 7.521 8.0111 7.521 9.10417C7.521 10.1972 8.4071 11.0833 9.50016 11.0833Z" stroke="#8A89A4" stroke-width="1.1875" stroke-miterlimit="10" stroke-linecap="round" stroke-linejoin="round"/>
<path d="M14.646 7.125V11.0833" stroke="#8A89A4" stroke-width="1.1875" stroke-miterlimit="10" stroke-linecap="round" stroke-linejoin="round"/>
<path d="M1.5835 11.875H5.81102C6.31768 11.875 6.72933 12.2866 6.72933 12.7933V13.8067" stroke="#8A89A4" stroke-width="1.1875" stroke-miterlimit="10" stroke-linecap="round" stroke-linejoin="round"/>
<path d="M2.54931 10.9062L1.5835 11.8721L2.54931 12.8379" stroke="#8A89A4" stroke-width="1.1875" stroke-miterlimit="10" stroke-linecap="round" stroke-linejoin="round"/>
<path d="M6.72933 16.0489H2.50181C1.99514 16.0489 1.5835 15.6372 1.5835 15.1305V14.1172" stroke="#8A89A4" stroke-width="1.1875" stroke-miterlimit="10" stroke-linecap="round" stroke-linejoin="round"/>
<path d="M5.76416 17.0176L6.72997 16.0518L5.76416 15.0859" stroke="#8A89A4" stroke-width="1.1875" stroke-miterlimit="10" stroke-linecap="round" stroke-linejoin="round"/>
</svg>
