<svg width="28" height="29" viewBox="0 0 28 29" fill="none" xmlns="http://www.w3.org/2000/svg">
<path d="M12.0201 7.90997C8.71009 7.90997 6.02009 10.6 6.02009 13.91V16.8C6.02009 17.41 5.76009 18.34 5.45009 18.86L4.30009 20.77C3.59009 21.95 4.08009 23.26 5.38009 23.7C9.69009 25.14 14.3401 25.14 18.6501 23.7C19.8601 23.3 20.3901 21.87 19.7301 20.77L18.5801 18.86C18.2801 18.34 18.0201 17.41 18.0201 16.8V13.91C18.0201 10.61 15.3201 7.90997 12.0201 7.90997Z" stroke="#8A89A4" stroke-width="1.5" stroke-miterlimit="10" stroke-linecap="round"/>
<path d="M13.8699 8.2C13.5599 8.11 13.2399 8.04 12.9099 8C11.9499 7.88 11.0299 7.95 10.1699 8.2C10.4599 7.46 11.1799 6.94 12.0199 6.94C12.8599 6.94 13.5799 7.46 13.8699 8.2Z" stroke="#8A89A4" stroke-width="1.5" stroke-miterlimit="10" stroke-linecap="round" stroke-linejoin="round"/>
<path d="M15.02 24.06C15.02 25.71 13.67 27.06 12.02 27.06C11.2 27.06 10.44 26.72 9.90002 26.18C9.36002 25.64 9.02002 24.88 9.02002 24.06" stroke="#8A89A4" stroke-width="1.5" stroke-miterlimit="10"/>
<circle cx="23" cy="5" r="5" fill="#FDCA76"/>
<path d="M23.528 4.696C23.9547 4.776 24.304 4.96 24.576 5.248C24.848 5.536 24.984 5.90133 24.984 6.344C24.984 6.888 24.7973 7.31733 24.424 7.632C24.0507 7.94667 23.5973 8.104 23.064 8.104C22.6373 8.104 22.2587 8.008 21.928 7.816C21.5973 7.61867 21.3627 7.336 21.224 6.968L21.848 6.6C22.0133 7.11733 22.4187 7.376 23.064 7.376C23.4107 7.376 23.6933 7.28533 23.912 7.104C24.1307 6.92267 24.24 6.66933 24.24 6.344C24.24 6.01867 24.1307 5.76533 23.912 5.584C23.6933 5.39733 23.4107 5.304 23.064 5.304H22.872L22.576 4.848L23.872 3.096H21.384V2.4H24.744V3.056L23.528 4.696Z" fill="black"/>
</svg>
