<svg width="16.000000" height="16.000000" viewBox="0 0 16 16" fill="none" xmlns="http://www.w3.org/2000/svg" xmlns:xlink="http://www.w3.org/1999/xlink">
	<desc>
			Created with Pixso.
	</desc>
	<defs/>
	<rect id="vuesax/linear/moneys" width="16.000000" height="16.000000" fill="#FFFFFF" fill-opacity="0"/>
	<path id="Vector" d="M12.8672 8.71289C12.8672 10.7666 11.6934 11.6465 9.93359 11.6465L4.07422 11.6465C3.77344 11.6465 3.48633 11.6201 3.2207 11.5596C3.05469 11.5332 2.89453 11.4863 2.74805 11.4336C1.74805 11.0596 1.14062 10.1934 1.14062 8.71289L1.14062 5.28027C1.14062 3.22656 2.31445 2.34668 4.07422 2.34668L9.93359 2.34668C11.4277 2.34668 12.5 2.98047 12.7871 4.42676C12.834 4.69336 12.8672 4.9668 12.8672 5.28027L12.8672 8.71289Z" stroke="#8A89A4" stroke-opacity="1.000000" stroke-width="1.000000" stroke-linejoin="round"/>
	<path id="Vector" d="M6.99805 8.75977C6.02539 8.75977 5.23828 7.97266 5.23828 7C5.23828 6.02832 6.02539 5.24023 6.99805 5.24023C7.9707 5.24023 8.75781 6.02832 8.75781 7C8.75781 7.97266 7.9707 8.75977 6.99805 8.75977Z" stroke="#8A89A4" stroke-opacity="1.000000" stroke-width="1.000000" stroke-linejoin="round"/>
	<path id="Vector" d="M3.18555 5.5332L3.18555 8.4668" stroke="#8A89A4" stroke-opacity="1.000000" stroke-width="1.000000" stroke-linejoin="round" stroke-linecap="round"/>
	<path id="Vector" d="M10.8145 5.5332L10.8145 8.4668" stroke="#8A89A4" stroke-opacity="1.000000" stroke-width="1.000000" stroke-linejoin="round" stroke-linecap="round"/>
	<g opacity="0.000000"/>
	<path id="Vector" d="M14.8672 10.7139C14.8672 12.7666 13.6934 13.6465 11.9336 13.6465L6.07422 13.6465C5.58008 13.6465 5.13477 13.5801 4.74805 13.4336C3.95312 13.1396 3.41406 12.5332 3.2207 11.5605C3.48828 11.6201 3.77344 11.6465 4.07422 11.6465L9.93359 11.6465C11.6934 11.6465 12.8672 10.7666 12.8672 8.71387L12.8672 5.28027C12.8672 4.9668 12.8398 4.68652 12.7871 4.42676C14.0547 4.69336 14.8672 5.58691 14.8672 7.28027L14.8672 10.7139Z" stroke="#8A89A4" stroke-opacity="1.000000" stroke-width="1.000000" stroke-linejoin="round"/>
</svg>
