<svg width="16.000000" height="16.000000" viewBox="0 0 16 16" fill="none" xmlns="http://www.w3.org/2000/svg" xmlns:xlink="http://www.w3.org/1999/xlink">
	<desc>
			Created with Pixso.
	</desc>
	<defs/>
	<rect id="vuesax/linear/message-question" width="16.000000" height="16.000000" fill="#FFFFFF" fill-opacity="0"/>
	<path id="Vector" d="M8.66797 12.2871L5.70117 14.2598C5.25977 14.5537 4.66797 14.2402 4.66797 13.707L4.66797 12.2871C2.66797 12.2871 1.33398 10.9531 1.33398 8.95312L1.33398 4.95312C1.33398 2.95312 2.66797 1.62012 4.66797 1.62012L11.334 1.62012C13.334 1.62012 14.668 2.95312 14.668 4.95312L14.668 8.95312C14.668 10.9531 13.334 12.2871 11.334 12.2871L8.66797 12.2871Z" stroke="#8A89A4" stroke-opacity="1.000000" stroke-width="1.000000" stroke-linejoin="round"/>
	<path id="Vector" d="M8 7.57324L8 7.43359C8 6.97949 8.2793 6.74023 8.55859 6.54688C8.83203 6.36035 9.10547 6.12012 9.10547 5.67969C9.10547 5.06641 8.61328 4.57324 8 4.57324C7.38672 4.57324 6.89258 5.06641 6.89258 5.67969" stroke="#8A89A4" stroke-opacity="1.000000" stroke-width="1.000000" stroke-linejoin="round" stroke-linecap="round"/>
	<g opacity="0.000000"/>
	<path id="Vector" d="M7.99609 9.16602L8.00195 9.16602" stroke="#8A89A4" stroke-opacity="1.000000" stroke-width="1.000000" stroke-linejoin="round" stroke-linecap="round"/>
</svg>
