<svg width="16.000000" height="16.000000" viewBox="0 0 16 16" fill="none" xmlns="http://www.w3.org/2000/svg" xmlns:xlink="http://www.w3.org/1999/xlink">
	<desc>
			Created with Pixso.
	</desc>
	<defs/>
	<rect id="vuesax/linear/profile-circle" width="16.000000" height="16.000000" fill="#FFFFFF" fill-opacity="0"/>
	<path id="Vector" d="M7.91992 8.51953C6.74609 8.48047 5.8125 7.51953 5.8125 6.33984C5.8125 5.13379 6.78516 4.15332 8 4.15332C9.20508 4.15332 10.1855 5.13379 10.1855 6.33984C10.1797 7.51953 9.25195 8.48047 8.08008 8.51953C8.0332 8.51367 7.97266 8.51367 7.91992 8.51953Z" stroke="#8A89A4" stroke-opacity="1.000000" stroke-width="1.000000" stroke-linejoin="round"/>
	<path id="Vector" d="M8 14.667C6.26562 14.667 4.69336 14.0068 3.50586 12.9199C3.57227 12.293 3.97266 11.6797 4.68555 11.2002C6.51172 9.98633 9.5 9.98633 11.3125 11.2002C12.0254 11.6797 12.4258 12.293 12.4922 12.9199C11.3066 14.0068 9.73242 14.667 8 14.667Z" stroke="#8A89A4" stroke-opacity="1.000000" stroke-width="1.000000" stroke-linejoin="round"/>
	<path id="Vector" d="M8 14.666C4.31836 14.666 1.33398 11.6816 1.33398 8C1.33398 4.31738 4.31836 1.33301 8 1.33301C11.6816 1.33301 14.668 4.31738 14.668 8C14.668 11.6816 11.6816 14.666 8 14.666Z" stroke="#8A89A4" stroke-opacity="1.000000" stroke-width="1.000000" stroke-linejoin="round"/>
	<g opacity="0.000000"/>
</svg>
