<svg width="16.000000" height="16.000000" viewBox="0 0 16 16" fill="none" xmlns="http://www.w3.org/2000/svg" xmlns:xlink="http://www.w3.org/1999/xlink">
	<desc>
			Created with Pixso.
	</desc>
	<defs/>
	<rect id="vuesax/linear/medal-star" width="16.000000" height="16.000000" fill="#FFFFFF" fill-opacity="0"/>
	<path id="Vector" d="M11.8867 8.59277C11.168 9.66016 10.0273 10.4131 8.70117 10.6064C8.47461 10.6465 8.24023 10.666 8 10.666C7.75977 10.666 7.52734 10.6465 7.30078 10.6064C5.97461 10.4131 4.83398 9.66016 4.11328 8.59277C3.62109 7.85254 3.33398 6.9668 3.33398 6C3.33398 3.41992 5.41992 1.33301 8 1.33301C10.5801 1.33301 12.668 3.41992 12.668 6C12.668 6.9668 12.3809 7.85254 11.8867 8.59277Z" stroke="#8A89A4" stroke-opacity="1.000000" stroke-width="1.000000" stroke-linejoin="round"/>
	<path id="Vector" d="M13.0664 12.5732C12.8203 12.6328 12.627 12.8193 12.5742 13.0664L12.3398 14.0459C12.2148 14.5801 11.5332 14.7393 11.1816 14.3193L8 10.666L4.82031 14.3262C4.4668 14.7461 3.78711 14.5859 3.66016 14.0527L3.42773 13.0732C3.36719 12.8262 3.17383 12.6328 2.93359 12.5801L1.83398 12.3193C1.32812 12.1992 1.14648 11.5664 1.51367 11.1992L4.11328 8.59961C4.83398 9.66602 5.97461 10.4199 7.30078 10.6133C7.52734 10.6533 7.75977 10.6729 8 10.6729C8.24023 10.6729 8.47461 10.6533 8.70117 10.6133C10.0273 10.4199 11.168 9.66602 11.8867 8.59961L14.4883 11.1992C14.8535 11.5596 14.6738 12.1934 14.168 12.3125L13.0664 12.5732Z" stroke="#8A89A4" stroke-opacity="1.000000" stroke-width="1.000000" stroke-linejoin="round"/>
	<path id="Vector" d="M8.78125 4.77344C8.83398 4.87988 8.97461 4.9873 9.10156 5.00684L9.81445 5.12695C10.2676 5.2002 10.373 5.5332 10.0469 5.86035L9.49414 6.41406C9.40039 6.50684 9.34766 6.68652 9.38086 6.82031L9.54102 7.50684C9.66797 8.04688 9.38086 8.26074 8.90039 7.97363L8.23438 7.58008C8.11328 7.50684 7.91406 7.50684 7.79492 7.58008L7.12695 7.97363C6.64648 8.25391 6.36133 8.04688 6.48633 7.50684L6.64648 6.82031C6.67383 6.69336 6.62695 6.50684 6.5332 6.41406L5.98047 5.86035C5.6543 5.5332 5.75977 5.20703 6.21484 5.12695L6.92773 5.00684C7.04688 4.9873 7.1875 4.87988 7.24023 4.77344L7.63477 3.9873C7.82812 3.56055 8.17383 3.56055 8.38672 3.9873L8.78125 4.77344Z" stroke="#8A89A4" stroke-opacity="1.000000" stroke-width="1.000000" stroke-linejoin="round"/>
	<g opacity="0.000000"/>
</svg>
