<svg width="62" height="28" viewBox="0 0 62 28" fill="none" xmlns="http://www.w3.org/2000/svg">
<path fill-rule="evenodd" clip-rule="evenodd" d="M19.3316 22.3661C21.8881 22.9182 24.4529 23.571 27.2251 27.0006C27.4714 27.305 27.0953 27.61 26.8128 27.3641C23.9916 24.916 21.4428 24.1269 19.0937 24.1269C16.4786 24.1269 14.6971 24.4689 12.9015 24.4689C6.13232 24.4689 0.644531 19.0924 0.644531 12.4608C0.644531 5.83037 6.13232 0.453857 12.9015 0.453857C19.6714 0.453857 25.1585 5.82974 25.1585 12.4608C25.1618 14.6336 24.5616 16.7656 23.4235 18.6246C23.3872 18.6831 23.2962 18.6623 23.2873 18.595C22.8667 15.6445 21.026 14.0184 18.348 13.5442C18.1157 13.5027 18.0725 13.3625 18.3798 13.3367C19.1967 13.2676 20.3611 13.2795 20.9528 13.3839C20.9885 13.0814 21.0037 12.7727 21.0037 12.4608C21.0037 8.07781 17.3764 4.52366 12.9015 4.52366C8.42669 4.52366 4.79934 8.07718 4.79934 12.4608C4.79934 16.845 8.42669 20.3985 12.9015 20.3985C13.0288 20.3985 13.156 20.3998 13.282 20.3941C13.1578 19.6857 13.1069 18.9666 13.13 18.2479C13.1497 17.7637 13.2502 17.697 13.4735 18.0737C14.594 19.9665 16.2031 21.6914 19.331 22.3661H19.3316ZM19.1236 19.42C19.4226 19.42 19.7363 19.5433 20.0061 19.7672C20.5514 20.2187 20.7174 20.7557 20.4286 21.1349C20.2682 21.3424 20.0086 21.4568 19.6968 21.4568C19.3914 21.4568 19.0797 21.3455 18.8633 21.1613C18.3671 20.7362 18.2214 20.0483 18.5452 19.6571C18.6718 19.5043 18.8773 19.42 19.1236 19.42V19.42ZM21.8411 17.4556C22.296 17.6241 22.4748 18.3058 22.5219 18.6202C22.602 19.1465 22.4328 19.3641 22.2623 19.3641C22.0765 19.3641 21.8423 19.1509 21.5675 18.7302C21.2958 18.3152 21.1965 17.8373 21.3308 17.5971C21.4199 17.438 21.6063 17.3682 21.8411 17.4556ZM37.3532 9.74799C37.4525 9.46187 37.5078 9.15563 37.5078 8.83744C37.5078 7.38107 36.4007 6.12592 34.8826 6.12592C33.3645 6.12592 32.258 7.38107 32.258 8.83744C32.258 10.2938 33.3645 11.5314 34.8826 11.5314C35.3426 11.5314 35.7644 11.4163 36.1297 11.2169L35.1435 10.0549C35.1202 10.0275 35.1054 9.99418 35.1008 9.95878C35.0961 9.92338 35.1018 9.88741 35.1172 9.85512C35.1326 9.82283 35.1571 9.79558 35.1876 9.77659C35.2182 9.75761 35.2537 9.74768 35.2898 9.74799H37.3538H37.3532ZM39.0648 11.4672L40.5931 13.182C40.7006 13.2977 40.6122 13.4851 40.4512 13.4851H38.1988C38.1535 13.4852 38.1088 13.4754 38.0678 13.4565C38.0268 13.4376 37.9905 13.41 37.9615 13.3757L37.5797 12.9261C36.7754 13.4377 35.839 13.7093 34.8826 13.7084C32.1409 13.7084 29.9108 11.5232 29.9108 8.83744C29.9108 6.1517 32.1409 3.96651 34.8826 3.96651C37.6249 3.96651 39.855 6.1517 39.855 8.83744C39.855 9.80584 39.5636 10.7076 39.0648 11.4672V11.4672ZM61.3996 4.19037C61.5351 4.19037 61.6445 4.29791 61.6445 4.43059V13.2443C61.6445 13.3763 61.5351 13.4839 61.3996 13.4839H59.5627C59.4981 13.4842 59.4361 13.4592 59.3902 13.4144C59.3443 13.3697 59.3182 13.3087 59.3177 13.2449V4.42996C59.3177 4.29728 59.4271 4.18975 59.5627 4.18975H61.4002L61.3996 4.19037ZM43.7394 4.19037C43.8749 4.19037 43.9837 4.29791 43.9837 4.43059V13.2443C43.9837 13.3763 43.8749 13.4839 43.7394 13.4839H41.9019C41.8373 13.4842 41.7753 13.4592 41.7294 13.4144C41.6835 13.3697 41.6574 13.3087 41.6569 13.2449V4.42996C41.6569 4.29728 41.7663 4.18975 41.9019 4.18975H43.7394V4.19037ZM58.3067 4.19037C58.3849 4.19037 58.4594 4.22748 58.5052 4.2891C58.5278 4.31942 58.5427 4.35469 58.5486 4.39192C58.5544 4.42914 58.5511 4.46722 58.5389 4.5029L55.5179 13.3223C55.5013 13.3699 55.4701 13.4112 55.4286 13.4404C55.387 13.4696 55.3373 13.4853 55.2863 13.4851H53.6537C53.6027 13.4854 53.5529 13.4699 53.5112 13.4409C53.4696 13.4118 53.4382 13.3705 53.4214 13.3229L51.6507 8.17025L49.8793 13.3229C49.8627 13.3704 49.8314 13.4116 49.7898 13.4407C49.7483 13.4698 49.6986 13.4853 49.6478 13.4851H48.0145C47.9635 13.4853 47.9138 13.4696 47.8722 13.4404C47.8307 13.4112 47.7994 13.3699 47.7829 13.3223L44.7625 4.50353C44.7503 4.46784 44.7471 4.42977 44.7529 4.39256C44.7588 4.35534 44.7737 4.32007 44.7962 4.28973C44.8191 4.25893 44.849 4.23389 44.8835 4.21663C44.918 4.19937 44.9561 4.19037 44.9947 4.19037H47.0512C47.1593 4.19037 47.2535 4.25955 47.2853 4.3589L48.9122 9.56814L50.7008 4.35261C50.7174 4.30488 50.7487 4.2635 50.7904 4.23428C50.8321 4.20507 50.8819 4.18949 50.933 4.18975H52.3684C52.4734 4.18975 52.5669 4.25514 52.6 4.35261L54.3886 9.56751L56.0161 4.35827C56.0318 4.30912 56.063 4.26623 56.1051 4.2359C56.1473 4.20556 56.1981 4.18939 56.2503 4.18975H58.3067V4.19037Z" fill="#FF8C00"/>
<path fill-rule="evenodd" clip-rule="evenodd" d="M32.1288 20.2913C32.5583 20.2913 32.8007 20.0486 32.8007 19.6687C32.8007 19.2833 32.5462 19.028 32.1167 19.028H31.3901V20.2919H32.1288V20.2913ZM30.6094 16.739H33.2486V17.3974H31.3907V18.3702H32.2497C33.0367 18.3702 33.5941 18.8682 33.5941 19.6687C33.5941 20.4277 33.0488 20.9497 32.2681 20.9497H30.6094V16.739V16.739ZM35.2223 20.446C35.6524 20.446 35.9311 20.0184 35.9311 19.6511V19.5681H35.7975C35.4106 19.5681 34.7565 19.6209 34.7565 20.0486C34.7565 20.2498 34.9143 20.446 35.2229 20.446H35.2223ZM35.7918 19.0519H35.9254V19.0104C35.9254 18.6129 35.6645 18.4765 35.3438 18.4765C35.041 18.4765 34.733 18.601 34.4849 18.7676L34.1998 18.2275C34.4543 18.0262 34.9506 17.8539 35.4106 17.8539C36.2155 17.8539 36.694 18.2929 36.694 19.0581V20.9497H35.9795V20.695C35.9795 20.5705 35.9979 20.4749 35.9979 20.4749H35.9852C35.7981 20.7956 35.4284 21.0207 35.0111 21.0207C34.4543 21.0207 33.9943 20.6654 33.9943 20.1133C33.9943 19.2065 35.1078 19.0519 35.7918 19.0519V19.0519ZM37.4753 17.925H38.2439V19.0934H39.5642V17.925H40.3328V20.9497H39.5648V19.7279H38.2446V20.9497H37.4759V17.925H37.4753ZM41.1561 17.925H41.9253V19.082H42.3007L43.0515 17.925H43.9048L42.9243 19.3663V19.3782L44.0257 20.9503H43.1362L42.3249 19.7222H41.9253V20.9497H41.1555V17.925H41.1561Z" fill="white"/>
</svg>
