<svg width="13.867188" height="16.500000" viewBox="0 0 13.8672 16.5" fill="none" xmlns="http://www.w3.org/2000/svg" xmlns:xlink="http://www.w3.org/1999/xlink">
	<desc>
			Created with Pixso.
	</desc>
	<defs/>
	<path id="Vector" d="M8.59961 11.5835L12.7676 11.5835L12.7676 15.75M5.26758 4.9165L1.09961 4.9165L1.09961 0.75M13.1152 5.75244C12.6484 4.59619 11.8652 3.59375 10.8574 2.85986C9.84961 2.12549 8.6543 1.68945 7.41016 1.6001C6.16602 1.51074 4.92188 1.77246 3.82031 2.35547C2.7168 2.93799 1.79883 3.81836 1.17188 4.89648M0.751953 10.7476C1.21875 11.9038 2.00195 12.9058 3.00977 13.6396C4.01758 14.3735 5.21289 14.8101 6.45703 14.8989C7.70117 14.9883 8.94531 14.7266 10.0469 14.144C11.1504 13.5615 12.0664 12.6812 12.6953 11.6035" stroke="#8A89A4" stroke-opacity="1.000000" stroke-width="1.500000" stroke-linejoin="round"/>
</svg>
