<svg width="15" height="15" viewBox="0 0 15 15" fill="none" xmlns="http://www.w3.org/2000/svg">
<path d="M14.2131 7.80388C14.2131 10.0415 14.2131 12.2816 14.2131 14.5192C14.2131 14.8389 14.2469 14.8008 13.9226 14.8008C9.44853 14.8008 4.97174 14.8008 0.497559 14.8008C0.186312 14.8008 0.217437 14.8211 0.217437 14.5319C0.214844 10.0491 0.214844 5.56123 0.214844 1.0759C0.214844 1.05053 0.214844 1.02516 0.214844 0.999792C0.220031 0.809517 0.220031 0.809517 0.417155 0.804443C0.461247 0.804443 0.502747 0.804443 0.546841 0.804443C4.99768 0.804443 9.44594 0.804443 13.8967 0.804443C14.2572 0.804443 14.2131 0.756241 14.2131 1.11141C14.2131 3.34392 14.2131 5.5739 14.2131 7.80388ZM12.4183 10.7645C12.2237 10.6656 12.063 10.5844 11.9048 10.5032C11.3185 10.1937 10.7687 9.83349 10.2552 9.41992C10.1722 9.35396 10.1074 9.28799 9.99582 9.39962C9.65084 9.75226 9.2955 10.0998 8.94275 10.4449C8.87272 10.5133 8.87532 10.5615 8.94015 10.6351C9.46409 11.2136 9.84797 11.8833 10.2137 12.5632C10.2525 12.6342 10.2708 12.723 10.377 12.7865C11.0489 12.1193 11.7232 11.4545 12.4183 10.7645ZM6.10002 2.6006C6.24008 2.96845 6.33864 3.29826 6.42164 3.63059C6.54095 4.10502 6.61099 4.58957 6.67064 5.07412C6.68101 5.17054 6.70177 5.22888 6.82107 5.22888C7.32166 5.22381 7.82225 5.22381 8.32025 5.22381C8.4214 5.22381 8.45253 5.18067 8.46031 5.08935C8.47587 4.92191 8.49922 4.75447 8.52515 4.58957C8.61593 3.99592 8.78712 3.42258 8.96609 2.85176C8.99202 2.77311 9.04389 2.69701 9.00241 2.6006C8.0531 2.6006 7.0986 2.6006 6.10002 2.6006ZM2.12123 9.41992C2.16533 9.41992 2.19386 9.42753 2.21721 9.41992C2.98754 9.1637 3.78123 9.00893 4.59566 8.97088C4.702 8.96581 4.72533 8.91252 4.72274 8.82627C4.71756 8.31127 4.71497 7.79627 4.71497 7.28128C4.71497 7.16964 4.66309 7.13666 4.56194 7.12652C4.39852 7.1113 4.23513 7.09607 4.07432 7.07071C3.46738 6.98191 2.87861 6.81702 2.29502 6.63943C2.23276 6.62167 2.17052 6.56839 2.07974 6.62928C2.09271 7.5502 2.07195 8.48379 2.12123 9.41992ZM7.62513 5.7312C7.62513 5.73373 7.62513 5.73373 7.62513 5.73626C7.37353 5.73626 7.12454 5.73373 6.87295 5.73626C6.6836 5.73881 6.67842 5.74388 6.67842 5.9164C6.67842 6.09399 6.68879 6.27157 6.6862 6.44916C6.6836 6.56585 6.7277 6.61913 6.8522 6.61913C7.36057 6.6166 7.87153 6.6166 8.3799 6.61913C8.48366 6.61913 8.54331 6.5836 8.53813 6.47199C8.53035 6.27917 8.52515 6.08383 8.52515 5.88849C8.52515 5.76671 8.47068 5.72867 8.34878 5.7312C8.11016 5.73626 7.86635 5.7312 7.62513 5.7312ZM8.41622 10.1633C8.43438 10.1506 8.45771 10.1379 8.47587 10.1201C8.839 9.75986 9.20213 9.39962 9.56783 9.04192C9.63269 8.97849 9.61712 8.93028 9.56265 8.8694C9.42258 8.70958 9.28511 8.54722 9.14764 8.38484C9.08799 8.31127 9.03871 8.32903 8.97906 8.38738C8.60038 8.75778 8.22169 9.12563 7.84301 9.49349C7.78076 9.55438 7.77816 9.60258 7.84301 9.66093C8.00641 9.81311 8.16462 9.96786 8.32544 10.1201C8.34878 10.143 8.37471 10.1633 8.41622 10.1633ZM6.14411 8.02967C6.13633 8.02967 6.12596 8.02967 6.11817 8.02967C6.11817 7.76836 6.11558 7.50706 6.11817 7.2483C6.12076 7.14175 6.08185 7.09608 5.96774 7.09862C5.78617 7.10622 5.60722 7.10875 5.42565 7.10369C5.29596 7.10115 5.26744 7.16203 5.27003 7.27619C5.27781 7.78106 5.28559 8.2859 5.28559 8.79076C5.28559 8.91507 5.3219 8.97596 5.45937 8.97088C5.62277 8.96326 5.78617 8.97088 5.94959 8.96835C6.13633 8.96581 6.13893 8.96326 6.14152 8.78822C6.14671 8.53199 6.14411 8.28083 6.14411 8.02967ZM8.09979 8.02713C7.9286 7.86731 7.7652 7.71762 7.60438 7.56541C7.54472 7.5096 7.49544 7.48931 7.4332 7.5578C7.3061 7.69479 7.17382 7.82672 7.04155 7.96118C6.98448 8.01952 6.9741 8.07279 7.03894 8.13368C7.18679 8.27576 7.33204 8.42035 7.4747 8.56497C7.52916 8.62079 7.57585 8.61317 7.62513 8.5599C7.77816 8.38738 7.9286 8.2174 8.09979 8.02713Z" fill="#8A89A4"/>
</svg>
