<svg width="71" height="20" viewBox="0 0 71 20" fill="none" xmlns="http://www.w3.org/2000/svg">
<g clip-path="url(#clip0_296_1039)">
<path d="M25.7344 4.9799C25.7344 2.75768 27 1.31084 29.2578 1.31084C30.2734 1.31084 30.875 1.51068 31.3047 1.71851L31 2.53386C30.4531 2.358 30.0547 2.22211 29.2734 2.22211C27.8906 2.21411 26.8047 2.98949 26.8047 4.87598C26.8047 6.80244 27.9297 7.64177 29.4609 7.64177C30.1172 7.64177 30.6094 7.54585 31.0703 7.39397L31.3125 8.2333C30.7969 8.43314 30.25 8.58502 29.2969 8.58502C26.9453 8.58502 25.7344 7.14617 25.7344 4.9799Z" fill="#5DC95F"/>
<path d="M31.9922 5.41961C31.9922 4.30051 32.1953 2.54991 32.8125 1.95838C33.3516 1.4388 34.7813 1.08708 36.4531 0.767334L36.6172 1.70259C35.1328 1.95838 33.8203 2.19819 33.5 2.51793C33.2188 2.79771 33.0938 3.4372 33.0313 3.91681C33.4766 3.66901 34.0938 3.4292 34.8438 3.4292C36.125 3.4292 36.9297 4.07669 36.9297 5.73136C36.9297 7.67381 35.8281 8.54511 34.3516 8.54511C32.8906 8.55311 31.9922 7.61785 31.9922 5.41961ZM35.9063 5.77932C35.9063 4.90802 35.5469 4.24455 34.5781 4.24455C33.9609 4.24455 33.4766 4.46038 33 4.71618C32.9922 4.89203 32.9844 5.15582 32.9844 5.33168C32.9844 6.95438 33.4609 7.71378 34.4375 7.71378C35.5781 7.71378 35.9063 6.72257 35.9063 5.77932Z" fill="#5DC95F"/>
<path d="M37.7656 5.84331C37.7656 3.68504 38.8359 2.87769 40.1719 2.87769C41.6641 2.87769 42.2891 3.84491 42.2891 5.61949V5.9872H38.7891C38.7969 7.42605 39.6016 7.71382 40.5313 7.71382C41.0391 7.71382 41.4688 7.63388 41.9922 7.47401L42.1641 8.28136C41.6953 8.45722 41.0625 8.57713 40.3672 8.57713C38.7891 8.58512 37.7656 7.94563 37.7656 5.84331ZM41.2344 5.25978C41.2344 4.29255 40.8906 3.66106 40.1094 3.66106C39.4063 3.66106 38.8828 4.18864 38.8125 5.25978H41.2344Z" fill="#5DC95F"/>
<path d="M43.3125 3.01355H44.3281V3.4452C44.7891 3.11747 45.2031 2.88565 45.8594 2.88565C47.1172 2.88565 47.9766 3.78093 47.9766 5.59548C47.9766 7.8177 46.6875 8.5691 45.2578 8.5691C44.9297 8.5691 44.5625 8.52114 44.3281 8.48916V10.6554H43.3125V3.01355ZM46.9453 5.65144C46.9453 4.66023 46.6016 3.77294 45.5781 3.77294C45.0234 3.77294 44.6016 4.02874 44.3281 4.18061V7.63385C44.4531 7.65783 44.875 7.72977 45.2344 7.72977C46.4531 7.73777 46.9453 6.86646 46.9453 5.65144Z" fill="#5DC95F"/>
<path d="M48.8599 5.41961C48.8599 4.30051 49.063 2.54991 49.6802 1.95838C50.2192 1.4388 51.6489 1.08708 53.3208 0.767334L53.4849 1.70259C52.0005 1.95838 50.688 2.19819 50.3677 2.51793C50.0864 2.79771 49.9614 3.4372 49.8989 3.91681C50.3442 3.66901 50.9614 3.4292 51.7114 3.4292C52.9927 3.4292 53.7974 4.07669 53.7974 5.73136C53.7974 7.67381 52.6958 8.54511 51.2192 8.54511C49.7505 8.55311 48.8599 7.61785 48.8599 5.41961ZM52.7661 5.77932C52.7661 4.90802 52.4067 4.24455 51.438 4.24455C50.8208 4.24455 50.3364 4.46038 49.8599 4.71618C49.852 4.89203 49.8442 5.15582 49.8442 5.33168C49.8442 6.95438 50.3208 7.71378 51.2974 7.71378C52.4458 7.71378 52.7661 6.72257 52.7661 5.77932Z" fill="#5DC95F"/>
<path d="M54.4453 6.9944C54.4453 5.6195 55.6328 5.33973 56.5625 5.33173L57.7266 5.30775V4.71623C57.7266 3.96483 57.3594 3.76499 56.5781 3.76499C56.0156 3.76499 55.5469 3.86091 55.0859 4.02078L54.875 3.22942C55.375 3.02158 55.9688 2.86171 56.75 2.86171C58.0313 2.86171 58.7266 3.31735 58.7266 4.42846V7.27418C58.7266 7.60991 59.0078 7.68185 59.2813 7.68985L59.2031 8.48921C59.1328 8.4972 59.0703 8.51319 59 8.51319C58.4531 8.51319 57.9141 8.34532 57.8203 7.85771C57.4922 8.11351 56.9453 8.54516 56.0938 8.54516C55.1016 8.55316 54.4453 8.00959 54.4453 6.9944ZM57.7266 7.23421V5.97922L56.5938 6.02718C55.8594 6.05116 55.4453 6.36291 55.4453 6.92246C55.4453 7.47402 55.8359 7.72182 56.3516 7.72182C56.8281 7.72982 57.3438 7.49001 57.7266 7.23421Z" fill="#5DC95F"/>
<path d="M60.1406 3.01353H61.1641V5.32369H63.6719V3.01353H64.6953V8.46517H63.6719V6.14703H61.1641V8.46517H60.1406V3.01353Z" fill="#5DC95F"/>
<path d="M65.9526 3.01353H66.9761V8.46517H65.9526V3.01353ZM68.5308 7.52992L67.0151 5.67541L69.1324 3.02153H70.2808L68.1167 5.59547L69.1714 6.79451C69.6402 7.34607 70.0699 7.66581 70.4995 7.78572L70.3277 8.5611C69.8277 8.52113 69.2339 8.40122 68.5308 7.52992Z" fill="#5DC95F"/>
<path d="M20.8438 9.59233C20.8438 15.3397 16.2891 20 10.6719 20C5.05469 20 0.5 15.3397 0.5 9.59233C0.5 9.36051 0.507813 9.1287 0.523438 8.89688L6.67969 12.518L19.7266 4.83613C20.4453 6.26699 20.8438 7.88169 20.8438 9.59233ZM6.67969 9.90408L0.945312 6.53078C0.835938 6.90647 0.742188 7.29017 0.671875 7.68185L6.67969 11.215L19.1719 3.8689C18.9688 3.54916 18.7422 3.2454 18.5078 2.94964L6.67969 9.90408ZM17.7266 2.09432C17.4453 1.81455 17.1484 1.55076 16.8359 1.31095L6.67969 7.28217L1.83594 4.42846C1.65625 4.7562 1.48438 5.09193 1.33594 5.44365L6.67969 8.58513L17.7266 2.09432ZM6.67969 5.97922L15.8047 0.607514C15.4219 0.375699 15.0234 0.175859 14.6172 0L6.67969 4.66827L3.14844 2.58993C2.89844 2.8697 2.65625 3.17346 2.4375 3.48521L6.67969 5.97922Z" fill="#5DC95F"/>
<path d="M32.375 15.0119C32.375 16.139 32.0937 17.0263 31.5391 17.6738C30.9844 18.3212 30.2031 18.641 29.1953 18.641C28.1797 18.641 27.3984 18.3212 26.8438 17.6898C26.2891 17.0583 26.0078 16.155 26.0078 15.0039C26.0078 13.8528 26.2813 12.9655 26.8359 12.334C27.3906 11.7025 28.1797 11.3828 29.2031 11.3828C30.2031 11.3828 30.9844 11.7025 31.5391 12.342C32.1016 12.9895 32.375 13.8768 32.375 15.0119ZM26.9297 15.0119C26.9297 15.9471 27.125 16.6586 27.5078 17.1462C27.8906 17.6338 28.4609 17.8816 29.2031 17.8816C29.9453 17.8816 30.5 17.6418 30.8828 17.1542C31.2656 16.6746 31.4609 15.9551 31.4609 15.0119C31.4609 14.0687 31.2734 13.3572 30.8906 12.8856C30.5078 12.406 29.9531 12.1662 29.2109 12.1662C28.4609 12.1662 27.8984 12.406 27.5078 12.8936C27.1172 13.3732 26.9297 14.0846 26.9297 15.0119Z" fill="#F5941C"/>
<path d="M34.6323 13.2535V15.4597H37.4448V13.2535H38.2964V18.5452H37.4448V16.1871H34.6323V18.5452H33.7808V13.2455H34.6323V13.2535Z" fill="#F5941C"/>
<path d="M43.875 18.5451H43.0156V13.9728H41.4922C41.4062 15.1318 41.2891 16.0431 41.1328 16.6986C40.9844 17.362 40.7891 17.8417 40.5469 18.1534C40.3047 18.4572 40 18.617 39.625 18.617C39.4219 18.617 39.2734 18.5931 39.1797 18.5531V17.9056C39.2422 17.9296 39.3359 17.9456 39.4453 17.9456C39.7891 17.9456 40.0703 17.5699 40.2734 16.8265C40.4766 16.0831 40.6406 14.892 40.7578 13.2613H43.8828V18.5451H43.875Z" fill="#F5941C"/>
<path d="M48.7183 18.5452L48.5542 17.7938H48.5151C48.2573 18.1215 47.9995 18.3533 47.7417 18.4652C47.4839 18.5851 47.1636 18.6411 46.7729 18.6411C46.2651 18.6411 45.8667 18.5052 45.5776 18.2334C45.2886 17.9616 45.1401 17.5779 45.1401 17.0743C45.1401 16.0032 45.9683 15.4357 47.6245 15.3877L48.4995 15.3557V15.044C48.4995 14.6443 48.4136 14.3485 48.2417 14.1567C48.0698 13.9648 47.7964 13.8689 47.4292 13.8689C47.1558 13.8689 46.8979 13.9089 46.6558 13.9968C46.4136 14.0767 46.187 14.1727 45.9683 14.2766L45.7104 13.6291C45.9683 13.4852 46.2573 13.3733 46.562 13.2934C46.8667 13.2134 47.1714 13.1735 47.4761 13.1735C48.1011 13.1735 48.5698 13.3173 48.8745 13.5971C49.1792 13.8769 49.3354 14.3325 49.3354 14.948V18.5452H48.7183ZM46.9683 17.9456C47.4448 17.9456 47.8198 17.8177 48.0854 17.554C48.3589 17.2902 48.4917 16.9225 48.4917 16.4349V15.9552L47.7261 15.9872C47.1323 16.0112 46.7026 16.1071 46.4292 16.275C46.1558 16.4428 46.0229 16.7146 46.0229 17.0823C46.0229 17.3621 46.1089 17.5699 46.2729 17.7218C46.437 17.8737 46.6636 17.9456 46.9683 17.9456Z" fill="#F5941C"/>
<path d="M51.7344 13.2534V16.4828L51.6953 17.4181L51.6797 17.6898L54.4531 13.2534H55.4922V18.5452H54.7031V15.4276L54.7188 14.7562L54.7422 14.1167L51.9844 18.5452H50.9297V13.2454H51.7344V13.2534ZM53.2031 12.5579C52.6016 12.5579 52.1641 12.438 51.8828 12.2062C51.6094 11.9744 51.4531 11.5907 51.4219 11.0551H52.2109C52.2422 11.3909 52.3281 11.6227 52.4688 11.7586C52.6094 11.8945 52.8594 11.9584 53.2188 11.9584C53.5391 11.9584 53.7813 11.8865 53.9375 11.7426C54.0938 11.5987 54.1875 11.3749 54.2266 11.0551H55.0313C54.9844 11.5747 54.8125 11.9584 54.5156 12.1982C54.2109 12.438 53.7812 12.5579 53.2031 12.5579Z" fill="#F5941C"/>
<path d="M57.9922 13.2535V15.4597H60.8047V13.2535H61.6562V18.5452H60.8047V16.1871H57.9922V18.5452H57.1406V13.2455H57.9922V13.2535Z" fill="#F5941C"/>
</g>
<defs>
<clipPath id="clip0_296_1039">
<rect width="70" height="20" fill="white" transform="translate(0.5)"/>
</clipPath>
</defs>
</svg>
