<svg width="62" height="28" viewBox="0 0 62 28" fill="none" xmlns="http://www.w3.org/2000/svg">
<g clip-path="url(#clip0_969_124)">
<path d="M0.644531 6.33105L4.33807 12.1754V15.7403L0.648852 21.5732L0.644531 6.33105Z" fill="#5B57A2"/>
<path d="M14.8262 10.0485L18.2872 8.17063L25.3703 8.16479L14.8262 13.883V10.0485Z" fill="#D90751"/>
<path d="M14.8076 6.29644L14.8272 14.0342L11.125 12.0204V0.453857L14.8076 6.29644Z" fill="#FAB718"/>
<path d="M25.3712 8.16484L18.2879 8.17067L14.8076 6.29644L11.125 0.453857L25.3712 8.16484Z" fill="#ED6F26"/>
<path d="M14.8272 21.6056V17.8515L11.125 15.876L11.127 27.454L14.8272 21.6056Z" fill="#63B22F"/>
<path d="M18.2786 19.7449L4.33783 12.1754L0.644531 6.33105L25.3553 19.7372L18.2786 19.7449Z" fill="#1487C9"/>
<path d="M11.127 27.4541L14.8266 21.6057L18.279 19.7449L25.3557 19.7373L11.127 27.4541Z" fill="#017F36"/>
<path d="M0.648438 21.5729L11.1539 15.8759L7.622 13.9575L4.33766 15.74L0.648438 21.5729Z" fill="#984995"/>
<path fill-rule="evenodd" clip-rule="evenodd" d="M41.0288 14.8713C43.4123 14.8713 45.1823 13.5776 45.1823 11.6163C45.1823 9.71791 43.8765 8.48547 41.6939 8.48547C40.6866 8.48547 39.8555 8.7992 39.2295 9.34082C39.3789 8.22157 40.4482 7.40417 41.6255 7.40417C41.8973 7.40417 43.9428 7.40044 43.9428 7.40044L45.0995 5.44092C45.0995 5.44092 42.5314 5.49277 41.3376 5.49277C38.6098 5.53474 36.7674 7.72957 36.7674 10.3953C36.7674 13.5011 38.5643 14.8713 41.0288 14.8713ZM41.0433 10.2211C41.9283 10.2211 42.5417 10.7359 42.5417 11.6161C42.5417 12.4082 41.9967 13.061 41.0433 13.0628C40.1312 13.0628 39.5177 12.4579 39.5177 11.6295C39.5177 10.7491 40.1312 10.2211 41.0433 10.2211ZM54.3862 8.03435V14.6354H51.7235V10.0049H49.1597V14.6354H46.4971V8.03392L54.3862 8.03435ZM33.0321 12.807C33.9713 12.7464 34.6 12.4254 34.6 12.4254L35.5854 14.0393C34.9544 14.3981 33.9189 14.6314 33.1683 14.656C30.4831 14.6997 28.6152 13.2533 28.6152 11.1459C28.6152 9.0651 30.6025 7.58415 33.1683 7.58415C34.185 7.58415 35.0591 7.82559 35.7153 8.26596C35.5772 8.4826 35.3895 8.78274 35.211 9.06991L34.9252 9.53091L34.6652 9.95189C34.6652 9.95189 33.7197 9.5133 33.0049 9.5133C31.8393 9.5133 30.9905 10.113 30.9905 11.1591C30.9905 12.2318 31.9524 12.8354 33.0321 12.807ZM30.9912 19.0778C30.9099 19.1696 30.8029 19.2391 30.6746 19.2859C30.5428 19.3333 30.4019 19.3575 30.2597 19.3569C30.1183 19.3586 29.9777 19.3377 29.8447 19.2953C29.7252 19.2568 29.616 19.1969 29.5239 19.1193C29.4331 19.0415 29.3617 18.9477 29.3145 18.8438C29.2634 18.7302 29.238 18.6087 29.2396 18.4863C29.2396 18.3648 29.2632 18.2523 29.3122 18.1457C29.3592 18.0389 29.4276 17.9473 29.5132 17.8704C29.5521 17.8348 29.5944 17.8029 29.6398 17.7744L29.6676 17.7577C29.6968 17.7407 29.7272 17.7249 29.7587 17.7104L29.7926 17.6955L29.8171 17.6852C29.9347 17.6401 30.063 17.6157 30.2041 17.6157C30.356 17.6157 30.4971 17.6326 30.6254 17.6663C30.7065 17.6874 30.7797 17.7175 30.8452 17.7566C30.8837 17.7797 30.9194 17.8058 30.9526 17.835L30.7966 18.069C30.721 18.0084 30.6321 17.9625 30.5355 17.9339C30.4436 17.9078 30.3476 17.8946 30.2511 17.8948C30.1657 17.8948 30.0844 17.9097 30.0053 17.9378C29.9275 17.9655 29.8563 18.0062 29.7957 18.0578C29.7336 18.1105 29.6849 18.1745 29.6522 18.245C29.616 18.3178 29.5989 18.3984 29.5989 18.4883C29.5989 18.5799 29.618 18.6623 29.6543 18.7335C29.691 18.8064 29.74 18.8684 29.802 18.9207C29.864 18.9732 29.9367 19.0123 30.0201 19.0387C30.0541 19.0501 30.0888 19.0591 30.1243 19.0657C30.176 19.0754 30.2297 19.08 30.2854 19.08C30.4008 19.08 30.5058 19.0591 30.5955 19.0198C30.6426 18.9996 30.6872 18.9754 30.7286 18.9475C30.7653 18.9227 30.7996 18.895 30.8308 18.8646L30.9912 19.0778ZM31.4318 19.3175V17.6513H31.7697V18.8928L32.869 17.6513H33.2071V19.3178H32.869V18.0765L31.7697 19.3178L31.4318 19.3175ZM35.4463 19.0778C35.3632 19.1705 35.254 19.2422 35.1299 19.2859C35.0544 19.3129 34.9758 19.3324 34.8958 19.3441C34.8361 19.3527 34.7755 19.3571 34.7148 19.3569C34.6581 19.3575 34.6015 19.3546 34.5455 19.3481C34.4619 19.3384 34.3796 19.3208 34.2999 19.2953C34.2726 19.2865 34.2458 19.2767 34.2197 19.2656C34.188 19.2523 34.1572 19.2373 34.1274 19.221C34.0743 19.1918 34.0245 19.1578 33.979 19.1193C33.888 19.0415 33.8167 18.9477 33.7695 18.8438C33.7185 18.7302 33.6929 18.6087 33.6946 18.4863C33.6946 18.3648 33.7181 18.2523 33.7673 18.1457C33.8146 18.0389 33.8828 17.9473 33.9684 17.8704C34.054 17.7917 34.1566 17.732 34.272 17.6852C34.3939 17.6377 34.526 17.614 34.6591 17.6157C34.7474 17.6157 34.832 17.6215 34.9125 17.6328L34.9598 17.6401C34.9777 17.6432 34.9954 17.6467 35.0129 17.6505L35.0441 17.6573L35.0806 17.6663C35.2089 17.6999 35.3179 17.7561 35.4078 17.835L35.2516 18.069C35.1763 18.0084 35.0874 17.9625 34.9908 17.9339C34.9677 17.9273 34.9442 17.9214 34.9204 17.9163C34.9042 17.913 34.8878 17.9102 34.8713 17.9075C34.8558 17.9051 34.8402 17.9029 34.8245 17.9012L34.79 17.8979C34.7622 17.8957 34.7343 17.8946 34.7064 17.8948C34.5365 17.8952 34.3733 17.9537 34.2507 18.0578C34.2348 18.0717 34.2198 18.086 34.2056 18.1011C34.1889 18.1189 34.1734 18.1378 34.1592 18.1574C34.1391 18.1853 34.1217 18.2145 34.1073 18.245C34.0994 18.2609 34.0924 18.2771 34.0864 18.2938C34.0793 18.3129 34.0735 18.3325 34.0688 18.3525C34.0588 18.3953 34.054 18.4404 34.054 18.4883C34.054 18.5316 34.0582 18.5727 34.0665 18.6115C34.0714 18.6346 34.0778 18.6566 34.0855 18.6779C34.0924 18.6972 34.1005 18.7157 34.1096 18.7335C34.1325 18.7796 34.1606 18.8214 34.1937 18.859C34.2131 18.8809 34.2342 18.9014 34.257 18.9207C34.319 18.9732 34.3921 19.0123 34.4753 19.0387C34.5587 19.0648 34.6464 19.08 34.7404 19.08C34.7798 19.08 34.8178 19.0776 34.8544 19.0728C34.925 19.0637 34.9901 19.0457 35.0506 19.0198C35.1394 18.9818 35.2193 18.9291 35.2858 18.8646L35.4463 19.0778ZM35.6216 17.6513H37.354V17.9473H36.6568V19.3175H36.3189V17.9473H35.6216V17.6513ZM39.264 19.136C39.1699 19.2107 39.061 19.2652 38.9325 19.3008C38.8088 19.3362 38.6797 19.3544 38.5498 19.3551C38.4977 19.3558 38.4457 19.3533 38.394 19.3481C38.3036 19.3386 38.2144 19.3203 38.1284 19.2933C38.0021 19.2523 37.8954 19.194 37.8076 19.1174C37.718 19.0395 37.6481 18.9458 37.6022 18.8422C37.5552 18.7355 37.5295 18.6157 37.5295 18.4845C37.5282 18.3683 37.5508 18.2529 37.5959 18.144C37.637 18.0414 37.7018 17.9477 37.786 17.8686C37.8262 17.8319 37.8702 17.7985 37.9172 17.7691C37.9717 17.7351 38.0303 17.7062 38.0921 17.6832C38.1626 17.6573 38.2389 17.6381 38.3214 17.6267C38.3814 17.6184 38.4445 17.614 38.5112 17.614C38.5504 17.6137 38.5895 17.6157 38.6281 17.6199C38.6631 17.6237 38.6979 17.6291 38.7321 17.6361C38.7739 17.6449 38.8152 17.6564 38.8555 17.6702C38.9605 17.7047 39.0565 17.7575 39.1379 17.8256C39.1588 17.8434 39.1784 17.8618 39.1968 17.8814C39.2122 17.8975 39.2267 17.9139 39.2403 17.931C39.2613 17.9572 39.2804 17.9849 39.2973 18.0132C39.3077 18.0308 39.3173 18.0488 39.326 18.0671C39.3454 18.1057 39.3608 18.146 39.3722 18.1879C39.3885 18.2474 39.3967 18.3107 39.3967 18.3779C39.3967 18.4547 39.3903 18.5201 39.3753 18.5781H37.9124C37.9274 18.7357 37.9937 18.859 38.1154 18.947C38.2374 19.0352 38.3914 19.078 38.5775 19.078C38.6409 19.078 38.7016 19.0736 38.759 19.0648C38.814 19.0565 38.8662 19.0442 38.9155 19.0277C39.0159 18.9939 39.0993 18.9528 39.1614 18.904L39.264 19.136ZM38.4962 17.893C38.3208 17.893 38.1818 17.9341 38.0771 18.0182C37.9734 18.1011 37.9074 18.2143 37.891 18.3366H39.0459C39.0373 18.1982 38.9863 18.0897 38.8898 18.011C38.8738 17.9978 38.8568 17.986 38.839 17.9752C38.8221 17.9649 38.8043 17.9557 38.7857 17.9473C38.7717 17.9409 38.757 17.9352 38.7419 17.93C38.6705 17.9053 38.5884 17.893 38.4962 17.893ZM39.8565 17.6513H40.1645L40.896 18.4771L41.5888 17.6513H41.8883V19.3178H41.5505V18.1026L40.8917 18.8759H40.8787L40.1946 18.1024V19.3175H39.8565V17.6513ZM42.6601 17.7016C42.7081 17.6836 42.7574 17.6687 42.8078 17.657C42.9169 17.6309 43.0302 17.6159 43.1502 17.6159C43.267 17.6159 43.3689 17.6272 43.4556 17.6496C43.5136 17.6645 43.5649 17.6845 43.6092 17.7093C43.6515 17.7329 43.6875 17.761 43.717 17.7937C43.7646 17.8453 43.8017 17.9066 43.8282 17.9774C43.8624 18.0686 43.8793 18.1754 43.8793 18.2975V19.3197H43.563V19.1044C43.5073 19.1681 43.4303 19.2241 43.3339 19.2729C43.2379 19.3215 43.1115 19.3458 42.9533 19.3458C42.8386 19.3458 42.7387 19.3267 42.6534 19.2885C42.6348 19.2802 42.6169 19.2709 42.5997 19.2608C42.588 19.2538 42.5766 19.2463 42.5656 19.2386C42.5533 19.2301 42.5414 19.2208 42.5298 19.2112C42.423 19.1213 42.3693 18.9939 42.3693 18.8311C42.3684 18.7526 42.3873 18.6753 42.4251 18.6043C42.4603 18.5397 42.5115 18.4828 42.5747 18.4379C42.6368 18.3929 42.7137 18.3591 42.8035 18.3366C42.8212 18.3323 42.8392 18.3281 42.8573 18.3244L42.8847 18.3191L42.9153 18.3142C42.9709 18.3057 43.0284 18.301 43.0882 18.301C43.1701 18.302 43.2516 18.3094 43.3319 18.3237C43.4149 18.3364 43.4937 18.3652 43.563 18.4081C43.563 18.3749 43.5621 18.3428 43.5604 18.3118L43.5571 18.2663C43.5548 18.2418 43.5518 18.2178 43.548 18.1945C43.5373 18.129 43.518 18.073 43.488 18.028C43.4739 18.0069 43.457 17.9873 43.4371 17.9701C43.4279 17.962 43.4179 17.9543 43.4072 17.9473C43.4001 17.9427 43.3925 17.9381 43.3846 17.9339C43.376 17.9293 43.367 17.9251 43.3576 17.9212C43.2999 17.895 43.2249 17.8816 43.1309 17.8816C43.0132 17.8816 42.9148 17.893 42.8379 17.9174L42.7969 17.9308L42.7623 17.9425L42.7217 17.9572C42.6834 17.9715 42.6451 17.9869 42.6067 18.0036L42.517 17.7674C42.5628 17.7423 42.6107 17.7203 42.6601 17.7016ZM43.0712 19.078C43.1951 19.078 43.2958 19.0558 43.3728 19.007C43.4423 18.9662 43.5055 18.9176 43.5609 18.8627V18.6511C43.5235 18.6274 43.4837 18.6076 43.4413 18.5916C43.4177 18.5825 43.3932 18.5748 43.368 18.5685C43.3505 18.5641 43.3326 18.5601 43.3144 18.5566C43.2935 18.5526 43.2722 18.5496 43.2504 18.5472C43.2128 18.543 43.1737 18.5408 43.1332 18.5408C43.0818 18.5408 43.0328 18.5463 42.9834 18.5575C42.959 18.5627 42.9352 18.57 42.9123 18.5793C42.8919 18.5874 42.872 18.597 42.8531 18.6083C42.8168 18.6307 42.7847 18.6588 42.761 18.6944L42.7562 18.702C42.7526 18.708 42.7494 18.7139 42.7465 18.7201C42.7433 18.7269 42.7406 18.7339 42.7382 18.7412C42.7359 18.7478 42.7341 18.7546 42.7325 18.7616C42.7286 18.7785 42.7268 18.7965 42.7268 18.8159C42.7268 18.8946 42.7567 18.9583 42.8168 19.0068C42.8512 19.0338 42.8943 19.0534 42.9456 19.065C42.9831 19.0736 43.025 19.078 43.0712 19.078ZM47.0557 16.9214C46.9958 16.9906 46.9317 17.0374 46.8633 17.0653C46.7947 17.0934 46.72 17.1123 46.6387 17.1273C46.5776 17.1385 46.5139 17.1488 46.4469 17.1596L46.3799 17.1706C46.2785 17.187 46.18 17.2154 46.0868 17.2547C46.0514 17.2681 46.0176 17.2844 45.9857 17.3031C45.9628 17.3165 45.9409 17.331 45.9203 17.3468L45.8953 17.3668L45.8801 17.3802L45.8644 17.3949C45.8529 17.407 45.8417 17.4193 45.831 17.4318C45.8097 17.4566 45.79 17.4824 45.7722 17.5092C45.7542 17.5362 45.7379 17.5643 45.7234 17.5935C45.6868 17.6663 45.6591 17.7434 45.6398 17.8238C45.6206 17.9045 45.61 17.9829 45.6034 18.0596H45.6121C45.642 17.9998 45.6847 17.9473 45.736 17.9003C45.7886 17.8528 45.8483 17.812 45.9136 17.7788C45.9278 17.7715 45.9422 17.7645 45.9569 17.7577C45.9733 17.7502 45.9901 17.7432 46.0071 17.7366C46.0461 17.7214 46.0863 17.7087 46.1275 17.6984C46.2046 17.6797 46.2836 17.6702 46.3649 17.6702C46.4443 17.6694 46.5234 17.677 46.6004 17.6931C46.6452 17.7025 46.6894 17.7148 46.7326 17.73C46.839 17.7674 46.9347 17.8251 47.013 17.8987C47.0912 17.9739 47.151 18.0624 47.1883 18.1589C47.229 18.2602 47.2504 18.3742 47.2504 18.4995C47.2504 18.6157 47.2268 18.726 47.1777 18.8291C47.1575 18.8734 47.1331 18.9158 47.1051 18.9558C47.0682 19.0086 47.0252 19.0569 46.9766 19.1006C46.8888 19.1797 46.784 19.2426 46.6686 19.2859C46.5489 19.3309 46.4163 19.3553 46.273 19.3553C46.1168 19.3553 45.9778 19.3309 45.8537 19.2823C45.7298 19.2338 45.6247 19.1661 45.5371 19.0763C45.4494 18.9881 45.3833 18.8798 45.3361 18.7504C45.289 18.6212 45.2656 18.4773 45.2656 18.318C45.2656 18.1945 45.274 18.0655 45.2913 17.9306C45.308 17.7983 45.3418 17.6685 45.3917 17.543C45.4409 17.4193 45.5137 17.307 45.6057 17.2079C45.6977 17.1086 45.8195 17.0302 45.9715 16.9719L46.0046 16.9592C46.0209 16.9533 46.0373 16.9475 46.0538 16.9423C46.0838 16.9326 46.1141 16.9238 46.1447 16.9159C46.1631 16.9113 46.1816 16.9069 46.2002 16.9029C46.2236 16.8979 46.2471 16.8935 46.2708 16.8898L46.3879 16.8719L46.4505 16.8623L46.5146 16.8522C46.5522 16.8464 46.5894 16.8388 46.626 16.8291C46.6548 16.8217 46.6833 16.8131 46.7113 16.8034C46.7268 16.7981 46.7419 16.7913 46.7566 16.7836L46.7757 16.7726C46.8102 16.7514 46.8422 16.7228 46.8717 16.6874L47.0557 16.9214ZM45.6271 18.3742C45.6251 18.4731 45.641 18.5717 45.674 18.6662C45.7023 18.7462 45.7465 18.821 45.8044 18.8873C45.8598 18.9466 45.9292 18.9945 46.0077 19.0277C46.0868 19.0613 46.1726 19.0782 46.2665 19.0782C46.3376 19.0782 46.4029 19.0697 46.4637 19.0523L46.4858 19.0457C46.4977 19.042 46.5095 19.0378 46.5212 19.0332C46.5951 19.0055 46.662 18.9647 46.7178 18.9137C46.7737 18.8625 46.8174 18.8018 46.8463 18.7355C46.8759 18.6682 46.8933 18.5951 46.8933 18.5146C46.8933 18.3518 46.842 18.2169 46.737 18.1086C46.7019 18.0726 46.6617 18.0427 46.6161 18.0187C46.5788 17.9989 46.5378 17.9834 46.4932 17.9717C46.4305 17.9554 46.3608 17.9473 46.2836 17.9473C46.124 17.9462 45.9686 17.993 45.843 18.0802C45.7875 18.1198 45.7404 18.1646 45.704 18.2151C45.6914 18.2319 45.68 18.2492 45.6699 18.2672C45.6619 18.2817 45.6545 18.2965 45.6482 18.3114C45.6395 18.3318 45.6325 18.3529 45.6271 18.3742ZM49.5046 17.6515H49.8427V19.318H49.5046V17.6515ZM48.0759 17.6515H47.7379H47.7359V19.3197H48.3497C48.3805 19.3197 48.41 19.3188 48.4386 19.3173C48.4566 19.3164 48.4741 19.3151 48.4912 19.3135C48.5066 19.3122 48.5217 19.3107 48.5365 19.3087C48.6066 19.2999 48.6695 19.2859 48.7261 19.2674C48.7499 19.2595 48.7727 19.2512 48.7943 19.2422L48.8219 19.2298L48.8438 19.2195C48.8592 19.2116 48.8739 19.2033 48.888 19.1945C48.897 19.189 48.9057 19.1832 48.9141 19.1776C48.9245 19.1703 48.9344 19.1628 48.9439 19.1552C48.953 19.1479 48.9617 19.1402 48.9698 19.1325C49.0298 19.0763 49.0749 19.0145 49.1006 18.9435C49.1169 18.9014 49.1282 18.8592 49.1345 18.8163C49.139 18.7867 49.1411 18.7565 49.1411 18.726C49.1411 18.71 49.1405 18.6942 49.1393 18.6783C49.1383 18.6645 49.1368 18.6509 49.1349 18.6372C49.129 18.5942 49.1188 18.5522 49.1048 18.5107C49.0812 18.4417 49.0405 18.3799 48.9828 18.3275C48.9251 18.2749 48.8481 18.2321 48.7518 18.2C48.6554 18.1684 48.5358 18.1514 48.3883 18.1514H48.0759V17.6515ZM48.3219 19.0407H48.0759V18.4303V18.4263H48.3263C48.3578 18.4263 48.3876 18.4272 48.4157 18.4292C48.4589 18.4322 48.498 18.4377 48.5331 18.4454C48.5596 18.4511 48.5836 18.4584 48.6055 18.4667C48.6332 18.4775 48.657 18.4903 48.6771 18.5052C48.6998 18.5228 48.7189 18.5427 48.7343 18.5656C48.7513 18.5906 48.764 18.619 48.7718 18.6504C48.7784 18.6766 48.7817 18.7049 48.7817 18.7355C48.7817 18.8348 48.7477 18.9095 48.6791 18.962C48.6492 18.9848 48.6096 19.0029 48.5603 19.0158C48.4968 19.0323 48.4171 19.0407 48.3219 19.0407ZM52.0778 19.0778C51.9965 19.1696 51.8895 19.2391 51.7612 19.2859C51.6294 19.3331 51.4886 19.3573 51.3463 19.3569C51.205 19.3586 51.0644 19.3377 50.9314 19.2953C50.8119 19.2568 50.7026 19.1969 50.6106 19.1193C50.5757 19.0894 50.5436 19.0572 50.5147 19.0229L50.4912 18.9936C50.4828 18.9826 50.4748 18.9715 50.467 18.96L50.4562 18.944C50.4491 18.9332 50.4424 18.9222 50.4359 18.911C50.4273 18.8963 50.419 18.8814 50.4113 18.866L50.4009 18.8438C50.35 18.7302 50.3246 18.6087 50.3262 18.4863C50.3262 18.3648 50.3495 18.2523 50.3988 18.1457C50.4459 18.0389 50.5142 17.9473 50.5999 17.8704C50.6855 17.7917 50.788 17.732 50.9037 17.6852C51.0255 17.6377 51.1576 17.614 51.2908 17.6157C51.4424 17.6157 51.5837 17.6326 51.7121 17.6663C51.8406 17.6999 51.9495 17.7561 52.0392 17.835L51.8832 18.069C51.8516 18.0435 51.8176 18.0207 51.7816 18.0007C51.7638 17.9908 51.7456 17.9816 51.7269 17.973C51.7122 17.9664 51.6973 17.9603 51.682 17.9543L51.6535 17.944L51.6221 17.9339C51.5302 17.9078 51.4342 17.8946 51.3378 17.8948C51.3034 17.8948 51.2697 17.8972 51.2364 17.9018C51.1871 17.9088 51.1391 17.9212 51.0917 17.9378C51.0139 17.9655 50.9428 18.0064 50.8823 18.0578C50.8625 18.0749 50.8439 18.0932 50.827 18.1123L50.8121 18.1297C50.7828 18.1655 50.7582 18.2042 50.7388 18.245C50.7026 18.3178 50.6855 18.3984 50.6855 18.4883C50.6855 18.5799 50.7046 18.6623 50.741 18.7335C50.7773 18.8064 50.8266 18.8684 50.8887 18.9207C50.9506 18.9732 51.0233 19.0123 51.1067 19.0387C51.1904 19.0648 51.278 19.08 51.372 19.08C51.4416 19.08 51.5063 19.0725 51.567 19.0578C51.5823 19.0541 51.5973 19.0499 51.6121 19.0453C51.6361 19.038 51.6595 19.0295 51.6821 19.0198C51.771 18.9818 51.8509 18.9291 51.9175 18.8646L52.0778 19.0778ZM52.2532 17.6513H53.9857V17.9473H53.2882V19.3175H52.9504V17.9473H52.2532V17.6513ZM54.3534 17.6517H54.6915V17.8482C54.7555 17.7805 54.8475 17.7267 54.9652 17.6817C55.0829 17.6366 55.2068 17.6142 55.3393 17.6142C55.3607 17.6137 55.3821 17.6142 55.4034 17.6153C55.4465 17.6175 55.4892 17.6223 55.5313 17.6298C55.5907 17.6404 55.6489 17.6564 55.705 17.6777C55.8106 17.7168 55.9051 17.7764 55.9811 17.8519C56.0586 17.9295 56.1182 18.0198 56.1565 18.1176C56.1763 18.1677 56.1914 18.2202 56.2018 18.2753C56.2129 18.3338 56.2185 18.3949 56.2185 18.4586C56.2185 18.5838 56.1949 18.702 56.1478 18.8122C56.1008 18.9227 56.0344 19.0163 55.9468 19.0971C55.8577 19.1776 55.7517 19.2417 55.6346 19.2861C55.5126 19.3309 55.3779 19.3551 55.2282 19.3551C55.1275 19.3551 55.0293 19.3458 54.9352 19.3272C54.8411 19.3085 54.7598 19.2804 54.6915 19.2411V20.0591H54.3534V17.6517ZM55.2412 17.893C55.1278 17.893 55.0231 17.9156 54.9268 17.9607C54.8307 18.0055 54.7514 18.0598 54.6917 18.1233V18.949C54.7683 18.9945 54.8528 19.0288 54.9418 19.0503C55.023 19.069 55.1088 19.0782 55.2006 19.0782C55.2952 19.0798 55.3892 19.0637 55.4765 19.0314C55.5548 19.0031 55.6256 18.9602 55.6839 18.906C55.742 18.851 55.7866 18.786 55.8146 18.715C55.8444 18.6401 55.8616 18.5597 55.8616 18.4698C55.8616 18.4509 55.861 18.4322 55.8597 18.414L55.8568 18.3843L55.8541 18.3633L55.8503 18.3415L55.846 18.3206L55.84 18.2962C55.8347 18.2762 55.8284 18.2567 55.8209 18.2375C55.7952 18.1666 55.7547 18.1066 55.7013 18.0541C55.6476 18.0018 55.5835 17.9625 55.5066 17.9343C55.4273 17.9062 55.3395 17.893 55.2412 17.893ZM58.4727 17.6515H58.8107V19.3178H58.4727V17.6515ZM57.042 17.6515H56.704H56.702V19.3195H57.3157C57.4654 19.3195 57.5894 19.3008 57.6922 19.2674C57.7948 19.2336 57.8761 19.1888 57.9359 19.1325C57.9959 19.0763 58.0408 19.0145 58.0665 18.9433C58.0942 18.8724 58.107 18.8009 58.107 18.726C58.107 18.6511 58.0942 18.5801 58.0706 18.5107C58.0472 18.4417 58.0066 18.3797 57.9489 18.3275C57.8911 18.2749 57.8142 18.2319 57.7177 18.2C57.6215 18.1684 57.5018 18.1514 57.3541 18.1514H57.042V17.6515ZM57.2904 19.0407H57.0442V18.4303V18.4263H57.2946C57.457 18.4263 57.5747 18.4527 57.6454 18.5052C57.7138 18.5577 57.75 18.6342 57.75 18.7355C57.75 18.8348 57.7158 18.9095 57.6474 18.9618C57.579 19.0145 57.4591 19.0407 57.2904 19.0407ZM60.432 18.4547L61.1548 19.3178H60.7401L60.1818 18.6436L59.6149 19.3178H59.2214L59.94 18.4694L59.2641 17.6513H59.6792L60.1946 18.2804L60.7185 17.6513H61.1121L60.432 18.4547ZM30.7411 21.377H29.7038V22.7664H29.3658V21.1001H31.0789V22.7664H30.7411V21.377ZM32.9974 21.3957H32.3301L32.3085 21.6765C32.2938 21.8261 32.2757 21.9571 32.2531 22.07C32.2397 22.1366 32.2248 22.197 32.2081 22.2513C32.1631 22.3974 32.1075 22.5097 32.0435 22.5884C31.9794 22.667 31.9044 22.7213 31.8187 22.7477C31.7304 22.776 31.6369 22.7898 31.5429 22.7888L31.5172 22.5002C31.5536 22.502 31.5963 22.4947 31.6433 22.4761C31.6907 22.4574 31.7377 22.4161 31.7824 22.3546C31.8274 22.2906 31.8681 22.2008 31.9044 22.0848C31.9407 21.9668 31.9644 21.8134 31.9771 21.6203L32.0115 21.1017H33.3354V22.7681H32.9974V21.3957ZM33.9554 21.2142C34.0388 21.1674 34.1373 21.1301 34.2464 21.1039C34.3579 21.0766 34.4729 21.0628 34.5886 21.0628C34.858 21.0628 35.0484 21.1223 35.1554 21.2405C35.2644 21.3586 35.3181 21.5271 35.3181 21.7442V22.7664H35.0014V22.551C34.9456 22.6147 34.8687 22.671 34.7726 22.7195C34.6763 22.7683 34.5503 22.7927 34.3919 22.7927C34.2166 22.7927 34.0752 22.7477 33.9685 22.6578C33.9097 22.6088 33.8673 22.5484 33.8407 22.477C33.8189 22.4178 33.808 22.3515 33.808 22.2779C33.8079 22.2661 33.8081 22.2542 33.8088 22.2423C33.8105 22.2162 33.8143 22.1904 33.8204 22.1652C33.8297 22.1258 33.8441 22.0876 33.8635 22.0511C33.8987 21.9865 33.9499 21.9296 34.0131 21.8848C34.0469 21.8602 34.085 21.8391 34.1272 21.8213C34.1627 21.8063 34.201 21.7938 34.2421 21.7835C34.3318 21.7609 34.4262 21.7479 34.5266 21.7479C34.6085 21.7488 34.69 21.7562 34.7703 21.7703C34.8011 21.7751 34.8313 21.7822 34.8605 21.7912C34.9104 21.8066 34.9578 21.8279 35.0014 21.8545C35.0014 21.7778 34.9971 21.7068 34.9864 21.6411C34.9806 21.6064 34.9726 21.5743 34.9618 21.5451C34.9562 21.5301 34.95 21.5159 34.9431 21.5025C34.9379 21.4928 34.9325 21.4834 34.9267 21.4746C34.8966 21.4295 34.8539 21.3922 34.796 21.3678C34.7584 21.3509 34.7137 21.3392 34.6609 21.3333L34.6351 21.3309C34.6143 21.3293 34.5923 21.3284 34.5693 21.3284C34.4518 21.3284 34.3532 21.3399 34.2762 21.364C34.2539 21.3711 34.2316 21.3786 34.2092 21.3862C34.1548 21.4051 34.1001 21.4262 34.0454 21.4502L33.9554 21.2142ZM34.5118 22.5249C34.5893 22.5249 34.6577 22.5161 34.7168 22.4976C34.7523 22.4864 34.7845 22.4719 34.8133 22.4534C34.8827 22.4128 34.9461 22.3642 35.0016 22.3093V22.0977C34.884 22.023 34.7405 21.9876 34.5738 21.9876C34.5544 21.9876 34.5349 21.9883 34.5155 21.9898C34.4847 21.9925 34.4542 21.9973 34.4241 22.0041C34.3748 22.0155 34.3301 22.0322 34.2937 22.0549C34.2574 22.0773 34.2251 22.1054 34.2018 22.141C34.1781 22.1766 34.1674 22.2159 34.1674 22.2627C34.1674 22.3412 34.1974 22.4049 34.2574 22.4534C34.3172 22.5005 34.4005 22.5249 34.5118 22.5249ZM35.6516 21.1001H37.384V21.3959H36.6866V22.7664H36.3488V21.3961H35.6516V21.1001ZM39.1152 22.6941C39.0675 22.716 39.0168 22.7345 38.9625 22.7494C38.8343 22.785 38.7059 22.8039 38.5796 22.8039C38.4361 22.8055 38.2935 22.7846 38.1584 22.742C38.0322 22.7009 37.9251 22.6426 37.8374 22.566C37.7497 22.4893 37.6793 22.3974 37.632 22.2908C37.585 22.1839 37.5593 22.0643 37.5593 21.9331C37.5582 21.8169 37.5806 21.7015 37.6257 21.5923C37.6449 21.5447 37.6693 21.499 37.6983 21.4557C37.7316 21.406 37.771 21.3594 37.8161 21.3173C37.9029 21.2377 38.007 21.1747 38.1221 21.1318C38.2438 21.0867 38.3829 21.0626 38.5412 21.0626C38.659 21.0619 38.7758 21.081 38.8856 21.1188C38.9905 21.1533 39.0864 21.2063 39.1677 21.2742C39.2483 21.3428 39.3123 21.4249 39.3561 21.5157C39.4031 21.6092 39.4267 21.7123 39.4267 21.8263C39.4267 21.9033 39.4201 21.9689 39.4053 22.0267H37.9424C37.9574 22.1841 38.0234 22.3078 38.1454 22.3956C38.2674 22.4836 38.4215 22.5266 38.6075 22.5266C38.7316 22.5266 38.8449 22.5099 38.9453 22.4763C39.0459 22.4425 39.1294 22.4014 39.1914 22.3524L39.294 22.5847C39.2397 22.6277 39.1804 22.6642 39.1152 22.6941ZM38.5242 21.3397C38.3488 21.3397 38.2097 21.381 38.105 21.4651C38.0015 21.5477 37.9354 21.6609 37.919 21.7835H39.0739C39.0653 21.6448 39.014 21.5363 38.9179 21.4577C38.8216 21.381 38.6912 21.3397 38.5242 21.3397ZM40.0192 21.1001H39.5914L40.2906 21.9033L39.5594 22.7664H39.9741L40.6713 21.9035L40.0192 21.1001ZM41.0928 21.1001H40.7547V22.7664H41.0928V21.1001ZM41.5568 21.9033L42.3011 22.7664H41.882L41.1761 21.9033L41.8326 21.0999H42.2521L41.5568 21.9033ZM44.1768 22.5847C44.0828 22.6593 43.9738 22.7138 43.8454 22.7494C43.7216 22.7846 43.5925 22.803 43.4626 22.8039C43.3191 22.8055 43.1764 22.7846 43.0412 22.742C42.9149 22.7009 42.8082 22.6426 42.7204 22.566C42.6327 22.4893 42.5621 22.3974 42.5151 22.2908C42.468 22.1839 42.4425 22.0643 42.4425 21.9331C42.4411 21.8169 42.4636 21.7015 42.5087 21.5923C42.5498 21.49 42.6147 21.3961 42.6991 21.3173C42.7857 21.2377 42.8898 21.1747 43.0049 21.1318C43.1269 21.0867 43.2659 21.0626 43.424 21.0626C43.5418 21.0619 43.6586 21.081 43.7684 21.1188C43.8734 21.1533 43.9693 21.2063 44.0507 21.2742C44.1311 21.3428 44.1951 21.4249 44.2389 21.5157C44.2861 21.6092 44.3095 21.7123 44.3095 21.8263C44.3095 21.9033 44.3032 21.9689 44.2881 22.0267H42.8252C42.8402 22.1841 42.9065 22.3078 43.0283 22.3956C43.1502 22.4836 43.3042 22.5266 43.4903 22.5266C43.6144 22.5266 43.7277 22.5099 43.8283 22.4763C43.9287 22.4425 44.0121 22.4014 44.0742 22.3524L44.1768 22.5847ZM43.4072 21.3397C43.2319 21.3397 43.0928 21.381 42.9879 21.4651C42.8843 21.5477 42.8181 21.6609 42.8018 21.7835H43.9568C43.9483 21.6448 43.897 21.5363 43.8006 21.4577C43.7044 21.381 43.5719 21.3397 43.4072 21.3397ZM45.4463 20.4639C45.5006 20.5148 45.579 20.5403 45.6807 20.5403C45.8688 20.5403 45.9737 20.443 45.9888 20.2483H46.3052C46.3052 20.323 46.2902 20.3904 46.2603 20.4541C46.2305 20.5179 46.1876 20.5722 46.1342 20.617C46.1102 20.6363 46.0847 20.6543 46.0573 20.6706C46.021 20.6921 45.9813 20.7106 45.9375 20.7255C45.8939 20.7414 45.8476 20.7523 45.7981 20.7591C45.7601 20.7642 45.7203 20.7666 45.6785 20.7666C45.6381 20.7666 45.5996 20.7646 45.5632 20.7607C45.5049 20.7543 45.4514 20.7429 45.4027 20.7255C45.3237 20.6976 45.2551 20.662 45.2017 20.617C45.1694 20.5899 45.1417 20.5592 45.1188 20.5251C45.1038 20.503 45.0907 20.4792 45.0797 20.4541C45.0642 20.4188 45.0527 20.3821 45.0456 20.3436C45.04 20.3131 45.037 20.2814 45.037 20.2483H45.3557C45.364 20.3434 45.3943 20.4153 45.4463 20.4639ZM45.1052 22.7664H44.7673V21.0999H45.1052V22.3412L46.2046 21.0999H46.5426V22.7664H46.2046V21.5249L45.1052 22.7664Z" fill="white"/>
</g>
<defs>
<clipPath id="clip0_969_124">
<rect width="61" height="27" fill="white" transform="translate(0.644531 0.453857)"/>
</clipPath>
</defs>
</svg>
