<svg width="29" height="28" viewBox="0 0 29 28" fill="none" xmlns="http://www.w3.org/2000/svg">
<path d="M1.54855 18.0259C3.27954 23.7939 8.63317 28 14.9683 28C22.7052 28 28.9773 21.7319 28.9773 14C28.9773 6.26806 22.7052 0 14.9683 0C7.54441 0 1.46931 5.77194 0.989502 13.0699C1.89746 14.5911 2.24988 15.5321 1.54767 18.0259H1.54855Z" fill="url(#paint0_linear_311_824)"/>
<path d="M14.2464 10.4934L14.2477 10.5625L10.8199 15.5391C10.2648 15.5137 9.70792 15.6112 9.17908 15.8287C8.94887 15.9222 8.72907 16.0395 8.52328 16.1787L0.995627 13.0781C0.995627 13.0781 0.82139 15.942 1.54723 18.0761L6.86891 20.2706C7.13157 21.4641 7.9546 22.5106 9.16376 23.0137C10.115 23.4087 11.1843 23.4103 12.1367 23.018C13.0891 22.6257 13.8468 21.8717 14.2433 20.9216C14.4549 20.4155 14.5569 19.8704 14.5428 19.3221L19.4429 15.8199L19.5633 15.8221C22.4986 15.8221 24.8845 13.4307 24.8845 10.4934C24.8845 7.55599 22.503 5.17336 19.5633 5.16724C16.6292 5.16724 14.242 7.55599 14.242 10.4934H14.2464ZM13.4234 20.5777C12.7868 22.109 11.0305 22.8296 9.50391 22.1939C8.8265 21.9093 8.27741 21.3858 7.96117 20.723L9.69347 21.4405C9.96108 21.5518 10.248 21.6093 10.5379 21.6098C10.8277 21.6103 11.1149 21.5536 11.3828 21.4432C11.6508 21.3327 11.8943 21.1705 12.0996 20.966C12.3048 20.7614 12.4677 20.5184 12.5789 20.2509C12.8041 19.7104 12.8055 19.1027 12.5826 18.5612C12.3597 18.0197 11.9309 17.5887 11.3903 17.363L9.59541 16.6214C10.2862 16.3589 11.0716 16.3502 11.8062 16.6551C12.5504 16.9627 13.1196 17.5419 13.4242 18.2826C13.7289 19.0233 13.7272 19.8401 13.4199 20.5777M19.5681 14.0437C18.6275 14.0411 17.7262 13.6661 17.0618 13.0009C16.3973 12.3356 16.0237 11.4342 16.0229 10.4942C16.024 9.5544 16.3976 8.65328 17.0621 7.98818C17.7265 7.32308 18.6276 6.94822 19.5681 6.94567C20.5087 6.94799 21.41 7.32275 22.0746 7.98787C22.7393 8.65299 23.1131 9.55425 23.1141 10.4942C23.1133 11.4344 22.7396 12.3359 22.0749 13.0012C21.4103 13.6665 20.5088 14.0414 19.5681 14.0437ZM16.9116 10.4886C16.911 9.78229 17.1911 9.1047 17.6902 8.60468C18.1893 8.10467 18.8666 7.82315 19.5733 7.82199C21.0421 7.82199 22.2368 9.01636 22.2368 10.4886C22.2371 11.195 21.9568 11.8726 21.4573 12.3725C20.9578 12.8723 20.2802 13.1535 19.5733 13.1542C18.8667 13.1532 18.1894 12.8718 17.6902 12.372C17.191 11.8722 16.9113 11.1947 16.9116 10.4886Z" fill="#EBEFFD" fill-opacity="0.6"/>
<defs>
<linearGradient id="paint0_linear_311_824" x1="1400.38" y1="0" x2="1400.38" y2="2800" gradientUnits="userSpaceOnUse">
<stop stop-color="#111D2E"/>
<stop offset="0.212" stop-color="#051839"/>
<stop offset="0.407" stop-color="#0A1B48"/>
<stop offset="0.581" stop-color="#132E62"/>
<stop offset="0.738" stop-color="#144B7E"/>
<stop offset="0.873" stop-color="#136497"/>
<stop offset="1" stop-color="#1387B8"/>
</linearGradient>
</defs>
</svg>
