<svg width="206" height="206" viewBox="0 0 206 206" fill="none" xmlns="http://www.w3.org/2000/svg">
<circle cx="102.437" cy="102.436" r="49.5301" fill="#8AF59B"/>
<ellipse opacity="0.05" cx="103" cy="102.436" rx="73.7322" ry="74.2951" fill="#8AF59B"/>
<circle opacity="0.06" cx="103" cy="103" r="103" fill="#8AF59B"/>
<g clip-path="url(#clip0_1094_3124)">
<path d="M120.301 94.0202L97.9661 115.657C97.7694 115.847 97.4508 115.847 97.2546 115.657L84.573 103.371C84.3767 103.181 84.3767 102.873 84.573 102.682L87.6544 99.6971C87.8512 99.5069 88.1697 99.5069 88.366 99.6971L97.6108 108.653L116.508 90.3457C116.705 90.1556 117.023 90.1556 117.22 90.3457L120.301 93.3309C120.497 93.521 120.497 93.8292 120.301 94.0202Z" fill="#0D0E15"/>
</g>
<defs>
<clipPath id="clip0_1094_3124">
<rect width="36.0219" height="34.8962" fill="white" transform="translate(84.4268 85.5547)"/>
</clipPath>
</defs>
</svg>
