<svg width="16" height="16" viewBox="0 0 16 16" fill="none" xmlns="http://www.w3.org/2000/svg">
<g clip-path="url(#clip0_909_159)">
<path d="M8.36264 6.35999V7.16443C8.36264 7.41992 8.41367 7.63428 8.51438 7.80127C8.65329 8.03174 8.88132 8.16382 9.14023 8.16382C9.39389 8.16382 9.64597 8.04028 9.88938 7.79688L12.5464 5.13989C13.1297 4.55652 13.1297 3.6073 12.5464 3.02393L9.88938 0.366943C9.64597 0.123413 9.39389 0 9.14023 0C8.75315 0 8.36264 0.309082 8.36264 0.99939V1.72998C4.59043 1.95276 1.46763 4.84766 1.00351 8.63782C0.977513 8.84949 1.09787 9.05212 1.29624 9.13062C1.35239 9.15283 1.41086 9.16357 1.4686 9.16357C1.61484 9.16357 1.75669 9.09509 1.84702 8.97168C3.09189 7.27075 5.09067 6.25525 7.1937 6.25525C7.58335 6.25525 7.97519 6.29041 8.36264 6.35999V6.35999Z" fill="#9EAFEB"/>
<path d="M14.6954 6.8694C14.497 6.79079 14.2707 6.85622 14.1446 7.02846C12.8998 8.72927 10.901 9.74477 8.79802 9.74477C8.40837 9.74477 8.01653 9.70961 7.62907 9.64003V8.83559C7.62907 8.14528 7.23845 7.8362 6.85149 7.8362C6.59782 7.8362 6.34575 7.95974 6.10222 8.20327L3.44524 10.8601C2.86198 11.4435 2.86198 12.3927 3.44536 12.9762L6.10222 15.6331C6.34575 15.8766 6.59782 16 6.85149 16C7.23845 16 7.62907 15.6909 7.62907 15.0006V14.27C11.4014 14.0473 14.5241 11.1524 14.9882 7.36232C15.0142 7.15053 14.8938 6.94789 14.6954 6.8694V6.8694Z" fill="#9EAFEB"/>
</g>
<defs>
<clipPath id="clip0_909_159">
<rect width="16" height="16" fill="white"/>
</clipPath>
</defs>
</svg>
