<svg width="20.000000" height="20.000000" viewBox="0 0 20 20" fill="none" xmlns="http://www.w3.org/2000/svg" xmlns:xlink="http://www.w3.org/1999/xlink">
	<desc>
			Created with Pixso.
	</desc>
	<defs/>
	<rect id="vuesax/linear/refresh-circle" width="20.000000" height="20.000000" fill="#FFFFFF" fill-opacity="0"/>
	<path id="Vector" d="M10 18.333C5.39844 18.333 1.66699 14.6021 1.66699 10C1.66699 5.39746 5.39844 1.6665 10 1.6665C14.6025 1.6665 18.334 5.39746 18.334 10C18.334 14.6021 14.6025 18.333 10 18.333Z" stroke="#8AF59B" stroke-opacity="1.000000" stroke-width="1.250000" stroke-linejoin="round"/>
	<path id="Vector" d="M6.6748 12.0913C6.8252 12.3413 7.00781 12.5747 7.2168 12.7832C8.75 14.3164 11.2412 14.3164 12.7832 12.7832C13.4082 12.1582 13.7666 11.3662 13.8828 10.5581" stroke="#8AF59B" stroke-opacity="1.000000" stroke-width="1.250000" stroke-linejoin="round" stroke-linecap="round"/>
	<path id="Vector" d="M6.11621 9.44141C6.23242 8.625 6.59082 7.84131 7.21582 7.21631C8.75 5.68311 11.2412 5.68311 12.7832 7.21631C13 7.43311 13.1748 7.6665 13.3242 7.9082" stroke="#8AF59B" stroke-opacity="1.000000" stroke-width="1.250000" stroke-linejoin="round" stroke-linecap="round"/>
	<path id="Vector" d="M6.5166 14.3169L6.5166 12.0918L8.74121 12.0918" stroke="#8AF59B" stroke-opacity="1.000000" stroke-width="1.250000" stroke-linejoin="round" stroke-linecap="round"/>
	<path id="Vector" d="M13.4824 5.68359L13.4824 7.90869L11.2578 7.90869" stroke="#8AF59B" stroke-opacity="1.000000" stroke-width="1.250000" stroke-linejoin="round" stroke-linecap="round"/>
	<g opacity="0.000000"/>
</svg>
