<svg width="25" height="25" viewBox="0 0 25 25" fill="none" xmlns="http://www.w3.org/2000/svg">
<path d="M12.6152 0.896606C9.43264 0.896606 6.38039 2.16089 4.12995 4.41133C1.87952 6.66176 0.615234 9.71401 0.615234 12.8966C0.615234 16.0792 1.87952 19.1315 4.12995 21.3819C6.38039 23.6323 9.43264 24.8966 12.6152 24.8966C15.7978 24.8966 18.8501 23.6323 21.1005 21.3819C23.351 19.1315 24.6152 16.0792 24.6152 12.8966C24.6152 9.71401 23.351 6.66176 21.1005 4.41133C18.8501 2.16089 15.7978 0.896606 12.6152 0.896606Z" fill="#FDCA76" fill-opacity="0.1"/>
<path d="M20.5374 6.75965L18.054 19.115C18.054 19.115 17.9473 19.6796 17.2287 19.6796C16.8468 19.6796 16.6499 19.5026 16.6499 19.5026L11.2708 15.1531L8.6389 13.8604L5.2612 12.9851C5.2612 12.9851 4.65991 12.8159 4.65991 12.3314C4.65991 11.9276 5.27844 11.7351 5.27844 11.7351L19.4097 6.26481C19.4097 6.26481 19.8413 6.113 20.1562 6.11365C20.3498 6.11365 20.5706 6.1944 20.5706 6.43665C20.5706 6.59815 20.5374 6.75965 20.5374 6.75965Z" fill="#FDCA76"/>
<path d="M13.2782 16.7759L11.007 18.9555C11.007 18.9555 10.9082 19.0298 10.7763 19.033C10.7305 19.0343 10.6815 19.0272 10.6311 19.0052L11.2702 15.1519L13.2782 16.7759Z" fill="#FDCA76"/>
<path d="M17.8506 8.8243C17.7386 8.68218 17.5317 8.65634 17.3859 8.76422L8.6377 13.8657C8.6377 13.8657 10.0339 17.6719 10.2467 18.3308C10.4601 18.9903 10.6312 19.0058 10.6312 19.0058L11.2702 15.1525L17.7883 9.2765C17.9342 9.16862 17.9613 8.96642 17.8506 8.8243Z" fill="#FFB438" fill-opacity="0.5"/>
</svg>
