<svg width="32" height="33" viewBox="0 0 32 33" fill="none" xmlns="http://www.w3.org/2000/svg">
<path fill-rule="evenodd" clip-rule="evenodd" d="M7.23943 16.3311C11.9038 14.2989 15.014 12.9592 16.5703 12.3119C21.0136 10.4637 21.9369 10.1427 22.5387 10.1321C22.6711 10.1298 22.967 10.1626 23.1587 10.3181C23.3206 10.4495 23.3651 10.6269 23.3864 10.7514C23.4078 10.8759 23.4343 11.1596 23.4132 11.3813C23.1724 13.9113 22.1305 20.0508 21.6005 22.8844C21.3762 24.0835 20.9346 24.4855 20.507 24.5248C19.5779 24.6103 18.8723 23.9108 17.9724 23.3209C16.5642 22.3978 15.7686 21.8231 14.4017 20.9224C12.822 19.8814 13.8461 19.3092 14.7463 18.3742C14.9819 18.1295 19.0758 14.4058 19.155 14.068C19.165 14.0257 19.1741 13.8683 19.0806 13.7851C18.987 13.702 18.849 13.7304 18.7493 13.753C18.6081 13.7851 16.3585 15.272 12.0004 18.2138C11.3619 18.6522 10.7835 18.8659 10.2653 18.8547C9.69401 18.8423 8.59509 18.5317 7.77816 18.2661C6.77616 17.9404 5.97979 17.7682 6.04913 17.215C6.08525 16.9269 6.48202 16.6323 7.23943 16.3311Z" fill="#FDCA76"/>
</svg>
