<svg width="46" height="12" viewBox="0 0 46 12" fill="none" xmlns="http://www.w3.org/2000/svg">
<path d="M3.89609 1.23918V3.59474H6.05602V5.36221H3.88122V8.94602C3.88122 9.73746 4.29327 10.1238 4.89721 10.1238C5.19918 10.1238 5.54876 10.0228 5.83437 9.87148L6.37435 11.6216C5.81949 11.8565 5.35836 11.9574 4.77077 11.9748C3.07198 12.0425 1.96078 11.0161 1.96078 8.94602V5.36221H0.5V3.59474H1.96078V1.45836L3.89609 1.23918ZM41.1341 3.48438L41.2769 4.44298C41.8808 3.41656 42.6901 3.26521 43.4844 3.26521C44.2937 3.26521 45.0716 3.60106 45.5 4.05512L44.6269 5.8384C44.2296 5.48521 43.8652 5.29918 43.23 5.29918C42.214 5.29918 41.2769 5.87145 41.2769 7.40241V11.7777H39.3401V3.48122L41.1341 3.48438ZM36.3873 6.66452C36.2608 5.58771 35.4664 5.04849 34.3553 5.04849C33.3081 5.04849 32.4497 5.58771 32.1641 6.66452H36.3873ZM32.1329 8.36418C32.2593 9.3906 33.1012 10.1317 34.4668 10.1317C35.1809 10.1317 36.118 9.84466 36.5628 9.35745L37.8004 10.6535C36.9749 11.5617 35.6256 12 34.4341 12C31.7357 12 30.1306 10.2325 30.1306 7.57427C30.1306 5.05002 31.7505 3.23216 34.2913 3.23216C36.9109 3.23216 38.5472 4.94915 38.2452 8.36418H32.1329ZM23.5913 0V4.61014C24.2905 3.65154 25.1473 3.36454 26.0369 3.36454C28.2592 3.36454 29.244 4.96333 29.244 7.40404V11.7793H27.3072V7.42138C27.3072 5.90613 26.5605 5.26757 25.5281 5.26757C24.3842 5.26757 23.5913 6.29399 23.5913 7.53959V11.7808H21.6545V0.00153643L23.5913 0ZM18.4473 1.14463V3.50018H20.6073V5.26757H18.4324V8.85138C18.4324 9.64291 18.846 10.0292 19.4485 10.0292C19.7505 10.0292 20.1 9.92828 20.3857 9.77693L20.9257 11.527C20.3708 11.762 19.9096 11.8628 19.3221 11.8802C17.6232 11.948 16.5121 10.9199 16.5121 8.85138V5.26757H15.0513V3.50018H16.5121V1.36381L18.4473 1.14463ZM13.0966 6.66452C12.9702 5.58771 12.1758 5.04849 11.0646 5.04849C10.0174 5.04849 9.15907 5.58771 8.87345 6.66452H13.0966ZM8.84221 8.36418C8.96866 9.3906 9.81063 10.1317 11.1762 10.1317C11.8902 10.1317 12.8274 9.84466 13.2721 9.35745L14.5098 10.6535C13.6842 11.5617 12.335 12 11.1435 12C8.44354 12 6.83996 10.2325 6.83996 7.57427C6.83996 5.05002 8.45991 3.23216 10.9992 3.23216C13.6187 3.23216 15.2535 4.94915 14.9531 8.36418H8.84221Z" fill="white"/>
</svg>
