<svg width="28" height="28" viewBox="0 0 28 28" fill="none" xmlns="http://www.w3.org/2000/svg">
<path d="M14 27.4985C21.4558 27.4985 27.5 21.455 27.5 14C27.5 6.54497 21.4558 0.50148 14 0.50148C6.5442 0.50148 0.5 6.54497 0.5 14C0.5 21.455 6.5442 27.4985 14 27.4985Z" fill="#26A17B"/>
<path d="M15.439 15.2457V15.2435C15.3456 15.25 14.8638 15.2782 13.7916 15.2782C12.9343 15.2782 12.3331 15.2544 12.1204 15.2435V15.2457C8.8235 15.1002 6.36447 14.5273 6.36447 13.8394C6.36447 13.1536 8.82572 12.5785 12.1204 12.4331V14.6749C12.3353 14.6901 12.9539 14.727 13.8068 14.727C14.8312 14.727 15.3434 14.6836 15.439 14.6749V12.4353C18.7294 12.5828 21.1819 13.1558 21.1819 13.8415C21.1819 14.5273 18.7271 15.1002 15.439 15.2478V15.2457ZM15.439 12.203V10.1978H20.0294V7.14005H7.53211V10.1978H12.1226V12.203C8.39159 12.3745 5.5874 13.1124 5.5874 13.9978C5.5874 14.8833 8.3938 15.6211 12.1226 15.7947V22.2228H15.4411V15.7947C19.1656 15.6233 21.9655 14.8854 21.9655 14C21.9655 13.1167 19.1656 12.3767 15.4411 12.2053" fill="white"/>
</svg>
