<svg width="15" height="15" viewBox="0 0 15 15" fill="none" xmlns="http://www.w3.org/2000/svg">
<path d="M10.0513 8.12566C10.0513 7.90159 10.0726 7.68816 10.0513 7.48544C10.0086 7.05864 9.82719 6.68519 9.57098 6.35444C9.52834 6.3011 9.51756 6.2584 9.52827 6.19442C9.6777 5.11677 9.82719 4.04982 9.98726 2.97215C10.0513 2.40666 10.126 1.8625 10.2007 1.30767C10.2007 1.28633 10.2113 1.27566 10.2113 1.24365C11.7696 1.8625 12.9756 2.87612 13.8081 4.31652C14.5979 5.69294 14.8754 7.17604 14.6726 8.76581C13.1251 8.55245 11.5989 8.33902 10.0513 8.12566Z" fill="#FDCA76"/>
<path d="M0.79759 6.82422C2.3452 7.03758 3.87139 7.25101 5.40829 7.47508C5.40829 7.49643 5.40829 7.51771 5.40829 7.53906C5.34429 8.18992 5.51507 8.77674 5.93128 9.28893C5.95264 9.31028 5.96328 9.35291 5.95264 9.39561C5.80321 10.4839 5.65378 11.5616 5.49372 12.6499C5.419 13.2047 5.34429 13.7489 5.25886 14.3037C5.25886 14.3144 5.25887 14.325 5.24822 14.3464C3.82875 13.7916 2.6867 12.8846 1.86493 11.6149C0.925659 10.1532 0.584165 8.55274 0.79759 6.82422Z" fill="#FDCA76"/>
<path d="M1.18164 5.31978C1.82206 3.70873 2.87868 2.47101 4.39422 1.64943C5.73898 0.913219 7.17989 0.667819 8.70607 0.87054C8.49265 2.41765 8.27915 3.94344 8.05501 5.47988C7.99101 5.47988 7.93766 5.46917 7.88423 5.46917C7.27596 5.43718 6.74225 5.60791 6.26197 5.98136C6.22997 6.00271 6.17662 6.02406 6.13391 6.01335C4.92786 5.84262 3.72181 5.67196 2.52647 5.51187C2.09955 5.44789 1.67263 5.39455 1.25635 5.33049C1.23507 5.33049 1.21371 5.31978 1.18164 5.31978Z" fill="#FDCA76"/>
<path d="M7.40445 10.1106C7.62852 10.1106 7.84201 10.1319 8.05544 10.1106C8.48236 10.0679 8.85592 9.89722 9.18677 9.61981C9.22949 9.57711 9.2722 9.5664 9.3362 9.57711C10.5316 9.74784 11.7377 9.9185 12.933 10.0892C13.3599 10.1533 13.7868 10.2066 14.2138 10.2706C14.2245 10.2706 14.2458 10.2706 14.2671 10.2813C13.7121 11.6897 12.8263 12.8314 11.5562 13.6529C10.094 14.6132 8.48236 14.9547 6.74268 14.7412C6.97753 13.1835 7.19095 11.6577 7.40445 10.1106Z" fill="#FDCA76"/>
</svg>
