<svg width="49" height="14" viewBox="0 0 49 14" fill="none" xmlns="http://www.w3.org/2000/svg">
<path d="M4.61985 4.69167H3.39795V12.6823H4.61985V4.69167Z" fill="white"/>
<path d="M10.1024 1.31006H0.126465V2.53196H10.1024V1.31006Z" fill="white"/>
<path d="M6.83275 4.69167H5.61084V12.6823H6.83275V4.69167Z" fill="white"/>
<path d="M40.6465 12.6937H41.8816V7.87993L40.6465 6.50647V12.6937Z" fill="white"/>
<path d="M47.1477 1.31016V10.2309L38.4106 0.522034V12.6937H39.6458V3.76531L48.3847 13.478V1.31016H47.1477Z" fill="white"/>
<path d="M30.4163 1.30251C27.2773 1.30251 24.7236 3.85618 24.7236 6.99527C24.7236 10.1343 27.2773 12.688 30.4163 12.688C33.5554 12.688 36.1091 10.1343 36.1091 6.99527C36.1091 3.85618 33.5554 1.30251 30.4163 1.30251ZM30.4163 11.4604C27.9536 11.4604 25.9493 9.458 25.9493 6.99338C25.9493 4.52868 27.9517 2.5263 30.4163 2.5263C32.881 2.5263 34.8834 4.52868 34.8834 6.99338C34.8834 9.458 32.8791 11.4604 30.4163 11.4604Z" fill="white"/>
<path d="M30.4166 6.1749C29.9657 6.1749 29.5962 6.54429 29.5962 6.99517C29.5962 7.44606 29.9657 7.81545 30.4166 7.81545C30.8674 7.81545 31.2368 7.44606 31.2368 6.99517C31.2368 6.54429 30.8711 6.1749 30.4166 6.1749Z" fill="white"/>
<path d="M22.5814 4.79955C22.5814 2.87488 21.026 1.31006 19.1146 1.31006H12.6016V12.6936H13.8178V2.5452H19.1146C20.3403 2.5452 21.3386 3.55684 21.3386 4.79765C21.3386 6.03288 20.3535 7.04065 19.1392 7.05398L14.8181 7.052V12.6917H16.0342V8.28723H18.8834L21.2098 12.6917H22.6211L20.1925 8.11478C21.6039 7.65066 22.5814 6.29809 22.5814 4.79955Z" fill="white"/>
</svg>
