<svg width="82" height="27" viewBox="0 0 82 27" fill="none" xmlns="http://www.w3.org/2000/svg">
<g clip-path="url(#clip0_965_42)">
<path d="M13.5 26.997C20.9558 26.997 27 20.9535 27 13.4985C27 6.04349 20.9558 0 13.5 0C6.0442 0 0 6.04349 0 13.4985C0 20.9535 6.0442 26.997 13.5 26.997Z" fill="#26A17B"/>
<path d="M14.9395 14.7443V14.7421C14.8461 14.7487 14.3643 14.7769 13.2921 14.7769C12.4348 14.7769 11.8336 14.753 11.6209 14.7421V14.7443C8.32399 14.5989 5.86495 14.026 5.86495 13.338C5.86495 12.6522 8.3262 12.0771 11.6209 11.9317V14.1736C11.8358 14.1887 12.4543 14.2256 13.3073 14.2256C14.3317 14.2256 14.8439 14.1822 14.9395 14.1736V11.9339C18.2298 12.0815 20.6824 12.6544 20.6824 13.3402C20.6824 14.026 18.2276 14.5989 14.9395 14.7465V14.7443ZM14.9395 11.7017V9.69642H19.5299V6.63867H7.0326V9.69642H11.6231V11.7017C7.89208 11.8731 5.08789 12.611 5.08789 13.4964C5.08789 14.3819 7.89429 15.1198 11.6231 15.2934V21.7214H14.9416V15.2934C18.6661 15.1219 21.4659 14.384 21.4659 13.4986C21.4659 12.6153 18.6661 11.8753 14.9416 11.7039" fill="white"/>
<path d="M37.92 10.5885H39.81V17.2485H37.92V10.5885ZM35 9.74854H42.73V11.4185H35V9.74854Z" fill="white"/>
<path d="M44.9467 13.0485H47.7567C48.11 13.0485 48.39 12.9685 48.5967 12.8085C48.8033 12.6419 48.9067 12.4119 48.9067 12.1185C48.9067 11.8252 48.8033 11.5985 48.5967 11.4385C48.39 11.2719 48.11 11.1885 47.7567 11.1885H44.6767L45.5267 10.2585V17.2485H43.6367V9.74854H48.0067C48.5667 9.74854 49.0567 9.84854 49.4767 10.0485C49.8967 10.2485 50.2233 10.5252 50.4567 10.8785C50.69 11.2319 50.8067 11.6452 50.8067 12.1185C50.8067 12.5852 50.69 12.9952 50.4567 13.3485C50.2233 13.7019 49.8967 13.9785 49.4767 14.1785C49.0567 14.3785 48.5667 14.4785 48.0067 14.4785H44.9467V13.0485ZM46.1567 13.7385H48.2867L51.0467 17.2485H48.8567L46.1567 13.7385Z" fill="white"/>
<path d="M60.197 14.1486C60.1237 14.7953 59.9004 15.3653 59.527 15.8586C59.1537 16.3453 58.6604 16.7253 58.047 16.9986C57.4337 17.272 56.737 17.4086 55.957 17.4086C55.0904 17.4086 54.3304 17.2453 53.677 16.9186C53.0304 16.592 52.527 16.1353 52.167 15.5486C51.807 14.962 51.627 14.2786 51.627 13.4986C51.627 12.7186 51.807 12.0353 52.167 11.4486C52.527 10.862 53.0304 10.4053 53.677 10.0786C54.3304 9.75202 55.0904 9.58862 55.957 9.58862C56.737 9.58862 57.4337 9.72532 58.047 9.99862C58.6604 10.272 59.1537 10.652 59.527 11.1386C59.9004 11.6253 60.1237 12.1953 60.197 12.8486H58.297C58.2304 12.5086 58.0937 12.2186 57.887 11.9786C57.687 11.7386 57.4204 11.5553 57.087 11.4286C56.7604 11.2953 56.3804 11.2286 55.947 11.2286C55.447 11.2286 55.017 11.322 54.657 11.5086C54.297 11.6886 54.0204 11.9486 53.827 12.2886C53.6337 12.6286 53.537 13.032 53.537 13.4986C53.537 13.9653 53.6337 14.3686 53.827 14.7086C54.0204 15.0486 54.297 15.312 54.657 15.4986C55.017 15.6786 55.447 15.7686 55.947 15.7686C56.3804 15.7686 56.7604 15.7053 57.087 15.5786C57.4204 15.452 57.687 15.2686 57.887 15.0286C58.0937 14.7886 58.2304 14.4953 58.297 14.1486H60.197Z" fill="white"/>
<path d="M61.0742 13.0085H63.6242V14.4885H61.0742V13.0085Z" fill="white"/>
<path d="M64.4082 12.4186C64.4482 11.8386 64.6382 11.3386 64.9782 10.9186C65.3182 10.492 65.7682 10.1653 66.3282 9.93862C66.8949 9.70532 67.5349 9.58862 68.2482 9.58862C68.9282 9.58862 69.5216 9.69202 70.0282 9.89862C70.5416 10.1053 70.9382 10.3953 71.2182 10.7686C71.5049 11.142 71.6482 11.572 71.6482 12.0586C71.6482 12.4386 71.5482 12.792 71.3482 13.1186C71.1482 13.4386 70.8316 13.7586 70.3982 14.0786C69.9649 14.3986 69.3949 14.7386 68.6882 15.0986L66.5282 16.2386L66.4182 15.7386H71.8582V17.2486H64.5382V15.9286L67.7582 14.0786C68.2716 13.7853 68.6716 13.5353 68.9582 13.3286C69.2516 13.1153 69.4582 12.9186 69.5782 12.7386C69.6982 12.5586 69.7582 12.3653 69.7582 12.1586C69.7582 11.9453 69.6982 11.7553 69.5782 11.5886C69.4649 11.422 69.2916 11.292 69.0582 11.1986C68.8249 11.1053 68.5316 11.0586 68.1782 11.0586C67.7582 11.0586 67.4116 11.122 67.1382 11.2486C66.8649 11.3686 66.6616 11.532 66.5282 11.7386C66.3949 11.9453 66.3149 12.172 66.2882 12.4186H64.4082Z" fill="white"/>
<path d="M76.8707 17.4086C76.024 17.4086 75.2907 17.2453 74.6707 16.9186C74.0507 16.592 73.5707 16.1386 73.2307 15.5586C72.8907 14.972 72.7207 14.2853 72.7207 13.4986C72.7207 12.7186 72.8907 12.0353 73.2307 11.4486C73.5707 10.862 74.0507 10.4053 74.6707 10.0786C75.2907 9.75202 76.024 9.58862 76.8707 9.58862C77.7107 9.58862 78.4407 9.75202 79.0607 10.0786C79.6807 10.4053 80.1607 10.862 80.5007 11.4486C80.8407 12.0286 81.0107 12.712 81.0107 13.4986C81.0107 14.2786 80.8407 14.962 80.5007 15.5486C80.1607 16.1353 79.6807 16.592 79.0607 16.9186C78.4407 17.2453 77.7107 17.4086 76.8707 17.4086ZM76.8707 15.8686C77.584 15.8686 78.1373 15.662 78.5307 15.2486C78.9307 14.8353 79.1307 14.252 79.1307 13.4986C79.1307 12.7453 78.9307 12.162 78.5307 11.7486C78.1373 11.3353 77.584 11.1286 76.8707 11.1286C76.1573 11.1286 75.6007 11.3353 75.2007 11.7486C74.8007 12.162 74.6007 12.7453 74.6007 13.4986C74.6007 14.252 74.8007 14.8353 75.2007 15.2486C75.6007 15.662 76.1573 15.8686 76.8707 15.8686Z" fill="white"/>
</g>
<defs>
<clipPath id="clip0_965_42">
<rect width="81.0107" height="26.997" fill="white"/>
</clipPath>
</defs>
</svg>
