<svg width="69" height="23" viewBox="0 0 69 23" fill="none" xmlns="http://www.w3.org/2000/svg">
<path d="M29.9032 21.884H24.3174L27.8112 0.388184H33.3967L29.9032 21.884Z" fill="#EBEFFD" fill-opacity="0.6"/>
<path d="M50.1528 0.913697C49.051 0.478762 47.3035 -0.00146484 45.1426 -0.00146484C39.6265 -0.00146484 35.7421 2.92546 35.7181 7.11008C35.6724 10.1975 38.4993 11.9123 40.6137 12.9417C42.7748 13.9936 43.5095 14.6803 43.5095 15.6179C43.4875 17.0579 41.7631 17.7218 40.155 17.7218C37.9248 17.7218 36.7299 17.3796 34.914 16.5784L34.1784 16.2349L33.3967 21.0603C34.7069 21.6541 37.1206 22.1812 39.6265 22.2043C45.4875 22.2043 49.3034 19.3227 49.3485 14.8633C49.3708 12.4162 47.8781 10.5412 44.6597 9.00909C42.7061 8.02554 41.5096 7.36234 41.5096 6.35601C41.5326 5.44115 42.5215 4.50412 44.727 4.50412C46.5429 4.45821 47.8771 4.89255 48.8879 5.32717L49.3931 5.55544L50.1528 0.913697Z" fill="#EBEFFD" fill-opacity="0.6"/>
<path d="M57.5758 14.2688C58.0357 13.0339 59.8059 8.25441 59.8059 8.25441C59.7827 8.3003 60.265 6.99672 60.5408 6.19645L60.9313 8.04864C60.9313 8.04864 61.989 13.1941 62.2186 14.2688C61.3458 14.2688 58.679 14.2688 57.5758 14.2688ZM64.4708 0.388184H60.1502C58.8177 0.388184 57.8055 0.776616 57.2306 2.17169L48.9336 21.8837H54.7946C54.7946 21.8837 55.7596 19.2306 55.967 18.6592C56.61 18.6592 62.3116 18.6592 63.1387 18.6592C63.2991 19.4138 63.8052 21.8837 63.8052 21.8837H68.9772L64.4708 0.388184Z" fill="#EBEFFD" fill-opacity="0.6"/>
<path d="M19.6517 0.388184L14.1813 15.0462L13.5836 12.0734C12.5722 8.64316 9.40043 4.91626 5.86084 3.06314L10.8715 21.8612H16.7782L25.5583 0.388184H19.6517Z" fill="#EBEFFD" fill-opacity="0.6"/>
<path d="M9.10174 0.389893H0.114694L0.0227051 0.824215C7.03317 2.60804 11.6762 6.90785 13.5837 12.076L11.6299 2.19681C11.3084 0.823916 10.3199 0.435185 9.10174 0.389893Z" fill="#DADDEF"/>
</svg>
