<svg width="41" height="34" viewBox="0 0 41 34" fill="none" xmlns="http://www.w3.org/2000/svg">
<g clip-path="url(#clip0_296_999)">
<path fill-rule="evenodd" clip-rule="evenodd" d="M17.3184 32.1011H24.4062V19.2156H17.3184V32.1011Z" fill="#FF5F00"/>
<path fill-rule="evenodd" clip-rule="evenodd" d="M17.7682 25.6582C17.7682 23.0441 18.9781 20.7158 20.8621 19.2155C19.4842 18.1181 17.7457 17.4634 15.8561 17.4634C11.3826 17.4634 7.75635 21.1324 7.75635 25.6582C7.75635 30.184 11.3826 33.853 15.8561 33.853C17.7457 33.853 19.4842 33.1984 20.8621 32.1009C18.9781 30.6004 17.7682 28.2724 17.7682 25.6582Z" fill="#EB001B"/>
<path fill-rule="evenodd" clip-rule="evenodd" d="M33.7152 30.7363V30.4183H33.633L33.5389 30.637L33.4442 30.4183H33.3622V30.7363H33.42V30.4964L33.5087 30.7033H33.5687L33.6574 30.4958V30.7363H33.7152ZM33.1952 30.7363V30.4725H33.3006V30.4188H33.0327V30.4725H33.1378V30.7363H33.1952ZM33.9681 25.6582C33.9681 30.184 30.3416 33.853 25.8684 33.853C23.9787 33.853 22.2401 33.1984 20.8623 32.1009C22.7464 30.6007 23.9563 28.2724 23.9563 25.6582C23.9563 23.0443 22.7464 20.7161 20.8623 19.2155C22.2401 18.1181 23.9787 17.4634 25.8684 17.4634C30.3416 17.4634 33.9681 21.1324 33.9681 25.6582Z" fill="#F79E1B"/>
<path d="M17.6533 13.6831H14.4419L16.4506 1.01025H19.6618L17.6533 13.6831Z" fill="white"/>
<path d="M29.295 1.32002C28.6615 1.06361 27.6569 0.780487 26.4145 0.780487C23.2432 0.780487 21.01 2.50606 20.9962 4.97311C20.9699 6.79329 22.5952 7.80428 23.8108 8.41116C25.0533 9.03131 25.4756 9.43614 25.4756 9.98891C25.463 10.8379 24.4716 11.2293 23.5471 11.2293C22.2649 11.2293 21.5779 11.0275 20.5339 10.5552L20.111 10.3527L19.6616 13.1975C20.4149 13.5476 21.8025 13.8583 23.2432 13.872C26.6128 13.872 28.8066 12.1731 28.8325 9.54403C28.8454 8.10133 27.9872 6.99595 26.1369 6.09267C25.0137 5.51282 24.3259 5.12183 24.3259 4.52855C24.3391 3.98919 24.9076 3.43676 26.1756 3.43676C27.2196 3.4097 27.9866 3.66576 28.5678 3.92199L28.8582 4.05657L29.295 1.32002Z" fill="white"/>
<path d="M33.5628 9.19358C33.8272 8.46556 34.8449 5.6478 34.8449 5.6478C34.8316 5.67486 35.1089 4.90633 35.2674 4.43453L35.4919 5.52649C35.4919 5.52649 36.1 8.56 36.232 9.19358C35.7302 9.19358 34.197 9.19358 33.5628 9.19358ZM37.5269 1.01025H35.0429C34.2768 1.01025 33.6949 1.23925 33.3643 2.06172L28.5942 13.683H31.9638C31.9638 13.683 32.5186 12.1188 32.6379 11.7819C33.0075 11.7819 36.2855 11.7819 36.761 11.7819C36.8532 12.2268 37.1442 13.683 37.1442 13.683H40.1176L37.5269 1.01025Z" fill="white"/>
<path d="M11.7597 1.01025L8.61463 9.6519L8.27101 7.89927C7.68954 5.87699 5.86602 3.67979 3.83105 2.58728L6.71174 13.6697H10.1076L15.1555 1.01025H11.7597Z" fill="white"/>
<path d="M5.69429 1.01117H0.527495L0.474609 1.26722C4.50504 2.31888 7.17437 4.85384 8.27105 7.90075L7.14779 2.07644C6.96292 1.26705 6.39464 1.03787 5.69429 1.01117Z" fill="#FAA61A"/>
</g>
<defs>
<clipPath id="clip0_296_999">
<rect width="41" height="34" fill="white"/>
</clipPath>
</defs>
</svg>
