<svg width="64" height="30" viewBox="0 0 64 30" fill="none" xmlns="http://www.w3.org/2000/svg">
<path d="M29.1792 20.9024H25.9678L27.9764 8.22949H31.1876L29.1792 20.9024Z" fill="white"/>
<path d="M40.8208 8.53954C40.1874 8.28312 39.1827 8 37.9404 8C34.7691 8 32.5359 9.72557 32.5221 12.1926C32.4958 14.0128 34.1211 15.0238 35.3366 15.6307C36.5791 16.2508 37.0015 16.6557 37.0015 17.2084C36.9888 18.0574 35.9975 18.4488 35.0729 18.4488C33.7907 18.4488 33.1038 18.247 32.0598 17.7747L31.6369 17.5722L31.1875 20.417C31.9407 20.7671 33.3284 21.0778 34.7691 21.0915C38.1387 21.0915 40.3325 19.3926 40.3584 16.7635C40.3713 15.3208 39.5131 14.2155 37.6628 13.3122C36.5396 12.7323 35.8517 12.3413 35.8517 11.7481C35.8649 11.2087 36.4335 10.6563 37.7015 10.6563C38.7455 10.6292 39.5125 10.8853 40.0936 11.1415L40.3841 11.2761L40.8208 8.53954Z" fill="white"/>
<path d="M45.0887 16.4128C45.3531 15.6848 46.3708 12.867 46.3708 12.867C46.3575 12.8941 46.6347 12.1256 46.7933 11.6538L47.0178 12.7457C47.0178 12.7457 47.6259 15.7792 47.7579 16.4128C47.2561 16.4128 45.7229 16.4128 45.0887 16.4128ZM49.0527 8.22949H46.5687C45.8027 8.22949 45.2207 8.45849 44.8902 9.28096L40.1201 20.9022H43.4897C43.4897 20.9022 44.0445 19.3381 44.1637 19.0012C44.5334 19.0012 47.8113 19.0012 48.2868 19.0012C48.3791 19.4461 48.6701 20.9022 48.6701 20.9022H51.6435L49.0527 8.22949Z" fill="white"/>
<path d="M23.2851 8.22949L20.14 16.8711L19.7964 15.1185C19.2149 13.0962 17.3914 10.899 15.3564 9.80652L18.2371 20.8889H21.633L26.6809 8.22949H23.2851Z" fill="white"/>
<path d="M17.2197 8.23047H12.0529L12 8.48652C16.0304 9.53818 18.6998 12.0731 19.7964 15.1201L18.6732 9.29574C18.4883 8.48635 17.92 8.25717 17.2197 8.23047Z" fill="#FAA61A"/>
<rect x="0.5" y="0.5" width="62.6433" height="28.0915" rx="7.5" stroke="#8A89A4" stroke-opacity="0.1"/>
</svg>
