<svg width="31" height="20" viewBox="0 0 31 20" fill="none" xmlns="http://www.w3.org/2000/svg">
<g clip-path="url(#clip0_311_827)">
<path d="M30.7099 16.5667C30.6293 16.4346 30.1304 15.3738 27.7302 13.1933C25.2176 10.9101 25.5551 11.2809 28.5815 7.33302C30.4249 4.92869 31.1619 3.46041 30.9312 2.8327C30.7117 2.23437 29.3561 2.39223 29.3561 2.39223L24.8483 2.41791C24.8483 2.41791 24.5144 2.37387 24.2651 2.51885C24.0231 2.66201 23.8675 2.99239 23.8675 2.99239C23.8675 2.99239 23.1531 4.85344 22.2005 6.43553C20.1923 9.77406 19.3878 9.95026 19.0597 9.74284C18.2965 9.26016 18.4877 7.80104 18.4877 6.76589C18.4877 3.53014 18.9884 2.18115 17.5108 1.83243C17.0195 1.71681 16.6595 1.63972 15.405 1.62687C13.7962 1.61035 12.4329 1.63238 11.6622 2.00129C11.1485 2.24722 10.7528 2.796 10.9947 2.82721C11.2928 2.86574 11.9679 3.00524 12.326 3.48243C12.7892 4.09727 12.7723 5.48114 12.7723 5.48114C12.7723 5.48114 13.0386 9.28952 12.1517 9.76304C11.5422 10.0879 10.7078 9.42534 8.91704 6.39515C8.0001 4.84426 7.30631 3.1282 7.30631 3.1282C7.30631 3.1282 7.17316 2.80885 6.93503 2.63816C6.64625 2.43076 6.24122 2.3647 6.24122 2.3647L1.95466 2.39038C1.95466 2.39038 1.31149 2.40874 1.07522 2.6822C0.865205 2.92632 1.05834 3.4292 1.05834 3.4292C1.05834 3.4292 4.41484 11.1139 8.21386 14.9883C11.6998 18.5397 15.6563 18.3067 15.6563 18.3067H17.4489C17.4489 18.3067 17.9908 18.248 18.2665 17.9561C18.5215 17.6881 18.5121 17.1852 18.5121 17.1852C18.5121 17.1852 18.4765 14.8305 19.5941 14.4836C20.6947 14.1422 22.1086 16.7594 23.6068 17.7671C24.7394 18.5287 25.6001 18.3617 25.6001 18.3617L29.6074 18.3067C29.6074 18.3067 31.7036 18.18 30.7099 16.5667Z" fill="#EBEFFD" fill-opacity="0.6"/>
</g>
<defs>
<clipPath id="clip0_311_827">
<rect width="30" height="19" fill="white" transform="translate(0.977295 0.5)"/>
</clipPath>
</defs>
</svg>
