<svg width="24" height="24" viewBox="0 0 24 24" fill="none" xmlns="http://www.w3.org/2000/svg">
<circle cx="12" cy="12" r="12" fill="#FDCA76" fill-opacity="0.1"/>
<path d="M19.8574 16.0275C19.8144 15.9565 19.5483 15.3866 18.2682 14.2153C16.9282 12.9888 17.1081 13.188 18.7223 11.0673C19.7054 9.77573 20.0984 8.987 19.9754 8.6498C19.8584 8.32839 19.1353 8.41319 19.1353 8.41319L16.7312 8.42699C16.7312 8.42699 16.5531 8.40333 16.4201 8.48121C16.2911 8.55811 16.2081 8.73558 16.2081 8.73558C16.2081 8.73558 15.8271 9.7353 15.3191 10.5852C14.248 12.3786 13.8189 12.4732 13.644 12.3618C13.2369 12.1025 13.3389 11.3187 13.3389 10.7626C13.3389 9.02445 13.6059 8.2998 12.8179 8.11248C12.5558 8.05037 12.3638 8.00896 11.6948 8.00206C10.8367 7.99318 10.1097 8.00501 9.69864 8.20318C9.42462 8.3353 9.2136 8.63009 9.34262 8.64685C9.50163 8.66755 9.86166 8.74249 10.0527 8.99883C10.2997 9.32911 10.2907 10.0725 10.2907 10.0725C10.2907 10.0725 10.4327 12.1183 9.95966 12.3726C9.63464 12.5472 9.1896 12.1912 8.23453 10.5635C7.7455 9.73038 7.37547 8.80854 7.37547 8.80854C7.37547 8.80854 7.30446 8.63699 7.17746 8.5453C7.02344 8.43389 6.80743 8.3984 6.80743 8.3984L4.52126 8.4122C4.52126 8.4122 4.17824 8.42206 4.05223 8.56896C3.94022 8.70009 4.04323 8.97023 4.04323 8.97023C4.04323 8.97023 5.83336 13.0983 7.8595 15.1796C9.71864 17.0873 11.8288 16.9622 11.8288 16.9622H12.7849C12.7849 16.9622 13.0739 16.9306 13.2209 16.7738C13.3569 16.6299 13.3519 16.3597 13.3519 16.3597C13.3519 16.3597 13.3329 15.0948 13.9289 14.9084C14.516 14.7251 15.27 16.131 16.0691 16.6723C16.6731 17.0814 17.1321 16.9917 17.1321 16.9917L19.2694 16.9622C19.2694 16.9622 20.3874 16.894 19.8574 16.0275Z" fill="#FDCA76"/>
</svg>
