<svg width="18" height="18" viewBox="0 0 18 18" fill="none" xmlns="http://www.w3.org/2000/svg">
<g clip-path="url(#clip0_311_885)">
<path d="M1.5 4.5H13.5C15.1569 4.5 16.5 5.84315 16.5 7.5V13.5C16.5 15.1569 15.1569 16.5 13.5 16.5H4.5C2.84315 16.5 1.5 15.1569 1.5 13.5V4.5Z" stroke="#FDCA76" stroke-width="1.125" stroke-linejoin="round"/>
<path d="M1.5 4.5C1.5 2.84315 2.84315 1.5 4.5 1.5H9C10.6569 1.5 12 2.84315 12 4.5H1.5Z" stroke="#FDCA76" stroke-width="1.125" stroke-linejoin="round"/>
<path d="M16.5 9L16.5 12H13.5C12.6716 12 12 11.3284 12 10.5C12 9.67157 12.6716 9 13.5 9L16.5 9Z" stroke="#FDCA76" stroke-width="1.125" stroke-linejoin="round"/>
</g>
<defs>
<clipPath id="clip0_311_885">
<rect width="18" height="18" fill="white"/>
</clipPath>
</defs>
</svg>
