<svg width="25" height="24" viewBox="0 0 25 24" fill="none" xmlns="http://www.w3.org/2000/svg">
<path d="M9.26562 19C9.26562 19.75 9.05562 20.46 8.68562 21.06C7.99562 22.22 6.72563 23 5.26562 23C3.80562 23 2.53563 22.22 1.84563 21.06C1.47563 20.46 1.26562 19.75 1.26562 19C1.26562 16.79 3.05562 15 5.26562 15C7.47563 15 9.26562 16.79 9.26562 19Z" stroke="#EBEFFD" stroke-width="1.5" stroke-miterlimit="10" stroke-linecap="round" stroke-linejoin="round"/>
<path d="M3.70703 18.9995L4.69703 19.9895L6.82703 18.0195" stroke="#EBEFFD" stroke-width="1.5" stroke-linecap="round" stroke-linejoin="round"/>
<path d="M18.017 7.04997C17.777 7.00997 17.527 6.99998 17.267 6.99998H7.26703C6.98703 6.99998 6.71703 7.01998 6.45703 7.05998C6.59703 6.77998 6.79703 6.52001 7.03703 6.28001L10.287 3.02C11.657 1.66 13.877 1.66 15.247 3.02L16.997 4.78996C17.637 5.41996 17.977 6.21997 18.017 7.04997Z" stroke="#EBEFFD" stroke-width="1.5" stroke-linecap="round" stroke-linejoin="round"/>
<path d="M22.2656 12V17C22.2656 20 20.2656 22 17.2656 22H7.89563C8.20563 21.74 8.47562 21.42 8.68562 21.06C9.05562 20.46 9.26562 19.75 9.26562 19C9.26562 16.79 7.47563 15 5.26562 15C4.06562 15 2.99563 15.53 2.26562 16.36V12C2.26562 9.28 3.90562 7.38 6.45562 7.06C6.71562 7.02 6.98562 7 7.26562 7H17.2656C17.5256 7 17.7756 7.00999 18.0156 7.04999C20.5956 7.34999 22.2656 9.26 22.2656 12Z" stroke="#EBEFFD" stroke-width="1.5" stroke-linecap="round" stroke-linejoin="round"/>
<path d="M22.2656 12.5H19.2656C18.1656 12.5 17.2656 13.4 17.2656 14.5C17.2656 15.6 18.1656 16.5 19.2656 16.5H22.2656" stroke="#EBEFFD" stroke-width="1.5" stroke-linecap="round" stroke-linejoin="round"/>
</svg>
