<svg width="24" height="24" viewBox="0 0 24 24" fill="none" xmlns="http://www.w3.org/2000/svg">
<path d="M2.2085 5.875H17.8752C20.0383 5.875 21.7918 7.62855 21.7918 9.79167V17.625C21.7918 19.7881 20.0383 21.5417 17.8752 21.5417H6.12516C3.96205 21.5417 2.2085 19.7881 2.2085 17.625V5.875Z" stroke="#FD7676" stroke-width="1.46875" stroke-linejoin="round"/>
<path d="M2.2085 5.87516C2.2085 3.71205 3.96205 1.9585 6.12516 1.9585H12.0002C14.1633 1.9585 15.9168 3.71205 15.9168 5.87516H2.2085Z" stroke="#FD7676" stroke-width="1.46875" stroke-linejoin="round"/>
<path d="M21.7915 11.75L21.7915 15.6667H17.8748C16.7933 15.6667 15.9165 14.7899 15.9165 13.7083C15.9165 12.6268 16.7933 11.75 17.8748 11.75L21.7915 11.75Z" stroke="#FD7676" stroke-width="1.46875" stroke-linejoin="round"/>
</svg>
