<svg width="66" height="67" viewBox="0 0 66 67" fill="none" xmlns="http://www.w3.org/2000/svg">
<circle cx="33" cy="33.5" r="32" fill="#FFD15B"/>
<circle cx="33" cy="33.5" r="32" fill="url(#paint0_angular_311_414)"/>
<circle cx="33" cy="33.5" r="32" fill="#FDCA76"/>
<circle cx="33" cy="33.5" r="32" stroke="black" stroke-width="2"/>
<g clip-path="url(#clip0_311_414)">
<path d="M44.5885 17.3113C44.7914 17.4533 44.9895 17.5537 45.1397 17.7036C46.4115 18.984 47.6769 20.2708 48.939 21.5608C49.4056 22.0376 49.3992 22.256 48.9215 22.744C46.167 25.5456 43.4174 28.3536 40.647 31.1393C40.19 31.5985 40.0494 32.0944 39.9696 32.7259C39.7395 34.5293 40.3945 35.8145 41.7238 37.0503C44.2003 39.3528 46.501 41.8419 48.8719 44.2561C49.4199 44.8142 49.4215 45.0007 48.8687 45.5652C47.6337 46.8281 46.3939 48.0878 45.1509 49.3443C44.6972 49.8019 44.4687 49.8051 44.0149 49.3459C40.9266 46.2142 37.8334 43.0857 34.7722 39.9269C34.5038 39.6494 34.3169 39.1663 34.3137 38.7772C34.2786 35.2835 34.2754 31.7899 34.3137 28.2962C34.3185 27.8928 34.523 27.3953 34.8042 27.1035C37.8638 23.9431 40.9569 20.8146 44.0469 17.6829C44.1843 17.5441 44.3728 17.4564 44.5901 17.3113H44.5885Z" fill="black"/>
<path d="M31.7875 33.5657C31.7875 35.2751 31.7795 36.9844 31.7923 38.6922C31.7971 39.212 31.6405 39.6314 31.2698 40.0045C28.2054 43.1059 25.149 46.2185 22.0894 49.3247C21.6197 49.8014 21.3881 49.8014 20.9135 49.3215C19.6721 48.065 18.4323 46.8053 17.1957 45.5424C16.678 45.013 16.6828 44.8009 17.1973 44.2763C19.9773 41.4492 22.7541 38.6173 25.5453 35.7997C25.9303 35.4106 26.0406 34.9785 26.114 34.4507C26.3761 32.5739 25.6859 31.2169 24.2927 29.9285C21.8514 27.6739 19.5954 25.2182 17.2628 22.8471C16.6541 22.2285 16.6605 22.0451 17.2836 21.4152C18.4739 20.2129 19.6562 19.0043 20.8448 17.8004C21.3976 17.2407 21.6005 17.2359 22.1422 17.7844C25.189 20.8763 28.2454 23.9617 31.2634 27.0823C31.5542 27.3836 31.7475 27.9019 31.7619 28.326C31.8178 30.0705 31.7843 31.8181 31.7859 33.5657H31.7875Z" fill="black"/>
</g>
<defs>
<radialGradient id="paint0_angular_311_414" cx="0" cy="0" r="1" gradientUnits="userSpaceOnUse" gradientTransform="translate(33 33.5) rotate(90) scale(33)">
<stop stop-color="#F6FF89"/>
<stop offset="0.255208" stop-color="#FFB053"/>
<stop offset="0.838542" stop-color="#FFC876"/>
</radialGradient>
<clipPath id="clip0_311_414">
<rect width="32.3774" height="32.3774" fill="white" transform="translate(16.8104 17.3114)"/>
</clipPath>
</defs>
</svg>
